<?xml version="1.0" encoding="utf-8"?>
<!-- Generator: Adobe Illustrator 18.1.1, SVG Export Plug-In . SVG Version: 6.00 Build 0)  -->
<svg version="1.1" id="Layer_1" xmlns="http://www.w3.org/2000/svg" xmlns:xlink="http://www.w3.org/1999/xlink" x="0px" y="0px"
	 viewBox="0 0 231.7 180.8" enable-background="new 0 0 231.7 180.8" xml:space="preserve">
<g>
	<path fill="#F05A81" d="M64,66.7c-0.9,0.1-1.7,0-2.6-0.1c-0.4-0.1-0.8-0.2-1.2-0.3c-0.2-0.1-0.5-0.1-0.5-0.4
		c-0.1-0.3,0-0.6,0.1-0.9c0.1-0.4,0.2-0.8,0.4-1.1c0.4-0.7,0.9-1.4,1.4-2c2.3-2.7,4.7-5.4,7.1-8c0.6-0.7,1.3-1.4,1.9-2
		c0.5-0.5,1-1,1.5-1.4c0.5-0.4,1.1-0.7,1.7-0.8c0.5-0.1,0.9,0,1.3,0.5c0.4,0.5,0.5,1.2,0.6,1.9c0.1,0.8,0.1,1.6,0,2.4
		c-0.1,1.6-0.6,3.1-1.2,4.6c-1.2,3.2-3.1,6-4.5,9.1c-1.3,2.9-2.4,6.4-1.3,9.6c0.5,1.4,1.4,2.6,2.6,3.4c1.2,0.8,2.7,0.9,4.1,0.6
		c2.9-0.6,5.1-2.9,7.2-4.9c4.9-4.6,9.5-9.6,13.6-15c0.5-0.7,1-1.4,1.5-2c0.2-0.3,0-0.8-0.3-1c-0.4-0.2-0.8,0-1,0.3
		c-4.1,5.5-8.6,10.7-13.6,15.4c-1.2,1.2-2.4,2.3-3.7,3.4c-1,0.8-2.1,1.7-3.4,2.1c-1.2,0.4-2.5,0.5-3.6-0.1c-1.1-0.6-1.9-1.8-2.3-3
		c-0.4-1.5-0.3-3.1,0.1-4.6c0.4-1.7,1.1-3.3,1.9-4.8c1.5-3.1,3.4-6.1,4.5-9.4c0.5-1.6,0.8-3.2,0.8-4.9c0-1.5-0.2-3.4-1.5-4.4
		c-1.3-1-2.8-0.5-4.1,0.3c-1.4,0.9-2.5,2.2-3.6,3.4c-2.5,2.7-4.9,5.4-7.3,8.2c-1.1,1.3-2.3,2.8-2.6,4.5c-0.1,0.9-0.1,1.8,0.7,2.3
		c0.7,0.5,1.6,0.6,2.4,0.7c0.9,0.1,1.8,0.2,2.7,0.1C65,68.2,65,66.7,64,66.7L64,66.7z"/>
	<path fill="#F05A81" d="M97.2,60.5c6.3-8.4,10.8-18,13.2-28.1c0.1-0.4-0.1-0.8-0.5-0.9c-1.9-0.5-3.4,1-4.4,2.4
		c-0.7,1-1.1,2.2-1.7,3.3c-0.6,1.3-1.2,2.6-1.8,3.8c-2.4,5.2-4.6,10.4-6.8,15.7C91,67.2,87.1,77.8,82.9,88.3
		c-2.1,5.3-4.3,10.7-6.6,15.9c-2.1,4.9-4.3,9.8-7.1,14.4c-4.7,7.9-12.2,15.4-22,15.9c-2.4,0.1-5.2,0-7.1-1.5
		c-1.8-1.5-2.7-3.9-3.1-6.1c-0.7-5.1,1.3-10.1,4.4-14c3.1-3.9,7.1-7,11.2-9.8c3.9-2.6,7.9-4.9,12.2-6.8c8.6-3.9,17.7-6.6,27-8.2
		c9.3-1.7,18.8-2.4,28.3-2.4c11.3-0.1,22.6,0.7,33.9,1.6c11.3,0.9,22.5,1.9,33.8,2.4c2.8,0.1,5.5,0.2,8.3,0.2c1,0,0.9-1.5,0-1.5
		c-0.4,0-0.7,0-1.1,0c-1,0-0.9,1.5,0,1.5c0.4,0,0.7,0,1.1,0c0-0.5,0-1,0-1.5c-11.5-0.1-23-1-34.5-2c-11.5-0.9-23-1.9-34.5-2.2
		c-10-0.2-20,0.2-30,1.5c-9.5,1.3-18.9,3.5-27.8,7.1c-8.9,3.5-17.5,8.2-24.6,14.6c-3.8,3.4-7.1,7.5-8.5,12.5
		c-1.3,4.4-1.1,10,2.2,13.6c1.7,1.9,4.2,2.5,6.7,2.6c2.3,0.1,4.5-0.1,6.7-0.7c4.4-1.2,8.3-3.7,11.6-6.8c3.8-3.6,6.6-8,9-12.6
		c2.6-4.9,4.8-10.1,7-15.2C84,90.1,88,79.2,92.2,68.5c4.2-10.8,8.5-21.5,13.6-31.8c0.6-1.3,1.8-4.3,3.8-3.7
		c-0.2-0.3-0.4-0.6-0.5-0.9c-2.4,10-6.9,19.5-13.1,27.8C95.4,60.5,96.7,61.2,97.2,60.5L97.2,60.5z"/>
	<path fill="#F05A81" d="M91.2,77.3c1.5-1.7,3.3-3.2,5.3-4.4c1-0.6,2-1.1,3-1.5c0.6-0.2,1.1-0.4,1.7-0.6c0.1,0,0.2-0.1,0.4-0.1
		c0.2-0.1,0.2,0-0.1-0.2c-0.4-0.3-0.2-0.2-0.2-0.1c-0.1,0.2-0.2,0.5-0.3,0.7c-1,2.2-2.6,4-4,6c-0.7,1-1.4,2-1.9,3.1
		c-0.3,0.7-0.3,1.4,0.2,2c0.4,0.5,1.1,0.7,1.7,0.8c1.5,0.2,2.9-0.6,4.3-1.2c1.5-0.6,3-1.2,4.5-1.8c0.4-0.2,0.6-0.5,0.5-0.9
		c-0.1-0.4-0.5-0.7-0.9-0.5c-1.3,0.6-2.7,1.1-4,1.7c-0.6,0.3-1.3,0.5-1.9,0.8c-0.5,0.2-1.1,0.4-1.7,0.5c-0.3,0-0.5,0-0.8-0.1
		c-0.2,0-0.5-0.2-0.5-0.3c-0.1-0.2,0.1-0.4,0.1-0.5c0.1-0.3,0.3-0.6,0.4-0.8c0.6-1,1.3-2,2-3c0.8-1,1.5-2,2.2-3
		c0.3-0.5,0.6-1,0.9-1.6c0.3-0.5,0.6-1.2,0.6-1.8c0-0.8-0.6-1.3-1.4-1.1c-0.6,0.1-1.1,0.3-1.6,0.5c-1.1,0.4-2.2,0.9-3.3,1.5
		c-2.4,1.3-4.5,3-6.3,5C89.5,77,90.5,78,91.2,77.3L91.2,77.3z"/>
	<path fill="#F05A81" d="M112.8,70.2c-1.8,1.3-3.5,2.7-4.9,4.4c-0.7,0.8-1.4,1.7-2.1,2.7c-0.3,0.4-0.6,0.9-0.9,1.3
		c-0.3,0.4-0.6,0.9-0.7,1.5c-0.1,0.6,0.1,1.2,0.7,1.5c0.5,0.3,1.1,0.3,1.7,0.2c1-0.3,1.9-1.1,2.7-1.7c1.7-1.4,3.2-3,4.5-4.7
		c1.5-2,2.8-4.1,3.8-6.4c0.2-0.4,0.1-0.8-0.3-1c-0.4-0.2-0.8-0.1-1,0.3c-1.3,2.2-2.4,4.6-3.2,7c-0.4,1.2-0.7,2.4-1,3.7
		c-0.1,0.6-0.2,1.2-0.3,1.9c-0.1,0.6-0.2,1.2-0.1,1.8c0.1,0.7,0.6,1.2,1.3,1.2c0.6,0,1.2-0.3,1.3-0.9c0.1-0.4-0.1-0.8-0.5-0.9
		c-0.4-0.1-0.8,0.1-0.9,0.5c0,0.2,0.1-0.1,0.2-0.2c0.1,0,0.1,0,0,0c0,0,0.1,0,0.1,0c0.1,0,0,0.1,0,0c0-0.1,0-0.1,0-0.3
		c0-0.6,0.1-1.2,0.2-1.8c0.2-1.3,0.5-2.7,0.9-4c0.8-2.6,1.9-5,3.3-7.4c-0.4-0.2-0.9-0.5-1.3-0.7c-1.6,3.6-3.9,6.9-6.7,9.6
		c-0.7,0.7-1.4,1.3-2.2,1.9c-0.3,0.2-0.7,0.5-1.1,0.7c-0.2,0.1-0.3,0.1-0.5,0.1c-0.1,0-0.2-0.1-0.2,0c0,0.1,0,0,0-0.1
		c0-0.1,0-0.1,0.1-0.2c0.1-0.2,0.2-0.4,0.4-0.7c0.3-0.4,0.5-0.8,0.8-1.3c0.5-0.8,1.1-1.5,1.7-2.3c1.4-1.7,3.1-3.2,4.9-4.4
		c0.3-0.2,0.5-0.7,0.3-1C113.7,70.1,113.2,70,112.8,70.2L112.8,70.2z"/>
	<path fill="#F05A81" d="M124.7,67.1c-3.2,3.2-5.7,7.1-7.4,11.3c-0.4,1-0.7,2.1,0.2,3c0.6,0.7,1.7,0.8,2.5,0.6
		c1-0.3,1.7-1.1,2.3-1.9c0.7-0.9,1.4-1.9,2-2.8c2.5-3.8,4.5-7.9,5.9-12.2c1.4-4.3,2.3-8.8,2.6-13.3c0.2-4.1,0.1-8.8-2.5-12.2
		c-1.2-1.6-2.8-2.9-4.8-3.5c-1.9-0.6-3.9-0.3-5.6,0.6c-1.7,0.9-3,2.4-3.9,4.1c-1.1,2.1-1.4,4.4-1.4,6.7c0.1,4.1,1.1,8.3,2.8,12
		c1.6,3.7,3.9,7,6.7,9.9c3,3,7,5.6,11.4,4.9c1-0.2,1.9-0.5,2.8-1c0.8-0.5,0.1-1.7-0.8-1.3c-3.4,1.9-7.5,0.4-10.3-1.8
		c-3-2.4-5.4-5.5-7.2-8.7c-1.8-3.2-3-6.8-3.6-10.4c-0.6-3.8-0.6-8.2,2-11.3c1-1.2,2.4-2.2,4-2.4c1.7-0.3,3.4,0.3,4.8,1.3
		c3.1,2.3,4,6.2,4.1,9.9c0.1,4.1-0.5,8.3-1.5,12.4c-1,4.1-2.5,8-4.5,11.7c-1,1.9-2.1,3.7-3.4,5.4c-0.5,0.8-1.1,1.6-1.8,2.2
		c-0.2,0.2-0.6,0.4-0.9,0.5c-0.2,0-0.3,0-0.4,0c-0.2,0-0.3-0.1-0.4-0.1c0,0-0.1-0.1-0.1-0.1c0,0,0,0,0-0.1c0-0.1-0.1-0.3,0-0.5
		c0.1-0.5,0.3-0.9,0.5-1.3c0.4-1,0.8-1.9,1.3-2.9c1-1.8,2.1-3.6,3.5-5.2c0.7-0.8,1.3-1.5,2.1-2.3C126.5,67.5,125.4,66.5,124.7,67.1
		L124.7,67.1z"/>
	<path fill="#F05A81" d="M139.9,69.6c-2,1.8-3.8,3.8-5.2,6.1c-0.7,1-1.4,2.1-1.8,3.3c-0.3,0.9-0.5,2.1,0.2,2.9
		c0.9,1.1,2.4,0.8,3.4,0.2c1-0.5,1.7-1.4,2.3-2.3c0.7-1,1.1-2,1.6-3.1c0.6-1.3,1.2-2.7,1.7-4.1c1.2-3.1,2.4-6.2,3.4-9.4
		c0.1-0.4-0.2-0.8-0.5-0.9c-0.4-0.1-0.8,0.2-0.9,0.5c-0.9,2.7-1.8,5.5-2.7,8.2c-0.5,1.4-0.9,2.8-1.4,4.2c-0.4,1.1-0.9,2.3-1,3.5
		c-0.1,1,0.1,2.1,1,2.7c1.1,0.7,2.5,0.2,3.5-0.5c2-1.4,3-3.8,4.1-5.9c1.5-2.9,3-5.8,4.5-8.6c0.4-0.8-0.8-1.6-1.3-0.7
		c-1.3,2.5-2.5,5.1-3.5,7.7c-0.5,1.2-1,2.4-1.3,3.7c-0.3,1.1-0.3,2.3,0.5,3.1c0.9,0.9,2.2,0.8,3.3,0.3c1.1-0.5,1.9-1.4,2.7-2.2
		c1.6-1.8,3-3.9,4.2-6c1.4-2.4,2.7-4.8,4.3-7c0.5-0.7-0.7-1.5-1.2-0.9c-1.9,2.4-3.4,5.1-4.6,8c-0.9,2.1-2.6,6,0.3,7.3
		c1.3,0.6,2.8,0.4,4.1-0.2c0.4-0.2,0.4-0.7,0.3-1c-0.2-0.4-0.7-0.4-1-0.3c-0.4,0.2-0.8,0.3-1.2,0.4c-0.5,0-0.9,0-1.3-0.1
		c-0.3-0.1-0.6-0.4-0.8-0.7c-0.2-0.4-0.2-0.9-0.1-1.4c0.2-1.2,0.7-2.4,1.2-3.5c0.5-1.2,1.1-2.5,1.8-3.6c0.7-1.3,1.6-2.5,2.5-3.7
		c-0.4-0.3-0.8-0.6-1.2-0.9c-2.7,3.6-4.4,7.9-7.2,11.4c-0.7,0.9-1.4,1.7-2.2,2.5c-0.4,0.3-0.8,0.6-1.2,0.8c-0.3,0.2-0.8,0.3-1.1,0.2
		c-0.3-0.1-0.5-0.3-0.6-0.6c-0.1-0.4-0.1-0.8,0-1.1c0.3-1.1,0.7-2.2,1.1-3.3c1-2.7,2.3-5.4,3.6-7.9c-0.4-0.2-0.9-0.5-1.3-0.7
		c-1.2,2.4-2.5,4.8-3.7,7.1c-0.6,1.1-1.2,2.3-1.8,3.4c-0.5,0.9-1,1.8-1.7,2.6c-0.3,0.4-0.7,0.7-1.1,1c-0.4,0.3-0.9,0.5-1.3,0.5
		c-0.1,0-0.2,0-0.2,0c0,0-0.2-0.1-0.1-0.1c0,0-0.2-0.2-0.1-0.1c0,0-0.1-0.2-0.1-0.2c-0.1-0.1-0.1-0.3-0.1-0.4c0-0.2,0-0.4,0-0.6
		c0.1-1,0.6-2.1,0.9-3.1c0.4-1.3,0.8-2.6,1.3-3.8c0.9-2.9,1.9-5.8,2.8-8.6c-0.5-0.1-1-0.2-1.4-0.4c-0.8,2.6-1.7,5.1-2.7,7.7
		c-0.9,2.4-1.9,4.8-3,7c-0.4,0.9-0.9,1.7-1.6,2.4c-0.3,0.3-0.7,0.6-1.1,0.8c-0.3,0.2-0.8,0.4-1.2,0.3c-0.1,0-0.1,0-0.2-0.1
		c-0.1,0,0,0,0,0c0,0-0.1-0.1-0.1-0.1c0.1,0.1-0.1-0.1-0.1-0.1c0,0.1,0-0.1,0-0.2c0,0.1,0-0.2,0-0.2c0-0.1,0-0.2,0-0.2
		c0-0.1,0.1-0.4,0.1-0.6c0-0.1,0.1-0.2,0.1-0.3c0-0.1,0,0,0.1-0.2c0.1-0.3,0.3-0.5,0.4-0.8c0.3-0.5,0.6-1.1,0.9-1.6
		c1.4-2.3,3.2-4.4,5.3-6.2c0.3-0.3,0.3-0.8,0-1C140.6,69.3,140.2,69.4,139.9,69.6L139.9,69.6z"/>
	<path fill="#F05A81" d="M156.2,60.7c0.4-1.8,2.5-2.3,4.1-2.3c1-0.1,2.1-0.1,3.1-0.3c0.9-0.2,1.8-0.4,2.7-0.7
		c3.8-1.4,6.9-4.1,9.5-7.1c1.6-1.9,3-3.9,4.5-5.8c0.2-0.3,0-0.8-0.3-1c-0.4-0.2-0.8,0-1,0.3c-2.4,3.4-4.9,6.9-8.3,9.5
		c-1.5,1.1-3.1,2.1-4.9,2.8c-0.9,0.3-1.8,0.6-2.7,0.7c-1,0.2-2,0.2-3,0.2c-1.2,0.1-2.3,0.3-3.3,0.9c-0.9,0.6-1.7,1.5-1.9,2.5
		c-0.1,0.4,0.1,0.8,0.5,0.9C155.6,61.3,156.1,61.1,156.2,60.7L156.2,60.7z"/>
	<path fill="#F05A81" d="M45.1,142.8c1.1-7.2,1.8-14.4,2.2-21.7c0.1-2,0.2-4,0.2-6.1c-1.2,0.2-2.4,0.4-3.6,0.6
		c2.5,6.5,4.7,13,6.7,19.6c0.6,1.9,1.1,3.8,1.6,5.7c0.2,0.7,0.9,1.2,1.6,1.3c0.7,0.1,1.5-0.3,1.8-0.9c2.9-6.2,5.4-12.6,7.7-19
		c0.6-1.8,1.2-3.6,1.8-5.4c-1.2-0.3-2.4-0.6-3.6-0.9c-1,6.8-0.6,13.6,0.1,20.4c0.2,1.9,0.4,3.8,0.7,5.7c0.1,0.5,0.2,0.9,0.6,1.3
		c0.3,0.3,0.9,0.6,1.3,0.5c0.9-0.1,1.9-0.9,1.8-1.9c-0.8-6.6-1.6-13.3-1.3-19.9c0-0.9,0.1-1.8,0.2-2.7c0-0.2,0-0.5,0.1-0.7
		c0-0.1,0-0.2,0-0.3c0-0.1,0-0.1,0-0.2c0,0.3,0,0.3,0,0.2c0.1-0.5,0.1-1,0.2-1.5c0.1-0.5,0.1-1-0.2-1.4c-0.2-0.4-0.7-0.8-1.1-0.8
		c-1-0.2-1.9,0.4-2.2,1.3c-1,3.2-2.1,6.3-3.3,9.4c-0.3,0.8-0.6,1.6-0.9,2.4c-0.1,0.4-0.3,0.7-0.4,1.1c-0.1,0.2-0.2,0.4-0.2,0.6
		c0,0.1-0.1,0.3,0-0.1c0,0.1-0.1,0.2-0.1,0.4c-0.6,1.5-1.3,3.1-1.9,4.6c-0.7,1.7-1.5,3.4-2.3,5.2c1.1,0.1,2.3,0.3,3.4,0.4
		c-1.9-6.7-4-13.3-6.3-19.8c-0.7-1.9-1.4-3.7-2.1-5.6c-0.3-0.9-1.1-1.4-2.1-1.3c-0.9,0.1-1.5,0.9-1.6,1.9c-0.1,3.5-0.3,7.1-0.5,10.6
		c-0.1,1.8-0.3,3.5-0.5,5.3c-0.1,0.9-0.2,1.8-0.3,2.6c0,0.1-0.1,0.4,0,0c0,0.1,0,0.2,0,0.3c0,0.2-0.1,0.4-0.1,0.7
		c-0.1,0.5-0.1,1-0.2,1.4c-0.2,2-0.5,3.9-0.8,5.9c-0.1,0.5-0.1,1,0.2,1.4c0.2,0.4,0.7,0.8,1.1,0.8C43.8,144.3,44.9,143.8,45.1,142.8
		L45.1,142.8z"/>
	<path fill="#F05A81" d="M72.6,118.3C72.6,118.2,72.6,118.2,72.6,118.3c0,0.2-0.1,0.3-0.2,0.4c0.2-0.3-0.3,0.3,0,0.1
		c-1.1-0.4-2.1-0.8-3.2-1.3c0,5.9,0.3,11.9,0.8,17.8c0.1,1.7,0.3,3.3,0.5,5c0.1,0.9,0.7,1.7,1.7,1.8c0.8,0.1,1.9-0.5,2-1.4
		c0-0.2,0.1-0.5,0.1-0.7c0.1-0.5,0.1-0.9-0.2-1.4c-0.2-0.4-0.7-0.8-1.1-0.8c-0.5-0.1-1-0.1-1.4,0.2c-0.4,0.3-0.8,0.7-0.8,1.1
		c0,0.2-0.1,0.5-0.1,0.7c1.2,0.1,2.4,0.3,3.7,0.4c-0.6-5.9-1-11.8-1.2-17.8c0-1.7-0.1-3.4-0.1-5c0-0.7-0.5-1.4-1.2-1.7
		c-0.7-0.3-1.4-0.1-2,0.4c-0.6,0.5-0.9,1.4-0.9,2.2c0.1,1,0.9,1.9,1.9,1.8C71.8,120.2,72.7,119.4,72.6,118.3L72.6,118.3z"/>
	<path fill="#F05A81" d="M73.1,119.3c-0.1,0.4-0.3,0.7-0.7,0.9c-0.3,0.2-0.4,0.2-0.2,0.2c-0.1,0-0.2,0-0.3,0.1c0.1,0,0.1,0,0.2,0
		c0.2,0,0.4,0,0.6,0.1c0.4,0,0.9,0.1,1.3,0.1c0.9,0,1.8,0,2.8,0c1.9-0.1,3.9-0.4,5.8-0.8c0.9-0.2,1.6-1.4,1.3-2.3
		c-0.3-1-1.3-1.5-2.3-1.3c-0.5,0.1-1,0.2-1.4,0.3c-0.1,0-0.3,0.1-0.4,0.1c0.3,0,0.3,0,0.1,0c0,0-0.1,0-0.1,0c-0.2,0-0.5,0.1-0.7,0.1
		c-1,0.1-2,0.2-3,0.2c-1,0-2,0-2.9-0.1c-0.5,0-1-0.1-1.5,0c-0.9,0.1-1.8,0.7-1.9,1.7c-0.2,0.9,0.3,2,1.3,2.2
		C71.8,120.8,72.9,120.3,73.1,119.3L73.1,119.3z"/>
	<path fill="#F05A81" d="M72.8,130.8c3-0.1,5.9-0.2,8.9-0.3c-0.2-1.2-0.4-2.4-0.6-3.6c-0.2,0.1-0.4,0.2-0.6,0.2
		c-0.5,0.2-0.8,0.4-1.1,0.9c-0.2,0.4-0.3,1-0.2,1.4c0.3,0.9,1.3,1.6,2.3,1.3c0.2-0.1,0.4-0.2,0.6-0.2c0.9-0.3,1.4-1.1,1.3-2.1
		c-0.1-0.9-0.9-1.6-1.9-1.6c-3,0.1-5.9,0.2-8.9,0.3c-1,0-1.9,0.9-1.8,1.9C71,130,71.8,130.8,72.8,130.8L72.8,130.8z"/>
	<path fill="#F05A81" d="M73.4,141.5c4.2-0.1,8.5,0.1,12.7,0.5c0.4,0,1-0.3,1.3-0.6c0.3-0.3,0.5-0.7,0.5-1.1c0.1-0.8-0.5-1.9-1.4-2
		c-0.3,0-0.7-0.1-1-0.1c-0.5-0.1-1-0.1-1.4,0.2c-0.4,0.2-0.8,0.7-0.8,1.1c-0.2,0.9,0.3,2.1,1.3,2.2c0.3,0,0.7,0.1,1,0.1
		c0.1-1.2,0.3-2.4,0.4-3.7c-4.2-0.4-8.5-0.5-12.7-0.5c-1,0-1.9,0.9-1.8,1.9C71.5,140.7,72.3,141.5,73.4,141.5L73.4,141.5z"/>
	<path fill="#F05A81" d="M87.5,141.4c1.6-1,2.4-2.5,3-4.2c0.5-1.5,0.9-3,1.1-4.5c0.5-3.2,0.6-6.5,0.5-9.7c-0.1-1.8-0.2-3.5-0.3-5.3
		c-0.8,0.6-1.5,1.2-2.3,1.8c4.1,1.3,8.6,1.3,12.7,0.2c-0.8-0.7-1.5-1.5-2.3-2.2c-0.8,6.7-1,13.5-0.7,20.2c0.1,1.9,0.2,3.8,0.4,5.6
		c0.1,1,0.8,1.9,1.9,1.8c1-0.1,1.8-0.9,1.8-1.9c0-0.2,0-0.4,0-0.7c0-1-0.9-1.9-1.9-1.8c-1,0.1-1.8,0.9-1.8,1.9c0,0.2,0,0.4,0,0.7
		c1.2,0,2.5-0.1,3.7-0.1c-0.6-6.5-0.8-13.1-0.3-19.7c0.1-0.9,0.1-1.8,0.2-2.8c0-0.5,0.1-0.9,0.1-1.4c0-0.2,0-0.4,0.1-0.6
		c0-0.4,0,0.3,0,0c0-0.1,0-0.3,0.1-0.4c0.1-0.7,0-1.3-0.5-1.8c-0.5-0.5-1.2-0.6-1.8-0.5c-0.5,0.1-1,0.2-1.5,0.3
		c-0.2,0-0.5,0.1-0.7,0.1c-0.1,0-0.1,0,0.2,0c-0.1,0-0.1,0-0.2,0c-0.1,0-0.2,0-0.4,0c-1,0.1-1.9,0.2-2.9,0.2c-0.5,0-1,0-1.4-0.1
		c-0.1,0-0.2,0-0.4,0c-0.4,0,0.4,0.1,0,0c-0.2,0-0.5-0.1-0.7-0.1c-1-0.2-2-0.4-2.9-0.7c-1.1-0.4-2.4,0.7-2.3,1.8c0.2,3,0.4,6,0.3,9
		c0,0.7,0,1.5-0.1,2.2c0,0.4-0.1,0.7-0.1,1.1c0,0.1,0,0.2,0,0.3c0,0.1,0,0.3,0-0.1c0,0.2-0.1,0.4-0.1,0.6c-0.2,1.5-0.5,2.9-0.9,4.3
		c-0.1,0.4-0.2,0.8-0.4,1.1c0,0.1-0.1,0.1-0.1,0.2c-0.1,0.4,0.2-0.4,0,0c-0.1,0.2-0.2,0.4-0.2,0.5c-0.1,0.2-0.2,0.3-0.3,0.5
		c0,0.1-0.1,0.1-0.1,0.2c0.2-0.4,0.1-0.1,0,0c-0.1,0.1-0.2,0.2-0.4,0.4c-0.2,0.2,0.4-0.3,0.1,0c-0.1,0.1-0.2,0.1-0.3,0.2
		c-0.8,0.5-1.2,1.7-0.6,2.5C85.5,141.6,86.6,141.9,87.5,141.4L87.5,141.4z"/>
	<path fill="#F05A81" d="M121.4,139.8c-0.3,0-0.6,0-0.8,0c-0.1,0-0.3,0-0.4,0c0.5,0,0.3,0,0.2,0c-0.1,0-0.2,0-0.3,0
		c-0.6-0.1-1.1-0.2-1.6-0.4c-0.3-0.1-0.5-0.2-0.8-0.3c-0.3-0.1,0.2,0.1,0.2,0.1c-0.1,0-0.1-0.1-0.2-0.1c-0.2-0.1-0.3-0.1-0.5-0.2
		c-0.5-0.2-1-0.5-1.5-0.9c-0.1-0.1-0.2-0.2-0.3-0.2c-0.1,0-0.1-0.1-0.2-0.1c-0.2-0.1,0.3,0.2,0.1,0.1c-0.2-0.2-0.5-0.4-0.7-0.6
		c-0.4-0.4-0.8-0.8-1.2-1.2c-0.1-0.1-0.2-0.2-0.3-0.3c-0.1-0.2,0.2,0.3,0.1,0.1c0-0.1-0.1-0.1-0.1-0.2c-0.2-0.2-0.3-0.5-0.5-0.7
		c-0.3-0.5-0.6-1-0.8-1.5c-0.2-0.4,0.1,0.4,0-0.1c-0.1-0.1-0.1-0.3-0.2-0.4c-0.1-0.3-0.2-0.6-0.3-0.9c-0.2-0.6-0.3-1.2-0.4-1.8
		c0-0.1,0-0.3,0,0.2c0-0.1,0-0.1,0-0.2c0-0.1,0-0.3,0-0.4c0-0.3-0.1-0.6-0.1-0.9c0-0.6,0-1.2,0-1.8c0-0.1,0-0.3,0-0.4
		c0,0-0.1,0.5,0,0.2c0-0.1,0-0.1,0-0.2c0-0.3,0.1-0.6,0.2-0.9c0.1-0.6,0.3-1.1,0.5-1.7c0-0.1,0.1-0.3,0.1-0.4c0-0.1,0-0.1,0.1-0.2
		c0,0-0.2,0.5-0.1,0.2c0.1-0.3,0.2-0.5,0.4-0.8c0.3-0.5,0.5-1,0.9-1.5c0.1-0.1,0.2-0.2,0.2-0.3c0.2-0.2-0.1,0.1-0.1,0.1
		c0-0.1,0.1-0.1,0.1-0.2c0.2-0.2,0.4-0.5,0.6-0.7c0.2-0.2,0.4-0.4,0.6-0.5c0.1-0.1,0.2-0.2,0.3-0.3c0.1,0,0.2-0.2,0,0
		c-0.3,0.2,0,0,0.1,0c0.5-0.3,1-0.6,1.5-0.9c0.1,0,0.1-0.1,0.2-0.1c0,0-0.4,0.2-0.1,0.1c0.1,0,0.3-0.1,0.4-0.1
		c0.3-0.1,0.6-0.2,0.8-0.2c0.1,0,0.3-0.1,0.4-0.1c0.4-0.1-0.4,0.1,0,0c0.3,0,0.6-0.1,0.9-0.1c0.3,0,0.5,0,0.8,0c0.1,0,0.3,0,0.4,0
		c0,0-0.5-0.1-0.2,0c0.1,0,0.2,0,0.3,0c0.6,0.1,1.1,0.2,1.7,0.4c0.1,0,0.3,0.1,0.4,0.1c0.3,0.1-0.2-0.1-0.2-0.1c0,0,0.1,0.1,0.2,0.1
		c0.3,0.1,0.5,0.2,0.8,0.4c0.2,0.1,0.5,0.3,0.7,0.4c0.1,0.1,0.2,0.2,0.3,0.2c0.1,0,0.3,0.2,0,0c-0.3-0.2,0,0,0.1,0
		c0.4,0.4,0.9,0.8,1.2,1.2c0.1,0.1,0.2,0.2,0.3,0.3c0,0,0.1,0.1,0.1,0.2c0,0-0.3-0.4-0.1-0.1c0.2,0.2,0.3,0.4,0.5,0.7
		c0.3,0.5,0.6,1,0.8,1.5c0,0.1,0.1,0.1,0.1,0.2c0,0-0.2-0.4-0.1-0.2c0,0.1,0.1,0.3,0.2,0.4c0.1,0.3,0.2,0.5,0.3,0.8
		c0.2,0.5,0.3,1.1,0.4,1.6c0,0.1,0,0.3,0-0.2c0,0.1,0,0.1,0,0.2c0,0.1,0,0.3,0,0.4c0,0.3,0.1,0.6,0.1,0.9c0,0.6,0,1.3-0.1,1.9
		c0,0.3,0-0.1,0-0.1c0,0.1,0,0.2,0,0.2c0,0.2,0,0.3-0.1,0.5c-0.1,0.4-0.1,0.7-0.2,1.1c-0.1,0.6-0.3,1.2-0.6,1.9
		c0,0.1-0.2,0.3-0.2,0.5c0-0.3,0.1-0.3,0-0.1c0,0.1-0.1,0.1-0.1,0.2c-0.1,0.3-0.3,0.7-0.5,1c-0.3,0.6-0.6,1.2-1,1.7
		c-0.2,0.3-0.3,0.5-0.5,0.8c-0.1,0.1-0.2,0.3-0.3,0.4c-0.2,0.3,0.1-0.1,0.1-0.1c-0.1,0.1-0.1,0.2-0.2,0.3c-0.4,0.5-0.8,1-1.3,1.4
		c-0.1,0-0.1,0.1-0.2,0.1c-0.2,0.2,0.3-0.2,0.1-0.1c-0.1,0.1-0.2,0.2-0.4,0.3c-0.3,0.2-0.5,0.3-0.8,0.5c-0.3,0.1,0.1-0.1,0.1-0.1
		c-0.1,0-0.1,0.1-0.2,0.1c-0.1,0-0.3,0.1-0.4,0.1c-0.1,0-0.3,0.1-0.4,0.1c-0.2,0-0.1-0.1,0.2,0c-0.1,0-0.2,0-0.3,0
		c-0.1,0-0.3,0-0.4,0c-0.1,0-0.1,0-0.2,0c-0.2,0,0.4,0.1,0.2,0c-0.1,0-0.3,0-0.4-0.1c-0.1,0-0.7-0.2-0.1,0c-0.5-0.2-0.9-0.3-1.4-0.2
		c-0.4,0.1-0.9,0.5-1.1,0.9c-0.2,0.4-0.3,1-0.2,1.4c0.1,0.4,0.4,0.9,0.9,1.1c0.9,0.3,1.7,0.6,2.6,0.5c0.8,0,1.6-0.2,2.3-0.4
		c1.5-0.6,2.8-1.5,3.8-2.7c2-2.3,3.5-5.2,4.3-8.2c1.4-5.3,0.1-11.6-4.2-15.2c-2.2-1.8-5-2.9-7.9-2.9c-2.8,0-5.5,1.2-7.5,3.2
		c-3.9,3.9-5.1,10.2-3.6,15.4c0.8,2.6,2.3,5.1,4.3,6.9c2.1,1.8,4.6,3.1,7.4,3.5c0.7,0.1,1.5,0.2,2.2,0.2c1,0,1.9-0.9,1.8-1.9
		C123.3,140.6,122.5,139.7,121.4,139.8L121.4,139.8z"/>
	<path fill="#F05A81" d="M135.8,142c1.6-4.2,3.1-8.4,4.7-12.6c0.8-2.1,1.6-4.2,2.4-6.3c0.4-1,0.8-2.1,1.2-3.1c0,0,0-0.1,0-0.1
		c0.1-0.2,0.1-0.2-0.1,0.2c0-0.1,0.1-0.2,0.1-0.3c-0.1,0.3-0.4,0.5-0.6,0.5c0.3-0.1-0.4,0-0.1,0c0.6,0,1.1-0.1,1.7-0.1
		c2.4-0.2,4.9-0.3,7.3-0.3c-0.6-0.8-1.2-1.5-1.8-2.3c-1.4,6.1-2.2,12.3-2.6,18.6c0,0.9-0.1,1.7-0.1,2.6c0,0.4,0,0.8,0,1.2
		c0,0.2,0,0.4,0,0.7c0,0.1,0,0.2,0,0.3c0,0,0,0.1,0,0.1c0-0.3,0.1-0.7,0.4-0.9c0.3-0.2,0.5-0.3,0.8-0.5c0,0,0,0-0.1,0
		c0.3,0,0.6,0,1,0c0.2,0.1,0.5,0.3,0.7,0.4c0.2,0.3,0.3,0.5,0.5,0.8c0,0,0,0,0-0.1c0,0.3,0,0.6,0,1c0,0,0,0,0-0.1
		c-0.2,0.3-0.3,0.6-0.5,0.8c0,0,0,0,0,0c0.7-0.7,0.7-2,0-2.6c-0.8-0.7-1.9-0.7-2.6,0c-0.8,0.8-0.7,2.1,0,2.8
		c0.8,0.8,2.1,0.7,2.9-0.1c0.6-0.6,0.6-1.3,0.6-2.1c0-0.4,0-0.9,0-1.3c0-1.7,0.1-3.5,0.3-5.2c0.1-0.8,0.1-1.7,0.2-2.5
		c0-0.4,0.1-0.8,0.1-1.2c0-0.1,0.1-0.9,0-0.3c0-0.2,0-0.4,0.1-0.6c0.2-1.7,0.5-3.5,0.7-5.2c0.3-1.9,0.7-3.9,1.1-5.8
		c0.3-1.2-0.6-2.3-1.8-2.3c-2.3,0-4.5,0.1-6.8,0.2c-0.6,0-1.1,0.1-1.7,0.1c-0.7,0.1-1.5,0.1-2.1,0.5c-0.8,0.5-1,1.2-1.3,2
		c-0.2,0.5-0.4,1-0.6,1.6c-1.6,4.4-3.3,8.7-4.9,13.1c-0.9,2.5-1.8,4.9-2.8,7.4c-0.2,0.4,0,1,0.2,1.4c0.2,0.4,0.7,0.8,1.1,0.8
		c0.5,0.1,1,0.1,1.4-0.2C135.3,142.9,135.6,142.5,135.8,142L135.8,142z"/>
	<path fill="#F05A81" d="M134.7,144.5c5.1-0.2,10.2-0.4,15.3-0.6c0.7,0,1.4-0.1,2.2-0.1c0.4,0,0.7,0,1.1,0c0.2,0,0.4,0,0.5,0
		c0.1,0,0.1,0,0.2,0c0.2,0,0.2,0,0,0c-0.2,0-0.2,0-0.1,0c-0.3-0.2-0.6-0.3-0.8-0.5c0,0,0,0,0.1,0.1c-0.2-0.3-0.3-0.5-0.5-0.8
		c0,0,0,0,0,0.1c0-0.3,0-0.6,0-1c0.1-0.2,0.3-0.5,0.4-0.7c0.3-0.2,0.5-0.3,0.8-0.5c0,0,0,0,0,0c0.5,0.1,1,0.1,1.4,0.2c0,0,0,0,0,0
		c-0.8-0.5-2.1-0.2-2.5,0.7c-0.5,0.9-0.2,2,0.7,2.5c0.7,0.4,1.8,0.3,2.4-0.3c0.7-0.7,0.8-1.8,0.1-2.6c-0.8-1-1.9-0.8-3-0.8
		c-1.5,0.1-2.9,0.1-4.4,0.2c-2.9,0.1-5.9,0.2-8.8,0.3c-1.7,0.1-3.3,0.1-5,0.2c-1,0-1.9,0.9-1.8,1.9
		C132.9,143.7,133.7,144.6,134.7,144.5L134.7,144.5z"/>
	<path fill="#F05A81" d="M156.6,117.3c-0.2,5.9-0.4,11.8-0.6,17.8c-0.1,1.7-0.1,3.3-0.2,5c0,0.8,0.6,1.6,1.4,1.8
		c0.8,0.2,1.7-0.2,2.1-0.9c0.8-1.5,1.8-2.9,2.7-4.4c0.5-0.7,1-1.4,1.5-2.1c0.2-0.3,0.5-0.7,0.7-1c0.1-0.2,0.3-0.3,0.4-0.5
		c0-0.1,0.1-0.1,0.1-0.2c0.1-0.1,0.4-0.5,0.1-0.1c2.1-2.8,4.3-5.6,6.1-8.6c1-1.6,1.9-3.3,2.7-5.1c-1.1-0.5-2.3-0.9-3.4-1.4
		c-1,6.4-1.7,12.8-2.1,19.2c-0.1,1.8-0.2,3.6-0.2,5.4c0,1,0.9,1.9,1.9,1.8c1-0.1,1.8-0.9,1.8-1.9c0-0.6,0-1.3,0.1-1.9
		c0-1-0.9-1.9-1.9-1.8c-1,0.1-1.8,0.9-1.8,1.9c0,0.6,0,1.3-0.1,1.9c1.2,0,2.5-0.1,3.7-0.1c0.1-3.1,0.2-6.3,0.5-9.4
		c0.1-1.6,0.3-3.1,0.4-4.7c0-0.4,0.1-0.7,0.1-1.1c0-0.3-0.1,0.5,0,0c0-0.1,0-0.2,0-0.3c0-0.2,0.1-0.4,0.1-0.7
		c0.1-0.8,0.2-1.5,0.3-2.3c0.2-1.8,0.5-3.5,0.8-5.3c0.1-0.9-0.2-1.8-1.1-2.2c-0.8-0.3-1.9-0.1-2.3,0.8c-1.4,3.1-3.2,6-5.2,8.8
		c-0.5,0.7-1,1.3-1.5,2c-0.1,0.2-0.3,0.3-0.4,0.5c-0.1,0.1-0.1,0.2-0.2,0.2c0.3-0.4,0.1-0.1,0,0c-0.3,0.3-0.5,0.7-0.8,1
		c-1.1,1.5-2.2,2.9-3.2,4.4c-1.1,1.6-2.2,3.2-3.1,4.9c1.2,0.3,2.3,0.6,3.5,0.9c0.2-5.9,0.4-11.8,0.6-17.8c0.1-1.7,0.1-3.3,0.2-5
		c0-1-0.9-1.9-1.9-1.8C157.3,115.5,156.6,116.3,156.6,117.3L156.6,117.3z"/>
	<path fill="#F05A81" d="M176.3,117.7c0.1,6,0.1,12-0.2,18c-0.1,1.7-0.1,3.4-0.2,5.1c1.2,0,2.5-0.1,3.7-0.1c0-0.3,0-0.7,0-1
		c0-1-0.9-1.9-1.9-1.8c-1.1,0.1-1.8,0.9-1.8,1.9c0,0.3,0,0.7,0,1c0,1,0.9,1.9,1.9,1.8c1.1-0.1,1.8-0.9,1.8-1.9c0.3-6,0.5-12,0.5-18
		c0-1.7,0-3.4-0.1-5.1c0-1-0.9-1.9-1.9-1.8C177.1,115.9,176.3,116.7,176.3,117.7L176.3,117.7z"/>
	<path fill="#F05A81" d="M180,132.3c1.1,0,2.1,0,3.2,0c1,0,1.9-0.9,1.8-1.9c-0.1-1-0.9-1.8-1.9-1.8c-1.1,0-2.1,0-3.2,0
		c-1,0-1.9,0.9-1.8,1.9C178.2,131.5,179,132.3,180,132.3L180,132.3z"/>
	<path fill="#F05A81" d="M195.9,138.9c-0.5,0-0.9,0.1-1.4,0.1c-0.2,0-0.4,0-0.7,0c-0.3,0,0.5,0.1,0,0c-0.1,0-0.2,0-0.4-0.1
		c-0.5-0.1-0.9-0.2-1.3-0.3c-0.2-0.1-0.4-0.1-0.6-0.2c-0.3-0.1,0.4,0.2,0,0c-0.1,0-0.2-0.1-0.3-0.1c-0.4-0.2-0.8-0.4-1.2-0.7
		c-0.1-0.1-0.2-0.1-0.3-0.2c0,0-0.1-0.1-0.1-0.1c-0.2-0.1,0.2,0.1,0.2,0.1c-0.2,0-0.4-0.3-0.5-0.5c-0.2-0.1-0.3-0.3-0.5-0.5
		c-0.1-0.1-0.2-0.2-0.2-0.3c-0.1-0.1-0.3-0.4-0.1-0.1c0.2,0.2,0-0.1-0.1-0.1c-0.1-0.1-0.1-0.2-0.2-0.3c-0.1-0.2-0.3-0.4-0.4-0.6
		c-0.1-0.1-0.1-0.2-0.2-0.3c0-0.1-0.2-0.4-0.1-0.1c0.1,0.3,0-0.1-0.1-0.2c0-0.1-0.1-0.2-0.1-0.4c-0.2-0.5-0.3-0.9-0.4-1.4
		c0-0.1,0-0.1,0-0.2c0,0,0.1,0.4,0,0.2c0-0.1,0-0.2,0-0.3c0-0.3,0-0.5-0.1-0.8c0-0.5,0-1,0-1.5c0-0.1,0-0.3,0-0.4c0-0.1,0-0.1,0-0.2
		c0,0-0.1,0.4,0,0.2c0-0.3,0.1-0.6,0.1-0.9c0.1-0.6,0.3-1.1,0.4-1.7c0.2-0.6,0.4-1.1,0.6-1.7c0.1-0.2-0.1,0.3,0,0.1
		c0-0.1,0-0.1,0.1-0.2c0-0.1,0.1-0.2,0.2-0.4c0.1-0.3,0.2-0.6,0.4-0.8c0.5-1,0.9-2,1.5-2.9c0.1-0.1,0.2-0.2,0.2-0.3
		c0.1-0.1,0.4-0.4,0,0c0.2-0.2,0.3-0.4,0.5-0.6c0.1-0.2,0.3-0.3,0.5-0.5c0.1-0.1,0.2-0.2,0.3-0.2c0.1-0.1-0.2,0.1-0.2,0.1
		c0.1,0,0.1-0.1,0.2-0.2c0.2-0.1,0.4-0.2,0.6-0.4c0.1,0,0.2-0.1,0.3-0.1c0.1,0,0.2-0.1,0,0c-0.3,0.1,0,0,0.1,0
		c0.2-0.1,0.4-0.1,0.6-0.2c0.1,0,0.4-0.1,0.1,0c-0.3,0.1,0.1,0,0.2,0c0.1,0,0.2,0,0.3,0c0.2,0,0.5,0.1,0,0c0.2,0.1,0.5,0.1,0.7,0.2
		c0.1,0,0.2,0.1,0.3,0.1c0,0-0.4-0.2-0.2-0.1c0.1,0,0.1,0.1,0.2,0.1c0.2,0.1,0.5,0.2,0.7,0.4c0,0,0.1,0.1,0.1,0.1
		c0,0-0.3-0.3-0.2-0.1c0.1,0.1,0.2,0.2,0.3,0.2c0.2,0.2,0.4,0.4,0.5,0.6c0,0,0.1,0.1,0.1,0.1c0.1,0.1-0.1-0.2-0.1-0.2
		c0.1,0.1,0.2,0.2,0.2,0.3c0.1,0.2,0.3,0.4,0.4,0.7c0.1,0.2,0.2,0.5,0.3,0.6c0,0-0.2-0.4-0.1-0.2c0,0.1,0,0.1,0.1,0.2
		c0.1,0.1,0.1,0.3,0.2,0.4c0.2,0.5,0.3,1,0.4,1.5c0.1,0.5,0.2,1,0.3,1.6c0,0.1,0,0.2,0.1,0.4c0,0.1,0,0.3,0-0.1c0,0.1,0,0.1,0,0.2
		c0,0.3,0.1,0.6,0.1,0.9c0.1,1.1,0.2,2.3,0.2,3.4c0,0.6,0,1.1-0.1,1.7c0,0.3,0,0.5-0.1,0.8c0,0.2,0-0.2,0-0.2c0,0.1,0,0.1,0,0.2
		c0,0.2,0,0.3-0.1,0.5c-0.1,0.6-0.2,1.1-0.4,1.7c-0.1,0.3-0.2,0.5-0.3,0.8c-0.1,0.2,0.1-0.2,0.1-0.2c0,0.1,0,0.1-0.1,0.2
		c-0.1,0.2-0.1,0.3-0.2,0.5c-0.1,0.2-0.2,0.5-0.4,0.7c-0.1,0.1-0.1,0.2-0.2,0.2c0,0.1-0.1,0.1-0.1,0.2c-0.2,0.2,0.1-0.1,0.1-0.1
		c0,0.1-0.3,0.4-0.4,0.5c-0.2,0.2-0.3,0.3-0.5,0.5c-0.1,0.1-0.4,0.3,0,0c-0.1,0.1-0.2,0.1-0.2,0.2c-0.2,0.1-0.4,0.3-0.6,0.4
		c-0.1,0-0.2,0.1-0.3,0.1c-0.1,0-0.1,0.1-0.2,0.1c0,0,0.4-0.2,0.2-0.1c-0.2,0.1-0.4,0.2-0.6,0.2c-0.1,0-0.2,0.1-0.3,0.1
		c-0.3,0.1,0.4,0,0.1,0c-0.2,0-0.5,0-0.7,0c-1,0-1.9,0.9-1.8,1.9c0.1,1,0.9,1.8,1.9,1.8c2.3,0,4.6-1.2,6-3c1.8-2.2,2.4-4.8,2.6-7.6
		c0.2-2.6,0-5.1-0.4-7.7c-0.4-2.4-1.2-4.8-2.9-6.7c-1.8-2-4.6-2.9-7.1-2.1c-2.5,0.8-4.2,2.8-5.4,5c-2.4,4.3-4.2,9.7-2.6,14.6
		c0.8,2.3,2.2,4.2,4.2,5.6c1.9,1.3,4.1,1.9,6.4,2c0.5,0,1,0,1.5-0.1c1-0.1,1.9-0.8,1.8-1.9C197.8,139.8,197,138.8,195.9,138.9
		L195.9,138.9z"/>
	<path fill="#F05A81" d="M28.5,99.6c0,0.1,0,0.1,0,0.2c0,1,0.9,1.9,1.9,1.8c1-0.1,1.8-0.9,1.8-1.9c0-0.1,0-0.1,0-0.2
		c0-1-0.9-1.9-1.9-1.8C29.2,97.7,28.5,98.5,28.5,99.6c0,0.1,0,0.1,0,0.2c0,1,0.9,1.9,1.9,1.8c1-0.1,1.8-0.9,1.8-1.9
		c0-0.1,0-0.1,0-0.2c0-1-0.9-1.9-1.9-1.8C29.2,97.7,28.5,98.5,28.5,99.6L28.5,99.6z"/>
	<path fill="#F05A81" d="M31.4,91c0-0.1,0-0.2,0-0.3c0-0.2-0.1-0.5-0.2-0.7c-0.1-0.2-0.2-0.4-0.4-0.6c-0.2-0.2-0.4-0.3-0.6-0.4
		c-0.2-0.1-0.5-0.2-0.7-0.1c-0.2,0-0.3,0-0.5,0.1c-0.3,0.1-0.6,0.3-0.8,0.5c-0.1,0.1-0.2,0.3-0.3,0.4c-0.2,0.3-0.2,0.6-0.2,1
		c0,0.1,0,0.2,0,0.3c0,0.2,0.1,0.5,0.2,0.7c0.1,0.2,0.2,0.4,0.4,0.6c0.2,0.2,0.4,0.3,0.6,0.4c0.2,0.1,0.5,0.2,0.7,0.1
		c0.2,0,0.3,0,0.5-0.1c0.3-0.1,0.6-0.3,0.8-0.5c0.1-0.1,0.2-0.3,0.3-0.4C31.3,91.6,31.4,91.3,31.4,91L31.4,91z"/>
	<path fill="#F05A81" d="M30.7,82.7c0.1-0.1,0.2-0.2,0.3-0.3c0.2-0.2,0.3-0.4,0.4-0.6c0.1-0.2,0.2-0.5,0.1-0.7
		c0-0.2-0.1-0.5-0.2-0.7c-0.1-0.2-0.2-0.4-0.4-0.6c-0.1-0.1-0.3-0.2-0.4-0.3c-0.3-0.2-0.6-0.2-1-0.2c-0.2,0-0.3,0-0.5,0.1
		c-0.3,0.1-0.6,0.3-0.8,0.5c-0.1,0.1-0.2,0.2-0.3,0.3c-0.2,0.2-0.3,0.4-0.4,0.6c-0.1,0.2-0.2,0.5-0.1,0.7c0,0.2,0.1,0.5,0.2,0.7
		c0.1,0.2,0.2,0.4,0.4,0.6c0.1,0.1,0.3,0.2,0.4,0.3c0.3,0.2,0.6,0.2,1,0.2c0.2,0,0.3,0,0.5-0.1C30.2,83.1,30.4,82.9,30.7,82.7
		L30.7,82.7z"/>
	<path fill="#F05A81" d="M31.9,72.1c0.1-0.2,0.2-0.4,0.3-0.6c0.2-0.4,0.3-1,0.2-1.4c-0.1-0.2-0.2-0.4-0.3-0.6
		c-0.1-0.2-0.3-0.4-0.5-0.5c-0.4-0.2-1-0.3-1.4-0.2c-0.4,0.2-0.9,0.4-1.1,0.9c-0.1,0.2-0.2,0.4-0.3,0.6c-0.2,0.4-0.3,1-0.2,1.4
		c0.1,0.2,0.2,0.4,0.3,0.6c0.1,0.2,0.3,0.4,0.5,0.5c0.4,0.2,1,0.3,1.4,0.2C31.3,72.9,31.7,72.6,31.9,72.1L31.9,72.1z"/>
	<path fill="#F05A81" d="M35.9,60.7c0-0.1,0-0.2,0-0.3c0-0.2-0.1-0.5-0.2-0.7c-0.1-0.2-0.2-0.4-0.4-0.6c-0.2-0.2-0.4-0.3-0.6-0.4
		c-0.2-0.1-0.5-0.2-0.7-0.1c-0.2,0-0.3,0-0.5,0.1c-0.3,0.1-0.6,0.3-0.8,0.5c-0.1,0.1-0.2,0.3-0.3,0.4c-0.2,0.3-0.2,0.6-0.2,1
		c0,0.1,0,0.2,0,0.3c0,0.2,0.1,0.5,0.2,0.7c0.1,0.2,0.2,0.4,0.4,0.6c0.2,0.2,0.4,0.3,0.6,0.4c0.2,0.1,0.5,0.2,0.7,0.1
		c0.2,0,0.3,0,0.5-0.1c0.3-0.1,0.6-0.3,0.8-0.5c0.1-0.1,0.2-0.3,0.3-0.4C35.8,61.4,35.9,61.1,35.9,60.7L35.9,60.7z"/>
	<path fill="#F05A81" d="M40.2,52.6c0-0.1,0-0.2,0-0.3c0-0.2-0.1-0.5-0.2-0.7c-0.1-0.2-0.2-0.4-0.4-0.6c-0.2-0.2-0.4-0.3-0.6-0.4
		c-0.2-0.1-0.5-0.2-0.7-0.1c-0.2,0-0.3,0-0.5,0.1c-0.3,0.1-0.6,0.3-0.8,0.5c-0.1,0.1-0.2,0.3-0.3,0.4c-0.2,0.3-0.2,0.6-0.2,1
		c0,0.1,0,0.2,0,0.3c0,0.2,0.1,0.5,0.2,0.7c0.1,0.2,0.2,0.4,0.4,0.6c0.2,0.2,0.4,0.3,0.6,0.4c0.2,0.1,0.5,0.2,0.7,0.1
		c0.2,0,0.3,0,0.5-0.1c0.3-0.1,0.6-0.3,0.8-0.5c0.1-0.1,0.2-0.3,0.3-0.4C40.2,53.2,40.2,52.9,40.2,52.6L40.2,52.6z"/>
	<path fill="#F05A81" d="M45.1,44.7c0-0.1,0-0.2,0-0.3c0-0.2-0.1-0.5-0.2-0.7c-0.1-0.2-0.2-0.4-0.4-0.6c-0.2-0.2-0.4-0.3-0.6-0.4
		c-0.2-0.1-0.5-0.2-0.7-0.1c-0.2,0-0.3,0-0.5,0.1c-0.3,0.1-0.6,0.3-0.8,0.5c-0.1,0.1-0.2,0.3-0.3,0.4c-0.2,0.3-0.2,0.6-0.2,1
		c0,0.1,0,0.2,0,0.3c0,0.2,0.1,0.5,0.2,0.7c0.1,0.2,0.2,0.4,0.4,0.6c0.2,0.2,0.4,0.3,0.6,0.4c0.2,0.1,0.5,0.2,0.7,0.1
		c0.2,0,0.3,0,0.5-0.1c0.3-0.1,0.6-0.3,0.8-0.5c0.1-0.1,0.2-0.3,0.3-0.4C45,45.3,45.1,45,45.1,44.7L45.1,44.7z"/>
	<path fill="#F05A81" d="M51.7,33.7c0-0.1,0-0.2,0-0.3c0-0.2-0.1-0.5-0.2-0.7c-0.1-0.2-0.2-0.4-0.4-0.6c-0.2-0.2-0.4-0.3-0.6-0.4
		c-0.2-0.1-0.5-0.2-0.7-0.1c-0.2,0-0.3,0-0.5,0.1c-0.3,0.1-0.6,0.3-0.8,0.5c-0.1,0.1-0.2,0.3-0.3,0.4c-0.2,0.3-0.2,0.6-0.2,1
		c0,0.1,0,0.2,0,0.3c0,0.2,0.1,0.5,0.2,0.7c0.1,0.2,0.2,0.4,0.4,0.6c0.2,0.2,0.4,0.3,0.6,0.4c0.2,0.1,0.5,0.2,0.7,0.1
		c0.2,0,0.3,0,0.5-0.1c0.3-0.1,0.6-0.3,0.8-0.5c0.1-0.1,0.2-0.3,0.3-0.4C51.7,34.4,51.7,34,51.7,33.7L51.7,33.7z"/>
	<path fill="#F05A81" d="M58.6,27.2c0.1-0.1,0.2-0.2,0.3-0.3c0.2-0.2,0.3-0.4,0.4-0.6c0.1-0.2,0.2-0.5,0.1-0.7
		c0-0.2-0.1-0.5-0.2-0.7c-0.1-0.2-0.2-0.4-0.4-0.6c-0.1-0.1-0.3-0.2-0.4-0.3c-0.3-0.2-0.6-0.2-1-0.2c-0.2,0-0.3,0-0.5,0.1
		c-0.3,0.1-0.6,0.3-0.8,0.5c-0.1,0.1-0.2,0.2-0.3,0.3c-0.2,0.2-0.3,0.4-0.4,0.6c-0.1,0.2-0.2,0.5-0.1,0.7c0,0.2,0.1,0.5,0.2,0.7
		c0.1,0.2,0.2,0.4,0.4,0.6c0.1,0.1,0.3,0.2,0.4,0.3c0.3,0.2,0.6,0.2,1,0.2c0.2,0,0.3,0,0.5-0.1C58.1,27.6,58.4,27.4,58.6,27.2
		L58.6,27.2z"/>
	<path fill="#F05A81" d="M66.9,21.4c0.2-0.2,0.4-0.4,0.6-0.6c0.3-0.3,0.5-0.9,0.5-1.3c0-0.4-0.2-1-0.6-1.3c-0.4-0.3-0.8-0.6-1.3-0.5
		c-0.5,0-0.9,0.2-1.3,0.6c-0.2,0.2-0.4,0.4-0.6,0.6c-0.3,0.3-0.5,0.9-0.5,1.3c0,0.4,0.2,1,0.6,1.3c0.4,0.3,0.8,0.6,1.3,0.5
		C66.1,21.9,66.6,21.7,66.9,21.4L66.9,21.4z"/>
	<path fill="#F05A81" d="M78,12.7c0-0.1,0-0.2,0-0.3c0-0.2-0.1-0.5-0.2-0.7c-0.1-0.2-0.2-0.4-0.4-0.6c-0.2-0.2-0.4-0.3-0.6-0.4
		c-0.2-0.1-0.5-0.2-0.7-0.1c-0.2,0-0.3,0-0.5,0.1c-0.3,0.1-0.6,0.3-0.8,0.5c-0.1,0.1-0.2,0.3-0.3,0.4c-0.2,0.3-0.2,0.6-0.2,1
		c0,0.1,0,0.2,0,0.3c0,0.2,0.1,0.5,0.2,0.7c0.1,0.2,0.2,0.4,0.4,0.6c0.2,0.2,0.4,0.3,0.6,0.4c0.2,0.1,0.5,0.2,0.7,0.1
		c0.2,0,0.3,0,0.5-0.1c0.3-0.1,0.6-0.3,0.8-0.5c0.1-0.1,0.2-0.3,0.3-0.4C77.9,13.4,78,13.1,78,12.7L78,12.7z"/>
	<path fill="#F05A81" d="M90.2,8.3c0-0.1,0-0.2,0-0.3c0-0.2-0.1-0.5-0.2-0.7c-0.1-0.2-0.2-0.4-0.4-0.6c-0.2-0.2-0.4-0.3-0.6-0.4
		c-0.2-0.1-0.5-0.2-0.7-0.1c-0.2,0-0.3,0-0.5,0.1c-0.3,0.1-0.6,0.3-0.8,0.5c-0.1,0.1-0.2,0.3-0.3,0.4c-0.2,0.3-0.2,0.6-0.2,1
		c0,0.1,0,0.2,0,0.3c0,0.2,0.1,0.5,0.2,0.7c0.1,0.2,0.2,0.4,0.4,0.6c0.2,0.2,0.4,0.3,0.6,0.4c0.2,0.1,0.5,0.2,0.7,0.1
		c0.2,0,0.3,0,0.5-0.1c0.3-0.1,0.6-0.3,0.8-0.5c0.1-0.1,0.2-0.3,0.3-0.4C90.1,9,90.2,8.6,90.2,8.3L90.2,8.3z"/>
	<path fill="#F05A81" d="M97.9,7.2C98,7.1,98,7,98.1,6.9c0.2-0.2,0.3-0.4,0.4-0.6c0.1-0.2,0.2-0.5,0.1-0.7c0-0.2-0.1-0.5-0.2-0.7
		c-0.1-0.2-0.2-0.4-0.4-0.6C98,4.2,97.9,4.1,97.7,4c-0.3-0.2-0.6-0.2-1-0.2c-0.2,0-0.3,0-0.5,0.1c-0.3,0.1-0.6,0.3-0.8,0.5
		c-0.1,0.1-0.2,0.2-0.3,0.3C95,4.8,94.9,5,94.8,5.2c-0.1,0.2-0.2,0.5-0.1,0.7c0,0.2,0.1,0.5,0.2,0.7c0.1,0.2,0.2,0.4,0.4,0.6
		c0.1,0.1,0.3,0.2,0.4,0.3c0.3,0.2,0.6,0.2,1,0.2c0.2,0,0.3,0,0.5-0.1C97.4,7.6,97.6,7.4,97.9,7.2L97.9,7.2z"/>
	<path fill="#F05A81" d="M108,2.7c0,0.1,0,0.2,0,0.3c0,0.2,0.1,0.5,0.2,0.7c0.1,0.2,0.2,0.4,0.4,0.6c0.2,0.2,0.4,0.3,0.6,0.4
		c0.2,0.1,0.5,0.2,0.7,0.1c0.2,0,0.3,0,0.5-0.1c0.3-0.1,0.6-0.3,0.8-0.5c0.1-0.1,0.2-0.3,0.3-0.4c0.2-0.3,0.2-0.6,0.2-1
		c0-0.1,0-0.2,0-0.3c0-0.2-0.1-0.5-0.2-0.7c-0.1-0.2-0.2-0.4-0.4-0.6c-0.2-0.2-0.4-0.3-0.6-0.4c-0.2-0.1-0.5-0.2-0.7-0.1
		c-0.2,0-0.3,0-0.5,0.1c-0.3,0.1-0.6,0.3-0.8,0.5c-0.1,0.1-0.2,0.3-0.3,0.4C108.1,2,108,2.3,108,2.7L108,2.7z"/>
	<path fill="#F05A81" d="M120.3,3.3c0.1-0.2,0.2-0.4,0.3-0.6c0.2-0.4,0.3-1,0.2-1.4c-0.1-0.2-0.2-0.4-0.3-0.6
		c-0.1-0.2-0.3-0.4-0.5-0.5c-0.4-0.2-1-0.3-1.4-0.2c-0.4,0.2-0.9,0.4-1.1,0.9c-0.1,0.2-0.2,0.4-0.3,0.6c-0.2,0.4-0.3,1-0.2,1.4
		c0.1,0.2,0.2,0.4,0.3,0.6c0.1,0.2,0.3,0.4,0.5,0.5c0.4,0.2,1,0.3,1.4,0.2C119.6,4,120.1,3.8,120.3,3.3L120.3,3.3z"/>
	<path fill="#F05A81" d="M128.4,4.5c0.1,0,0.4,0.1,0.5,0.1c0,0,0,0,0,0c0,0,0.5-0.1,0.5-0.1c0,0,0,0,0,0c0,0,0.4-0.2,0.4-0.2
		c0,0,0,0,0,0c0,0,0.4-0.3,0.4-0.3c0,0,0,0,0,0c0,0,0.3-0.4,0.3-0.4c0,0,0,0,0,0c0,0,0.2-0.4,0.2-0.5c0,0,0,0,0,0c0,0,0,0,0,0
		c0-0.1,0.1-0.4,0.1-0.5c0,0,0,0,0,0c0-0.1,0-0.2,0-0.3c0-0.1,0-0.2,0-0.3c0-0.1-0.1-0.3-0.1-0.2c0.1,0.2-0.1-0.2-0.1-0.2
		c0,0,0,0,0,0c0,0-0.3-0.4-0.3-0.4c0,0,0,0,0,0c0,0-0.4-0.3-0.4-0.3c0,0,0,0,0,0c0,0-0.4-0.2-0.5-0.2c0,0,0,0,0,0
		c0,0-0.5-0.1-0.5-0.1c0,0,0,0,0,0c-0.1,0-0.4,0.1-0.5,0.1c-0.2,0.1-0.4,0.2-0.6,0.3c-0.2,0.1-0.4,0.3-0.5,0.5
		C127.1,1.8,127,2,127,2.3c0,0.2,0,0.5,0,0.7c0.1,0.1,0.1,0.3,0.2,0.4c0.2,0.3,0.4,0.5,0.7,0.7c0.2,0.1,0.3,0.1,0.5,0.2
		c0.3,0.1,0.6,0.1,1,0c0,0,0,0,0,0c-0.2,0-0.3,0-0.5,0.1c0,0,0,0,0,0c-0.2,0-0.3,0-0.5-0.1c0,0,0,0,0,0c-0.2-0.1-0.3-0.1-0.5-0.2
		c0,0,0,0,0,0c-0.1-0.1-0.3-0.2-0.4-0.3c0,0,0,0,0,0c-0.1-0.1-0.2-0.2-0.3-0.4c0,0,0,0,0,0c-0.1-0.1-0.1-0.3-0.2-0.4c0,0,0,0,0,0
		c0-0.2,0-0.3-0.1-0.5c0,0,0,0,0,0.1c0-0.2,0-0.3,0.1-0.5c0,0,0,0,0,0c0.1-0.2,0.1-0.3,0.2-0.5c0,0,0,0,0,0c0.1-0.1,0.2-0.3,0.3-0.4
		c0,0,0,0,0,0c0.1-0.1,0.2-0.2,0.4-0.3c0,0,0,0,0,0c0.1-0.1,0.3-0.1,0.4-0.2c0,0,0,0,0,0c0.2,0,0.3,0,0.5-0.1c0,0,0,0,0,0
		c0.2,0,0.3,0,0.5,0.1c0,0,0,0,0,0c-0.2-0.1-0.5-0.1-0.7,0c-0.2,0-0.5,0.1-0.7,0.2c-0.2,0.1-0.4,0.3-0.5,0.5
		c-0.2,0.2-0.3,0.4-0.3,0.7c0,0.2,0,0.3-0.1,0.5c0,0.3,0.1,0.6,0.3,0.9c0.1,0.1,0.2,0.2,0.3,0.4C127.8,4.3,128.1,4.4,128.4,4.5
		L128.4,4.5z"/>
	<path fill="#F05A81" d="M141.7,3.4c0-0.1,0-0.2,0-0.3c0-0.2-0.1-0.5-0.2-0.7c-0.1-0.2-0.2-0.4-0.4-0.6c-0.2-0.2-0.4-0.3-0.6-0.4
		c-0.2-0.1-0.5-0.2-0.7-0.1c-0.2,0-0.3,0-0.5,0.1c-0.3,0.1-0.6,0.3-0.8,0.5c-0.1,0.1-0.2,0.3-0.3,0.4c-0.2,0.3-0.2,0.6-0.2,1
		c0,0.1,0,0.2,0,0.3c0,0.2,0.1,0.5,0.2,0.7c0.1,0.2,0.2,0.4,0.4,0.6c0.2,0.2,0.4,0.3,0.6,0.4c0.2,0.1,0.5,0.2,0.7,0.1
		c0.2,0,0.3,0,0.5-0.1c0.3-0.1,0.6-0.3,0.8-0.5c0.1-0.1,0.2-0.3,0.3-0.4C141.6,4.1,141.7,3.7,141.7,3.4L141.7,3.4z"/>
	<path fill="#F05A81" d="M152.2,6.6c0-0.1,0-0.2,0-0.3c0-0.2-0.1-0.5-0.2-0.7c-0.1-0.2-0.2-0.4-0.4-0.6c-0.2-0.2-0.4-0.3-0.6-0.4
		c-0.2-0.1-0.5-0.2-0.7-0.1c-0.2,0-0.3,0-0.5,0.1c-0.3,0.1-0.6,0.3-0.8,0.5c-0.1,0.1-0.2,0.3-0.3,0.4c-0.2,0.3-0.2,0.6-0.2,1
		c0,0.1,0,0.2,0,0.3c0,0.2,0.1,0.5,0.2,0.7c0.1,0.2,0.2,0.4,0.4,0.6c0.2,0.2,0.4,0.3,0.6,0.4c0.2,0.1,0.5,0.2,0.7,0.1
		c0.2,0,0.3,0,0.5-0.1c0.3-0.1,0.6-0.3,0.8-0.5c0.1-0.1,0.2-0.3,0.3-0.4C152.1,7.3,152.2,7,152.2,6.6L152.2,6.6z"/>
	<path fill="#F05A81" d="M159.6,9.4c-0.1,0-0.2,0-0.3,0c-0.2,0-0.5,0.1-0.7,0.2c-0.2,0.1-0.4,0.2-0.6,0.4c-0.2,0.2-0.3,0.4-0.4,0.6
		c-0.1,0.2-0.2,0.5-0.1,0.7c0,0.2,0,0.3,0.1,0.5c0.1,0.3,0.3,0.6,0.5,0.8c0.1,0.1,0.3,0.2,0.4,0.3c0.3,0.2,0.6,0.2,1,0.2
		c0.1,0,0.2,0,0.3,0c0.2,0,0.5-0.1,0.7-0.2c0.2-0.1,0.4-0.2,0.6-0.4c0.2-0.2,0.3-0.4,0.4-0.6c0.1-0.2,0.2-0.5,0.1-0.7
		c0-0.2,0-0.3-0.1-0.5c-0.1-0.3-0.3-0.6-0.5-0.8c-0.1-0.1-0.3-0.2-0.4-0.3C160.2,9.5,159.9,9.4,159.6,9.4L159.6,9.4z"/>
	<path fill="#F05A81" d="M167.3,17.3c0,0.1,0,0.2,0,0.3c0,0.2,0.1,0.5,0.2,0.7c0.1,0.2,0.2,0.4,0.4,0.6c0.2,0.2,0.4,0.3,0.6,0.4
		c0.2,0.1,0.5,0.2,0.7,0.1c0.2,0,0.3,0,0.5-0.1c0.3-0.1,0.6-0.3,0.8-0.5c0.1-0.1,0.2-0.3,0.3-0.4c0.2-0.3,0.2-0.6,0.2-1
		c0-0.1,0-0.2,0-0.3c0-0.2-0.1-0.5-0.2-0.7c-0.1-0.2-0.2-0.4-0.4-0.6c-0.2-0.2-0.4-0.3-0.6-0.4c-0.2-0.1-0.5-0.2-0.7-0.1
		c-0.2,0-0.3,0-0.5,0.1c-0.3,0.1-0.6,0.3-0.8,0.5c-0.1,0.1-0.2,0.3-0.3,0.4C167.4,16.7,167.3,17,167.3,17.3L167.3,17.3z"/>
	<path fill="#F05A81" d="M176.7,22c-0.1,0-0.2,0-0.3,0c-0.2,0-0.5,0.1-0.7,0.2c-0.2,0.1-0.4,0.2-0.6,0.4c-0.2,0.2-0.3,0.4-0.4,0.6
		c-0.1,0.2-0.2,0.5-0.1,0.7c0,0.2,0,0.3,0.1,0.5c0.1,0.3,0.3,0.6,0.5,0.8c0.1,0.1,0.3,0.2,0.4,0.3c0.3,0.2,0.6,0.2,1,0.2
		c0.1,0,0.2,0,0.3,0c0.2,0,0.5-0.1,0.7-0.2c0.2-0.1,0.4-0.2,0.6-0.4c0.2-0.2,0.3-0.4,0.4-0.6c0.1-0.2,0.2-0.5,0.1-0.7
		c0-0.2,0-0.3-0.1-0.5c-0.1-0.3-0.3-0.6-0.5-0.8c-0.1-0.1-0.3-0.2-0.4-0.3C177.4,22.1,177.1,22,176.7,22L176.7,22z"/>
	<path fill="#F05A81" d="M181.6,30.6c0.1,0.1,0.2,0.2,0.3,0.3c0.2,0.2,0.4,0.3,0.6,0.4c0.2,0.1,0.5,0.2,0.7,0.1
		c0.2,0,0.5-0.1,0.7-0.2c0.2-0.1,0.4-0.2,0.6-0.4c0.1-0.1,0.2-0.3,0.3-0.4c0.2-0.3,0.2-0.6,0.2-1c0-0.2,0-0.3-0.1-0.5
		c-0.1-0.3-0.3-0.6-0.5-0.8c-0.1-0.1-0.2-0.2-0.3-0.3c-0.2-0.2-0.4-0.3-0.6-0.4c-0.2-0.1-0.5-0.2-0.7-0.1c-0.2,0-0.5,0.1-0.7,0.2
		c-0.2,0.1-0.4,0.2-0.6,0.4c-0.1,0.1-0.2,0.3-0.3,0.4c-0.2,0.3-0.2,0.6-0.2,1c0,0.2,0,0.3,0.1,0.5C181.2,30.2,181.4,30.4,181.6,30.6
		L181.6,30.6z"/>
	<path fill="#F05A81" d="M187.2,37.1c0,0.1,0,0.2,0,0.3c0,0.2,0.1,0.5,0.2,0.7c0.1,0.2,0.2,0.4,0.4,0.6c0.2,0.2,0.4,0.3,0.6,0.4
		c0.2,0.1,0.5,0.2,0.7,0.1c0.2,0,0.3,0,0.5-0.1c0.3-0.1,0.6-0.3,0.8-0.5c0.1-0.1,0.2-0.3,0.3-0.4c0.2-0.3,0.2-0.6,0.2-1
		c0-0.1,0-0.2,0-0.3c0-0.2-0.1-0.5-0.2-0.7c-0.1-0.2-0.2-0.4-0.4-0.6c-0.2-0.2-0.4-0.3-0.6-0.4c-0.2-0.1-0.5-0.2-0.7-0.1
		c-0.2,0-0.3,0-0.5,0.1c-0.3,0.1-0.6,0.3-0.8,0.5c-0.1,0.1-0.2,0.3-0.3,0.4C187.3,36.4,187.2,36.7,187.2,37.1L187.2,37.1z"/>
	<path fill="#F05A81" d="M200.3,56.5c0.1,0,0.1,0,0.2,0c1,0,1.9-0.9,1.8-1.9c-0.1-1-0.9-1.8-1.9-1.8c-0.1,0-0.1,0-0.2,0
		c-1,0-1.9,0.9-1.8,1.9C198.5,55.7,199.2,56.5,200.3,56.5c0.1,0,0.1,0,0.2,0c1,0,1.9-0.9,1.8-1.9c-0.1-1-0.9-1.8-1.9-1.8
		c-0.1,0-0.1,0-0.2,0c-1,0-1.9,0.9-1.8,1.9C198.5,55.7,199.2,56.5,200.3,56.5L200.3,56.5z"/>
	<path fill="#F05A81" d="M194.8,47.6c0.1,0,0.1,0,0.2,0c1,0,1.9-0.9,1.8-1.9c-0.1-1-0.9-1.8-1.9-1.8c-0.1,0-0.1,0-0.2,0
		c-1,0-1.9,0.9-1.8,1.9C193,46.8,193.8,47.6,194.8,47.6c0.1,0,0.1,0,0.2,0c1,0,1.9-0.9,1.8-1.9c-0.1-1-0.9-1.8-1.9-1.8
		c-0.1,0-0.1,0-0.2,0c-1,0-1.9,0.9-1.8,1.9C193,46.8,193.8,47.6,194.8,47.6L194.8,47.6z"/>
	<path fill="#F05A81" d="M205.2,76.4c0.1,0,0.2,0,0.3,0c0.2,0,0.5-0.1,0.7-0.2c0.2-0.1,0.4-0.2,0.6-0.4c0.2-0.2,0.3-0.4,0.4-0.6
		c0.1-0.2,0.2-0.5,0.1-0.7c0-0.2,0-0.3-0.1-0.5c-0.1-0.3-0.3-0.6-0.5-0.8c-0.1-0.1-0.3-0.2-0.4-0.3c-0.3-0.2-0.6-0.2-1-0.2
		c-0.1,0-0.2,0-0.3,0c-0.2,0-0.5,0.1-0.7,0.2c-0.2,0.1-0.4,0.2-0.6,0.4c-0.2,0.2-0.3,0.4-0.4,0.6c-0.1,0.2-0.2,0.5-0.1,0.7
		c0,0.2,0,0.3,0.1,0.5c0.1,0.3,0.3,0.6,0.5,0.8c0.1,0.1,0.3,0.2,0.4,0.3C204.5,76.3,204.9,76.4,205.2,76.4L205.2,76.4z"/>
	<path fill="#F05A81" d="M203.2,65.8c0.1,0,0.2,0,0.3,0c0.2,0,0.5-0.1,0.7-0.2c0.2-0.1,0.4-0.2,0.6-0.4c0.2-0.2,0.3-0.4,0.4-0.6
		c0.1-0.2,0.2-0.5,0.1-0.7c0-0.2,0-0.3-0.1-0.5c-0.1-0.3-0.3-0.6-0.5-0.8c-0.1-0.1-0.3-0.2-0.4-0.3c-0.3-0.2-0.6-0.2-1-0.2
		c-0.1,0-0.2,0-0.3,0c-0.2,0-0.5,0.1-0.7,0.2c-0.2,0.1-0.4,0.2-0.6,0.4c-0.2,0.2-0.3,0.4-0.4,0.6c-0.1,0.2-0.2,0.5-0.1,0.7
		c0,0.2,0,0.3,0.1,0.5c0.1,0.3,0.3,0.6,0.5,0.8c0.1,0.1,0.3,0.2,0.4,0.3C202.5,65.7,202.8,65.8,203.2,65.8L203.2,65.8z"/>
	<path fill="#F05A81" d="M205.7,91.6c0,0.1,0,0.1,0,0.2c0,1,0.9,1.9,1.9,1.8c1-0.1,1.8-0.9,1.8-1.9c0-0.1,0-0.1,0-0.2
		c0-1-0.9-1.9-1.9-1.8C206.5,89.7,205.7,90.5,205.7,91.6c0,0.1,0,0.1,0,0.2c0,1,0.9,1.9,1.9,1.8c1-0.1,1.8-0.9,1.8-1.9
		c0-0.1,0-0.1,0-0.2c0-1-0.9-1.9-1.9-1.8C206.5,89.7,205.7,90.5,205.7,91.6L205.7,91.6z"/>
	<path fill="#F05A81" d="M204.6,83.8c0,0.1,0,0.1,0,0.2c0,1,0.9,1.9,1.9,1.8c1-0.1,1.8-0.9,1.8-1.9c0-0.1,0-0.1,0-0.2
		c0-1-0.9-1.9-1.9-1.8C205.4,81.9,204.6,82.7,204.6,83.8c0,0.1,0,0.1,0,0.2c0,1,0.9,1.9,1.9,1.8c1-0.1,1.8-0.9,1.8-1.9
		c0-0.1,0-0.1,0-0.2c0-1-0.9-1.9-1.9-1.8C205.4,81.9,204.6,82.7,204.6,83.8L204.6,83.8z"/>
	<path fill="#F05A81" d="M206.4,101.8c0,0.1,0,0.1,0,0.2c0,1,0.9,1.9,1.9,1.8c1-0.1,1.8-0.9,1.8-1.9c0-0.1,0-0.1,0-0.2
		c0-1-0.9-1.9-1.9-1.8C207.2,99.9,206.5,100.7,206.4,101.8c0,0.1,0,0.1,0,0.2c0,1,0.9,1.9,1.9,1.8c1-0.1,1.8-0.9,1.8-1.9
		c0-0.1,0-0.1,0-0.2c0-1-0.9-1.9-1.9-1.8C207.2,99.9,206.5,100.7,206.4,101.8L206.4,101.8z"/>
	<path fill="#F05A81" d="M211.3,120.9c5.6,0,11.1-0.1,16.7-0.1c1,0,1.9-0.9,1.8-1.9c-0.1-1-0.9-1.8-1.9-1.8
		c-5.6,0-11.1,0.1-16.7,0.1c-1,0-1.9,0.9-1.8,1.9C209.5,120.1,210.3,120.9,211.3,120.9L211.3,120.9z"/>
	<path fill="#F05A81" d="M208.7,129.6c4.8,0,9.5,0.1,14.3,0.1c1.4,0,2.7,0,4.1,0c1,0,1.9-0.9,1.8-1.9c-0.1-1-0.9-1.8-1.9-1.8
		c-4.8,0-9.5-0.1-14.3-0.1c-1.4,0-2.7,0-4.1,0c-1,0-1.9,0.9-1.8,1.9C206.8,128.8,207.6,129.5,208.7,129.6L208.7,129.6z"/>
	<path fill="#F05A81" d="M208.7,134.5c-0.3-0.1-0.6-0.2-0.8-0.3c-0.1,1.2-0.3,2.4-0.4,3.7c5.8-0.1,11.7-0.3,17.5-0.4
		c0.8,0,1.6,0,2.4,0c0.2,0,0.4,0.1,0.6,0c0,0-0.4-0.1-0.1,0c0.1,0,0.2,0,0.3,0c0.4,0.1,0.8,0.2,1.2,0.3c0.4,0.2,1,0,1.4-0.2
		c0.4-0.2,0.8-0.7,0.8-1.1c0.1-0.5,0.1-1-0.2-1.4c-0.3-0.4-0.7-0.7-1.1-0.8c-1.4-0.5-3-0.5-4.6-0.5c-1.5,0-2.9,0.1-4.4,0.1
		c-3,0.1-5.9,0.1-8.9,0.2c-1.7,0-3.3,0.1-5,0.1c-0.9,0-1.7,0.7-1.8,1.7c-0.1,0.9,0.5,1.7,1.4,2c0.3,0.1,0.6,0.2,0.8,0.3
		c0.9,0.3,2.1-0.4,2.2-1.3C210.3,135.7,209.7,134.8,208.7,134.5L208.7,134.5z"/>
	<path fill="#F05A81" d="M1.9,117.5c5.6,0,11.1-0.1,16.7-0.5c1-0.1,1.9-0.9,1.8-1.9c-0.1-1-0.9-1.9-1.9-1.8
		c-5.6,0.3-11.1,0.5-16.7,0.5c-1,0-1.9,0.9-1.8,1.9C0.1,116.7,0.9,117.5,1.9,117.5L1.9,117.5z"/>
	<path fill="#F05A81" d="M2.4,127c5.1-0.2,10.3-0.4,15.5-0.3c1.5,0,2.9,0,4.4,0c1,0,1.9-0.9,1.8-1.9c-0.1-1-0.9-1.8-1.9-1.8
		c-5.2-0.1-10.3-0.1-15.5,0.1c-1.5,0-2.9,0.1-4.4,0.2c-1,0-1.9,0.9-1.8,1.9C0.5,126.1,1.3,127,2.4,127L2.4,127z"/>
	<path fill="#F05A81" d="M4.3,135.4c5.8-0.1,11.6-0.4,17.4-0.9c1.7-0.1,3.3-0.3,5-0.5c0.5-0.1,0.9-0.2,1.3-0.6
		c0.3-0.3,0.6-0.9,0.5-1.3c-0.1-0.9-0.9-1.9-1.9-1.8c-5.8,0.6-11.6,1-17.4,1.3c-1.7,0.1-3.3,0.1-5,0.1c-1,0-1.9,0.9-1.8,1.9
		C2.5,134.6,3.2,135.4,4.3,135.4L4.3,135.4z"/>
	<path fill="#F05A81" d="M27.3,155.6c7.5-0.7,15.1-1,22.6-1.1c7.5,0,15,0.2,22.5,0.8c2.1,0.2,4.2,0.3,6.3,0.6
		c0.6,0.1,1.1,0.1,1.7,0.2c0.3,0,0.5,0.1,0.8,0.1c0.1,0,0.2,0,0.3,0c0.1,0,0.7,0.1,0.1,0c1.1,0.1,2.1,0.2,3.2,0.4
		c0.5,0.1,0.9,0.1,1.4-0.2c0.4-0.2,0.8-0.7,0.8-1.1c0.1-0.5,0.1-1-0.2-1.4c-0.3-0.4-0.7-0.8-1.1-0.8c-7.7-1-15.4-1.6-23.1-1.9
		c-7.5-0.3-15.1-0.3-22.7,0c-4.2,0.2-8.5,0.5-12.7,0.8c-1,0.1-1.9,0.9-1.8,1.9C25.5,154.7,26.3,155.7,27.3,155.6L27.3,155.6z"/>
	<path fill="#F05A81" d="M146.9,158.7c1.8-0.3,3.7-0.6,5.5-0.9c0.2,0,0.4-0.1,0.6-0.1c0.1,0,0.3,0,0.4-0.1c0,0,0.4-0.1,0.1,0
		c-0.3,0,0.1,0,0.1,0c0.1,0,0.3,0,0.4-0.1c0.3,0,0.5-0.1,0.8-0.1c0.9-0.1,1.8-0.3,2.8-0.4c3.6-0.5,7.3-0.9,10.9-1.3
		c7.4-0.7,14.7-1.1,22.1-1.1c4.1,0,8.3,0,12.4,0.2c1,0,1.9-0.9,1.8-1.9c-0.1-1.1-0.9-1.8-1.9-1.8c-7.4-0.3-14.9-0.3-22.3,0.1
		c-7.4,0.3-14.8,1-22.1,2c-4.3,0.6-8.5,1.2-12.7,2c-0.4,0.1-0.9,0.5-1.1,0.9c-0.2,0.4-0.3,1-0.2,1.4
		C144.9,158.4,145.9,158.9,146.9,158.7L146.9,158.7z"/>
	<path fill="#F05A81" d="M58.4,164c4.3-0.1,8.7,0,13,0.2c2.2,0.1,4.4,0.3,6.6,0.5c0.3,0,0.5,0.1,0.8,0.1c0.1,0,0.3,0,0.4,0
		c0.1,0,0.1,0,0.2,0c0.2,0,0,0-0.1,0c0.5,0.1,1.1,0.1,1.6,0.2c1.1,0.1,2.2,0.3,3.2,0.4c2.4,0.4,4.8,0.8,7.3,1.2c1,0.2,2-0.3,2.2-1.3
		c0.2-0.9-0.3-2.1-1.3-2.2c-4.4-0.9-8.9-1.5-13.4-2c-4.4-0.5-8.7-0.8-13.1-0.9c-2.5-0.1-4.9-0.1-7.4,0c-1,0-1.9,0.9-1.8,1.9
		C56.5,163.2,57.3,164,58.4,164L58.4,164z"/>
	<path fill="#F05A81" d="M145.7,167.8c0.3,0,0.5-0.1,0.8-0.1c0.1,0,0.6-0.1,0.1,0c0.1,0,0.3,0,0.4-0.1c0.6-0.1,1.1-0.2,1.7-0.2
		c1.1-0.2,2.3-0.3,3.4-0.5c2.3-0.3,4.6-0.5,6.9-0.7c4.6-0.4,9.2-0.6,13.8-0.6c2.6,0,5.2,0,7.8,0.1c1,0,1.9-0.9,1.8-1.9
		c-0.1-1.1-0.9-1.8-1.9-1.8c-4.6-0.2-9.3-0.2-13.9,0c-4.6,0.2-9.3,0.5-13.9,1.1c-2.7,0.3-5.4,0.7-8.1,1.1c-0.4,0.1-0.9,0.5-1.1,0.9
		c-0.2,0.4-0.3,1-0.2,1.4c0.2,0.4,0.4,0.9,0.9,1.1C144.7,167.8,145.2,167.8,145.7,167.8L145.7,167.8z"/>
	<path fill="#F05A81" d="M98.3,153.7c-0.4-1.2-0.8-2.4-1-3.6c-1.2,0.3-2.4,0.7-3.6,1c1.1,5.6,2.6,11,4.5,16.4c0.6,1.5,1.1,3,1.8,4.5
		c0.2,0.5,0.4,0.8,0.9,1.1c0.4,0.2,1,0.3,1.4,0.2c0.9-0.3,1.7-1.3,1.3-2.3c-2.2-5.2-3.9-10.6-5.3-16.2c-0.4-1.6-0.7-3.1-1-4.7
		c-0.2-1-1.4-1.6-2.3-1.3c-1,0.3-1.5,1.3-1.3,2.3c0.2,1.2,0.6,2.4,1,3.6c0.3,0.9,1.3,1.6,2.3,1.3C97.9,155.7,98.7,154.7,98.3,153.7
		L98.3,153.7z"/>
	<path fill="#F05A81" d="M102.7,152.5c1.9,7.1,3.9,14.1,6.1,21.1c0.6,2,1.2,3.9,1.9,5.9c0.3,0.9,1.3,1.6,2.3,1.3
		c0.9-0.3,1.6-1.3,1.3-2.3c-2.3-6.9-4.4-13.9-6.4-21c-0.6-2-1.1-4-1.6-6c-0.3-0.9-1.4-1.6-2.3-1.3
		C103,150.6,102.4,151.5,102.7,152.5L102.7,152.5z"/>
	<path fill="#F05A81" d="M127.5,179.3c0.9-6.3,1.8-12.5,2.7-18.8c0.3-1.8,0.5-3.5,0.8-5.3c0.1-0.5,0.1-1-0.2-1.4
		c-0.2-0.4-0.7-0.8-1.1-0.8c-0.9-0.2-2.1,0.3-2.2,1.3c-0.9,6.3-1.8,12.5-2.7,18.8c-0.3,1.8-0.5,3.5-0.8,5.3c-0.1,0.5-0.1,1,0.2,1.4
		c0.2,0.4,0.7,0.8,1.1,0.8C126.1,180.8,127.3,180.3,127.5,179.3L127.5,179.3z"/>
	<path fill="#F05A81" d="M135.9,172.8c1.2-4.3,2.2-8.7,3-13.1c0.2-1.3,0.4-2.5,0.6-3.8c0.1-0.5,0.1-1-0.2-1.4
		c-0.2-0.4-0.7-0.8-1.1-0.8c-0.9-0.2-2.1,0.3-2.2,1.3c-0.6,4.4-1.5,8.9-2.5,13.2c-0.3,1.3-0.6,2.5-1,3.7c-0.3,0.9,0.4,2.1,1.3,2.2
		C134.6,174.4,135.6,173.8,135.9,172.8L135.9,172.8z"/>
</g>
</svg>
