<?xml version="1.0" encoding="utf-8"?>
<!-- Generator: Adobe Illustrator 18.1.1, SVG Export Plug-In . SVG Version: 6.00 Build 0)  -->
<svg version="1.1" id="Layer_1" xmlns="http://www.w3.org/2000/svg" xmlns:xlink="http://www.w3.org/1999/xlink" x="0px" y="0px"
	 viewBox="0 0 168.9 118.7" enable-background="new 0 0 168.9 118.7" xml:space="preserve">
<g>
	<path fill="#F9920D" d="M7.5,27.6c-0.1-0.2-0.2-0.4-0.3-0.6c-0.1-0.2-0.3-0.3-0.4-0.5c-0.2-0.1-0.4-0.2-0.6-0.3
		c-0.2-0.1-0.4-0.1-0.6,0c-0.2,0-0.4,0.1-0.6,0.2c-0.4,0.2-0.7,0.6-0.7,1c0,0.1,0,0.3,0,0.4c0,0.3,0.1,0.6,0.2,0.8
		c0.1,0.2,0.2,0.4,0.3,0.6c0.1,0.2,0.3,0.3,0.4,0.5c0.2,0.1,0.4,0.2,0.6,0.3c0.2,0.1,0.4,0.1,0.6,0c0.2,0,0.4-0.1,0.6-0.2
		c0.4-0.2,0.7-0.6,0.7-1c0-0.1,0-0.3,0-0.4C7.7,28.2,7.6,27.9,7.5,27.6L7.5,27.6z"/>
	<path fill="#F9920D" d="M4.3,28.1c1.5,0.4,2.9-0.3,4-1.2c1.1-0.8,2.1-1.7,3.2-2.5c2.2-1.8,4.3-3.6,6.4-5.4c2-1.8,4.1-3.6,6.1-5.3
		c1-0.9,2-1.8,3.1-2.6c0.5-0.4,1-0.9,1.5-1.3c0.3-0.2,0.5-0.4,0.8-0.6c0.1-0.1,0.2-0.2,0.3-0.3c0.2-0.2,0,0,0,0
		c0.1-0.1,0.2-0.2,0.3-0.2c2.4-1.9,4.8-3.8,7.3-5.5c-0.8-0.4-1.7-0.9-2.5-1.3c0.2,4.7,0.3,9.3,0.5,14c0,1.3,0.1,2.7,0.1,4
		c0,0.9,0.8,1.7,1.7,1.6c0.9-0.1,1.6-0.8,1.6-1.7c-0.2-4.7-0.3-9.3-0.5-14c0-1.3-0.1-2.7-0.1-4c0-1.2-1.5-2-2.5-1.3
		c-4.4,3.1-8.6,6.5-12.7,10c-4,3.5-8,7-12,10.4c-0.3,0.2-0.6,0.5-0.9,0.7c-0.1,0.1-0.1,0.1-0.2,0.2c0,0-0.3,0.3-0.1,0.1
		c0.2-0.1,0,0-0.1,0.1c-0.1,0.1-0.2,0.1-0.2,0.2c-0.6,0.5-1.2,0.9-1.8,1.4c-0.5,0.4-1.1,0.9-1.6,1.2c-0.1,0.1-0.3,0.2-0.4,0.2
		c-0.3,0.2,0.1-0.1,0.1,0c0,0-0.2,0.1-0.2,0.1c-0.1,0-0.1,0-0.2,0.1c-0.2,0.1,0.4,0,0.1,0c0,0-0.2,0-0.2,0c0.1,0,0.2,0,0.2,0
		c-0.1,0-0.1,0-0.2,0c-0.8-0.2-1.8,0.4-2,1.2C2.9,27,3.4,27.9,4.3,28.1L4.3,28.1z"/>
	<path fill="#F9920D" d="M4.3,26.8C3.9,33.9,3.5,41,3.1,48c-0.4,7.1-0.8,14.1-1.3,21.2c-0.2,4-0.5,8-0.7,12c0,0.4,0.2,0.9,0.5,1.1
		c0.3,0.3,0.7,0.4,1.2,0.4c8,0,16,0.1,24,0.1c2.3,0,4.5,0,6.8,0c0.6,0,1.5-0.6,1.5-1.3c0.5-5.1,1-10.3,1.5-15.4
		c0.1-1.5,0.3-2.9,0.4-4.4c0-0.5,0-0.8-0.2-1.2c-0.2-0.3-0.6-0.7-1-0.7c-0.4-0.1-0.9,0-1.2,0.2c-0.3,0.2-0.7,0.6-0.7,1
		c-0.5,5.1-1,10.3-1.5,15.4c-0.1,1.5-0.3,2.9-0.4,4.4c0.5-0.4,1-0.8,1.5-1.3c-8,0-16-0.1-24-0.1c-2.3,0-4.5,0-6.8,0
		c0.6,0.5,1.1,1.1,1.7,1.6C4.8,74,5.2,66.9,5.7,59.8c0.4-7.1,0.8-14.1,1.3-21.2c0.2-4,0.5-8,0.7-12c0.1-0.9-0.9-1.6-1.7-1.6
		C4.9,25.2,4.4,25.9,4.3,26.8L4.3,26.8z"/>
	<path fill="#F9920D" d="M97.9,69.6c-0.2,0.3-0.4,0.6-0.6,0.9c-0.1,0.1-0.2,0.2,0-0.1c-0.1,0-0.1,0.1-0.1,0.2
		c-0.1,0.2-0.2,0.3-0.4,0.5c-0.2,0.3-0.5,0.5-0.7,0.8c-0.2,0.2-0.5,0.5-0.8,0.7c0.3-0.2,0.1-0.1,0,0c-0.1,0.1-0.2,0.1-0.2,0.2
		c-0.1,0.1-0.3,0.2-0.4,0.3c-0.3,0.2-0.6,0.4-0.9,0.6c-0.6,0.4-1.3,0.8-1.9,1.1c-0.3,0.2-0.7,0.3-1,0.5c-0.1,0-0.5,0.3-0.2,0.1
		c-0.2,0.1-0.4,0.2-0.6,0.2c-0.7,0.3-1.4,0.6-2.1,0.9c-1.5,0.6-3.1,1.2-4.6,1.7c-1.6,0.5-3.1,1-4.7,1.4c-0.8,0.2-1.6,0.4-2.4,0.6
		c-0.4,0.1-0.8,0.2-1.1,0.2c-0.2,0-0.4,0.1-0.6,0.1c-0.1,0-0.2,0-0.3,0c-0.5,0.1,0.3-0.1-0.1,0c-3.3,0.5-6.7,0.8-10,0.5
		c-0.2,0-0.4,0-0.6,0c0.4,0.1-0.2,0-0.3,0c-0.4,0-0.9-0.1-1.3-0.2c-0.8-0.1-1.7-0.3-2.5-0.5c-0.8-0.2-1.6-0.4-2.4-0.7
		c-0.4-0.1-0.7-0.2-1.1-0.4c-0.1,0-0.2-0.1-0.3-0.1c-0.2-0.1,0.3,0.1,0,0c-0.2-0.1-0.5-0.2-0.7-0.3c-1.5-0.6-2.9-1.4-4.3-2.2
		c-0.3-0.2-0.6-0.4-0.9-0.6c-0.1-0.1-0.2-0.1-0.3-0.2c-0.2-0.1,0.2,0.2,0,0c-0.2-0.1-0.3-0.3-0.5-0.4c-0.6-0.5-1.2-1-1.8-1.5
		c-1.2-1-2.3-2.2-3.3-3.3c-0.2-0.3-0.5-0.6-0.7-0.8c-0.1-0.1-0.1-0.1-0.2-0.2c0,0-0.3-0.3-0.1-0.1c0.1,0.2,0-0.1-0.1-0.1
		c-0.1-0.1-0.2-0.2-0.2-0.3c-0.5-0.6-1-1.2-1.4-1.9c-1.8-2.4-3.3-5-4.7-7.7c-0.2-0.3-0.3-0.7-0.5-1c-0.1-0.3,0,0,0,0
		c0-0.1-0.1-0.2-0.1-0.2c-0.1-0.2-0.2-0.4-0.3-0.6c-0.3-0.7-0.6-1.4-0.8-2.1c-0.5-1.4-1-2.9-1.4-4.3c-0.2-0.7-0.4-1.5-0.5-2.2
		c0-0.2-0.1-0.4-0.1-0.6c0-0.1-0.1-0.4,0,0c0-0.1,0-0.2,0-0.2c-0.1-0.4-0.1-0.7-0.2-1.1c-0.2-1.5-0.3-2.9-0.3-4.4
		c0-0.7,0-1.4,0.1-2.1c0-0.4,0-0.7,0.1-1.1c0-0.1,0-0.3,0,0.1c0-0.1,0-0.2,0-0.2c0-0.2,0-0.4,0.1-0.6c0.2-1.4,0.4-2.8,0.8-4.2
		c0.3-1.4,0.7-2.7,1.2-4.1c0-0.1,0.1-0.1,0.1-0.2c0.1-0.3,0,0,0,0.1c0.1-0.2,0.1-0.3,0.2-0.5c0.1-0.3,0.3-0.7,0.4-1
		c0.3-0.7,0.6-1.3,0.9-1.9c0.6-1.3,1.3-2.5,2.1-3.7c0.2-0.3,0.4-0.6,0.6-0.8c0.1-0.1,0.2-0.3,0.3-0.4c0.1-0.1,0.4-0.6,0.2-0.2
		c0.4-0.6,0.9-1.1,1.3-1.7c0.9-1.1,1.9-2.2,2.9-3.1c0.5-0.5,1-1,1.6-1.4c0.2-0.2,0.5-0.4,0.7-0.6c-0.4,0.3,0.1-0.1,0.2-0.1
		c0.2-0.1,0.3-0.3,0.5-0.4c1.1-0.9,2.3-1.6,3.5-2.4c0.6-0.4,1.2-0.7,1.9-1c0.3-0.2,0.6-0.3,0.9-0.5c0.2-0.1,0.3-0.2,0.5-0.2
		c0.1,0,0.2-0.1,0.3-0.1c-0.2,0.1-0.2,0.1,0,0c2.6-1.2,5.3-2,8.1-2.6c0.3-0.1,0.7-0.1,1-0.2c0.1,0,0.2,0,0.2,0c-0.4,0-0.1,0,0,0
		c0.2,0,0.4-0.1,0.6-0.1c0.7-0.1,1.4-0.2,2.1-0.3c1.4-0.1,2.8-0.2,4.2-0.2c0.7,0,1.4,0,2.1,0.1c0.4,0,0.7,0,1.1,0.1
		c0.2,0,0.3,0,0.5,0c-0.5-0.1,0.2,0,0.3,0c1.4,0.2,2.8,0.4,4.2,0.7c1.4,0.3,2.8,0.7,4.1,1.1c0.3,0.1,0.7,0.2,1,0.4
		c0.1,0.1,0.3,0.1,0.4,0.2c-0.4-0.2,0.1,0.1,0.3,0.1c0.7,0.3,1.4,0.6,2.1,0.9c1.4,0.6,2.7,1.4,4,2.2c0.2,0.1,0.3,0.2,0.5,0.3
		c0.1,0,0.1,0.1,0.2,0.1c0.2,0.1-0.3-0.2,0,0c0.3,0.2,0.6,0.5,0.9,0.7c0.6,0.5,1.1,1,1.7,1.5c0.3,0.2,0.5,0.5,0.7,0.8
		c0.1,0.1,0.2,0.3,0.4,0.4c0.1,0.1,0.1,0.1,0.2,0.2c0.2,0.2,0,0,0,0c0.5,0.5,0.9,1.2,1.3,1.8c0.4-0.8,0.9-1.7,1.3-2.5
		c-0.6,0-1.3,0-1.9,0c-0.9,0-1.6,0.9-1.6,1.7c0.1,0.9,0.8,1.6,1.7,1.6c0.6,0,1.3,0,1.9,0c1.3,0,2-1.5,1.3-2.5
		c-3.5-5.6-9.4-9-15.5-11C77.1,3.7,71,3.1,65.1,3.7c-6,0.6-11.9,2.5-17.1,5.6c-5.2,3.1-9.6,7.5-12.9,12.6c-3.2,5-5.3,10.8-6,16.7
		c-0.7,6.2,0.2,12.5,2.5,18.4c2.3,6.1,5.8,11.7,10.1,16.5c2.2,2.5,4.7,4.7,7.6,6.4c3,1.9,6.3,3.1,9.8,3.9c6.9,1.5,14.1,0.8,20.9-1
		c3.3-0.9,6.4-2,9.6-3.3c3-1.2,5.9-2.6,8.4-4.7c1.2-1,2.1-2.2,2.9-3.5c0.4-0.8,0.1-1.8-0.7-2.2C99.3,68.5,98.3,68.8,97.9,69.6
		L97.9,69.6z"/>
	<path fill="#F9920D" d="M117.9,82.1c-2.1-1.8-4.2-3.5-6.4-5.3c-2-1.7-4-3.3-6-5c-0.9-0.8-1.9-1.7-2.7-2.6c-0.4-0.4-0.9-0.9-1.3-1.4
		c-0.1-0.1-0.2-0.2-0.3-0.3c0.2,0.2-0.1-0.1-0.1-0.2c-0.2-0.2-0.4-0.5-0.5-0.7c-0.7-0.9-1.3-1.8-1.8-2.8c-0.3-0.5-0.5-1-0.8-1.5
		c-0.1-0.1-0.1-0.3-0.2-0.4c-0.1-0.1-0.2-0.3,0-0.1c-0.1-0.3-0.2-0.5-0.4-0.8c-0.9-2.1-1.6-4.3-2.1-6.5c-0.3-1.1-0.5-2.2-0.7-3.3
		c-0.1-0.3-0.1-0.5-0.2-0.8c0-0.1,0-0.1,0-0.2c0-0.1-0.1-0.3,0-0.1c0,0.2,0,0,0-0.1c0-0.1,0-0.2,0-0.3c-0.1-0.6-0.2-1.3-0.3-1.9
		c-0.3-2.5-0.5-5.1-0.3-7.6c0-0.2,0-0.3,0-0.5c0-0.1,0-0.1,0-0.2c0,0,0,0.3,0,0.1c0-0.3,0.1-0.7,0.1-1c0.1-0.7,0.2-1.3,0.3-2
		c0.3-1.3,0.6-2.6,1-3.9c0.2-0.6,0.4-1.3,0.7-1.9c0.1-0.2,0,0,0,0.1c0-0.1,0.1-0.1,0.1-0.2c0.1-0.2,0.1-0.3,0.2-0.5
		c0.1-0.3,0.3-0.6,0.4-1c0.5-1.2,1-2.3,1.6-3.4c0.5-1.1,1.1-2.1,1.7-3.1c0.3-0.5,0.6-1,1-1.5c0.2-0.2,0.3-0.5,0.5-0.7
		c0.1-0.1,0.2-0.3,0.3-0.4c0,0,0.2-0.2,0,0c-0.1,0.2,0.1-0.1,0.1-0.1c0.7-1,1.5-1.9,2.3-2.8c0.4-0.4,0.8-0.8,1.3-1.2
		c0.2-0.2,0.4-0.3,0.6-0.5c0.1-0.1,0.1-0.1,0.2-0.2c0,0-0.2,0.2-0.1,0.1c0.1-0.1,0.2-0.2,0.4-0.3c0.9-0.7,1.9-1.4,2.9-2
		c0.5-0.3,1-0.6,1.5-0.8c0.2-0.1,0.5-0.3,0.8-0.4c0.1-0.1,0.2-0.1,0.4-0.2c0.1,0,0.2-0.1,0.2-0.1c0.2-0.1,0.1,0,0,0
		c2-1,4.2-1.7,6.4-2.3c1.1-0.3,2.1-0.5,3.2-0.7c0.2,0,0.5-0.2,0.8-0.1c0,0-0.3,0.1-0.1,0c0.1,0,0.2,0,0.2,0c0.1,0,0.3,0,0.4-0.1
		c0.6-0.1,1.1-0.2,1.7-0.2c2.2-0.2,4.4-0.3,6.6-0.2c0.6,0,1.1,0.1,1.7,0.1c0.1,0,0.3,0.1,0.4,0c0,0-0.3,0-0.1,0c0.1,0,0.1,0,0.2,0
		c0.3,0,0.6,0.1,0.9,0.1c1.1,0.1,2.2,0.3,3.3,0.5c1.1,0.2,2.1,0.5,3.2,0.8c0.5,0.2,1,0.3,1.6,0.5c0.1,0,0.2,0.1,0.3,0.1
		c0.1,0,0.5,0.2,0.1,0c0.2,0.1,0.5,0.2,0.7,0.3c2,0.8,4,1.8,5.8,3.1c0.2,0.1,0.4,0.3,0.7,0.4c0.1,0.1,0.2,0.1,0.3,0.2
		c0.1,0.1,0.2,0.1,0,0c0.1,0,0.1,0.1,0.2,0.1c0.4,0.3,0.9,0.7,1.3,1c0.8,0.6,1.5,1.3,2.3,2c0.7,0.7,1.4,1.5,2.1,2.3
		c0.1,0.1,0.2,0.2,0.3,0.3c0.1,0.1-0.1-0.1-0.1-0.1c0,0,0.1,0.1,0.1,0.1c0.2,0.2,0.3,0.4,0.5,0.6c0.3,0.4,0.6,0.8,0.9,1.2
		c1.2,1.7,2.2,3.4,3.1,5.3c0.1,0.2,0.2,0.4,0.3,0.7c0,0.1,0.2,0.4,0.1,0.2c-0.1-0.2,0.1,0.2,0.1,0.2c0.2,0.5,0.4,1,0.6,1.4
		c0.4,1,0.7,1.9,1.1,2.9c0.6,2,1.2,4,1.6,6c0,0.2,0.1,0.5,0.1,0.7c0,0.1,0,0.3,0.1,0.4c0,0,0,0.2,0,0c0-0.2,0,0,0,0.1
		c0.1,0.5,0.2,1,0.2,1.6c0.1,1,0.3,2.1,0.3,3.1c0.2,2.2,0.2,4.5,0.2,6.7c0,0.7-0.1,1.3-0.1,2c0,0.3,0,0.6-0.1,1c0,0.1,0,0.1,0,0.2
		c0-0.3,0-0.1,0,0c0,0.2,0,0.3-0.1,0.5c-0.1,1.3-0.4,2.6-0.6,4c-0.3,1.2-0.6,2.4-1,3.6c-0.1,0.2-0.2,0.5-0.2,0.7
		c0,0.1-0.1,0.2-0.1,0.3c0,0-0.1,0.2,0,0c0.1-0.3,0,0.1,0,0.1c-0.2,0.4-0.4,0.9-0.5,1.3c-0.8,1.8-1.8,3.5-2.9,5.1
		c-0.1,0.2-0.3,0.4-0.4,0.6c0,0-0.1,0.1-0.1,0.1c0,0,0.2-0.3,0.1-0.1c-0.1,0.1-0.2,0.2-0.3,0.4c-0.3,0.4-0.6,0.8-0.9,1.2
		c-0.6,0.7-1.3,1.5-1.9,2.2c-0.7,0.7-1.4,1.4-2.1,2c-0.2,0.2-0.4,0.3-0.5,0.5c-0.1,0.1-0.2,0.1-0.3,0.2c-0.1,0-0.1,0.1-0.2,0.1
		c0.1,0,0.2-0.2,0.1-0.1c-0.4,0.3-0.8,0.6-1.2,0.9c-1.6,1.2-3.2,2.2-5,3.1c-0.4,0.2-0.9,0.5-1.3,0.7c-0.1,0.1-0.2,0.1-0.3,0.2
		c-0.3,0.1,0.3-0.1,0,0c-0.2,0.1-0.5,0.2-0.7,0.3c-0.9,0.4-1.8,0.7-2.8,1.1c-0.9,0.3-1.9,0.6-2.8,0.8c-0.5,0.1-0.9,0.2-1.4,0.3
		c-0.2,0-0.5,0.1-0.7,0.1c-0.1,0-0.1,0-0.2,0c-0.2,0,0.2,0,0.1,0c-0.1,0-0.3,0-0.4,0.1c-2,0.3-4,0.5-6,0.4c-0.5,0-1,0-1.6-0.1
		c-0.2,0-0.5,0-0.7-0.1c-0.1,0-0.4,0-0.2,0c0.2,0,0,0,0,0c-0.1,0-0.2,0-0.3,0c-1-0.1-2-0.3-3-0.5c-2-0.4-4-1-6-1.7
		c-0.1,0-0.2-0.1-0.3-0.1c0,0,0.4,0.1,0.1,0c-0.1,0-0.1,0-0.2-0.1c-0.3-0.1-0.5-0.2-0.7-0.3c-0.5-0.2-1-0.4-1.4-0.6
		c-0.9-0.4-1.8-0.9-2.7-1.4c-0.9-0.5-1.8-1-2.7-1.6c-0.4-0.3-0.9-0.6-1.3-0.9c-0.1-0.1-0.2-0.1-0.3-0.2c-0.2-0.2,0.2,0.2-0.1-0.1
		c-0.2-0.2-0.4-0.3-0.6-0.5c-1.6-1.3-3.2-2.6-4.6-4.1c-0.7-0.7-1.4-1.5-2.1-2.3c-0.1-0.1-0.1-0.2-0.2-0.3c0-0.1-0.1-0.1-0.1-0.2
		c0,0,0.2,0.2,0.1,0.1c-0.2-0.2-0.3-0.4-0.5-0.6c-0.3-0.4-0.6-0.8-0.9-1.3c-1.2-1.6-2.2-3.4-3.1-5.1c-0.4-0.8-1.6-1-2.3-0.5
		c-0.8,0.5-0.9,1.4-0.5,2.3c2,3.9,4.6,7.4,7.7,10.5c3.1,3.1,6.6,5.8,10.4,7.8c3.8,2.1,7.9,3.6,12.2,4.4c4.2,0.8,8.5,0.9,12.7,0.2
		c4.2-0.7,8.2-2.1,11.9-4.1c3.6-1.9,7-4.5,9.8-7.4c2.8-3,5.2-6.4,6.8-10.2c2.1-4.8,2.9-10,3.1-15.2c0.1-4.5-0.3-9.1-1.2-13.6
		c-0.9-4.3-2.3-8.4-4.2-12.3c-1.9-3.8-4.4-7.4-7.5-10.4c-3.2-3.1-7.1-5.6-11.2-7.3c-4.4-1.7-9-2.7-13.8-2.9
		c-4.6-0.2-9.3,0.4-13.8,1.7c-4.6,1.3-9.1,3.3-12.9,6.2c-4,3.2-7,7.4-9.2,12c-2.4,5-4.4,10.3-4.7,15.8c-0.2,2.6,0,5.2,0.3,7.8
		c0.3,2.5,0.8,5,1.4,7.5c1.1,4.6,2.9,9.1,5.7,12.9c3.1,4.3,7.5,7.5,11.5,10.9c2.1,1.7,4.2,3.4,6.2,5.2c0.7,0.5,1.7,0.6,2.3-0.1
		C118.5,83.8,118.6,82.7,117.9,82.1L117.9,82.1z"/>
	<path fill="#F9920D" d="M71,71.2c-0.2,0.1-0.4,0.1-0.6,0.2c0,0-0.3,0.1-0.3,0.1c0.1,0.1,0.4-0.1,0,0c-0.4,0.1-0.9,0.1-1.3,0.1
		c-0.4,0-0.8,0-1.2,0c-0.1,0-0.1,0-0.2,0c-0.4,0,0.4,0,0,0c-0.3,0-0.5-0.1-0.7-0.1c-0.4-0.1-0.8-0.1-1.2-0.3c-0.2,0-0.3-0.1-0.5-0.1
		c-0.2-0.1-0.5-0.2-0.7-0.2c0.1,0,0.1,0.1,0.2,0.1c-0.1,0-0.1-0.1-0.2-0.1c-0.1,0-0.1-0.1-0.2-0.1c-0.2-0.1-0.4-0.2-0.6-0.3
		c-0.4-0.2-0.8-0.4-1.1-0.6c-0.2-0.1-0.3-0.2-0.4-0.3c0,0-0.1,0-0.1-0.1c-0.1-0.1-0.1-0.1,0.1,0.1c0,0-0.2-0.2-0.3-0.2
		c-0.3-0.3-0.7-0.6-1-0.9c-0.3-0.3-0.6-0.6-0.8-0.9c0.2,0.4,0,0,0,0c-0.1-0.1-0.1-0.2-0.2-0.3c-0.1-0.2-0.3-0.4-0.4-0.6
		c-0.5-0.7-0.9-1.5-1.3-2.3c-0.1-0.2-0.2-0.4-0.3-0.6c0.2,0.4-0.1-0.2-0.1-0.3c-0.2-0.4-0.4-0.9-0.5-1.3c-0.3-0.9-0.7-1.8-0.9-2.7
		c-0.1-0.4-0.2-0.9-0.3-1.3c0-0.1-0.2-0.7-0.1-0.3c-0.1-0.3-0.1-0.6-0.1-0.8c0-0.4-0.1-0.9-0.1-1.3c0-0.2,0-0.3,0-0.5
		c0-0.1,0-0.2,0-0.3c0-0.1,0.1-0.6,0-0.1c0.1-0.4,0.1-0.7,0.2-1.1c0.1-0.4,0.2-0.8,0.3-1.2c0-0.2,0.1-0.3,0.2-0.5
		c0-0.1,0.1-0.2,0.1-0.3c0.1-0.3-0.2,0.4,0,0c0.2-0.4,0.3-0.7,0.5-1.1c0.2-0.3,0.4-0.7,0.5-1c0.1-0.2,0.2-0.3,0.3-0.5
		c0-0.1,0.1-0.1,0.1-0.2c0-0.1,0.1-0.1,0.1-0.2c0.1-0.1,0.1-0.1-0.1,0.1c0.1-0.1,0.3-0.3,0.4-0.5c0.1-0.1,0.2-0.3,0.3-0.4
		c0.3-0.3,0.5-0.6,0.8-0.9c0.3-0.3,0.5-0.5,0.8-0.8c0.1-0.1,0.2-0.1,0.2-0.2c-0.1,0-0.1,0.1-0.2,0.1c0.1,0,0.1-0.1,0.2-0.1
		c0.2-0.1,0.3-0.2,0.5-0.4c0.7-0.5,1.3-0.9,2.1-1.2c0.1,0,0.2-0.1,0.2-0.1c0.3-0.2-0.4,0.1,0,0c0.2-0.1,0.4-0.2,0.6-0.3
		c0.4-0.2,0.8-0.3,1.2-0.4c0.4-0.1,0.8-0.2,1.2-0.3c0.2,0,0.4-0.1,0.5-0.1c0,0,0.1,0,0.1,0c0.2,0,0.1,0-0.1,0
		c0.1-0.1,0.3-0.1,0.4-0.1c0.8-0.1,1.7-0.2,2.5-0.2c0.4,0,0.8,0,1.2,0c0.1,0,0.2,0,0.3,0c0,0,0.1,0,0.1,0c0.1,0,0.1,0,0,0
		c0,0-0.1,0-0.1,0c0.1,0,0.1,0,0.2,0c0.1,0,0.3,0,0.4,0.1c0.8,0.1,1.7,0.3,2.5,0.5c0.4,0.1,0.8,0.2,1.2,0.3c0.2,0.1,0.4,0.1,0.6,0.2
		c0.1,0,0.2,0.1,0.3,0.1c0.1,0,0.1,0-0.2-0.1c0.1,0,0.1,0.1,0.2,0.1c0.8,0.3,1.6,0.7,2.4,1.1c0.4,0.2,0.8,0.4,1.1,0.7
		c-0.3-0.3,0,0,0,0c0.1,0.1,0.2,0.1,0.3,0.2c0.2,0.2,0.4,0.3,0.6,0.5c0.2,0.2,0.3,0.3,0.4,0.5c0.3,0.3-0.2-0.3,0,0
		c0.1,0.1,0.1,0.2,0.2,0.3c0.3,0.4,0.5,0.7,0.7,1.1c0.1,0.1,0.2,0.3,0.2,0.5c0-0.1-0.1-0.1-0.1-0.2c0,0.1,0.1,0.1,0.1,0.2
		c0,0.1,0.1,0.2,0.1,0.3c0.2,0.4,0.3,0.8,0.5,1.3c0.3,0.8,0.5,1.7,0.7,2.5c0.1,0.4,0.2,0.9,0.3,1.3c0,0.2,0.1,0.4,0.1,0.7
		c0,0.1,0.1,0.4,0,0c0,0.2,0.1,0.3,0.1,0.5c0.1,0.9,0.2,1.9,0.3,2.8c0,0.4,0,0.9,0,1.3c0,0.2,0,0.5,0,0.7c0.1-0.4,0-0.1,0,0
		c0,0.1,0,0.3-0.1,0.4c-0.1,0.4-0.1,0.9-0.3,1.3c-0.1,0.2-0.1,0.5-0.2,0.7c0,0.1-0.1,0.2-0.1,0.3c-0.1,0.4,0.1-0.3,0,0
		c-0.2,0.4-0.4,0.8-0.6,1.2c-0.1,0.2-0.2,0.4-0.4,0.6c0,0.1-0.1,0.2-0.2,0.3c0.1-0.2,0.2-0.2,0.1-0.1c0,0,0,0.1-0.1,0.1
		c-0.3,0.3-0.6,0.7-0.9,1c-0.1,0.1-0.3,0.3-0.4,0.4c-0.1,0.1-0.2,0.1-0.2,0.2c-0.1,0.1-0.4,0.4-0.1,0.1c-0.3,0.3-0.7,0.5-1,0.7
		c-0.4,0.2-0.7,0.5-1.1,0.7c-0.2,0.1-0.3,0.2-0.5,0.3c-0.1,0-0.2,0.1-0.3,0.1c-0.3,0.2,0.3-0.1,0,0c-0.4,0.2-0.8,0.3-1.2,0.5
		c-0.4,0.1-0.7,0.2-1.1,0.3c-0.2,0-0.4,0.1-0.6,0.1c-0.1,0-0.2,0-0.3,0.1c-0.1,0-0.1,0-0.2,0c0.2,0,0.3,0,0.1,0
		c-0.8,0.1-1.6,0.2-2.4,0.2c-0.2,0-0.4,0-0.6,0c-0.1,0-0.1,0-0.2,0c0,0-0.1,0-0.1,0c-0.2,0-0.1,0,0.1,0c-0.2-0.1-0.4-0.1-0.6-0.1
		c-0.2,0-0.4-0.1-0.6-0.1c-0.4-0.1-0.7-0.2-1.1-0.3c-0.2-0.1-0.4-0.1-0.6-0.2c-0.4-0.1,0.4,0.2,0,0c-0.1,0-0.2-0.1-0.3-0.1
		c-0.4-0.2-0.7-0.3-1-0.5c-0.2-0.1-0.4-0.2-0.5-0.3c-0.1-0.1-0.2-0.1-0.3-0.2c-0.1-0.1-0.4-0.3,0,0c-0.4-0.3-0.7-0.5-1.2-0.4
		c-0.4,0-0.9,0.2-1.1,0.5c-0.5,0.6-0.7,1.8,0.1,2.3c1.6,1.2,3.3,2,5.2,2.4c1.8,0.4,3.7,0.4,5.5,0.1c3.8-0.6,7.6-2.4,10-5.4
		c1.3-1.7,2.2-3.6,2.6-5.8c0.3-2.1,0.3-4.2,0-6.3c-0.3-2-0.7-4-1.3-6c-0.6-1.9-1.5-3.8-3-5.3c-1.4-1.5-3.3-2.5-5.1-3.2
		c-1.8-0.7-3.6-1.3-5.5-1.5c-3.9-0.5-7.8,0-11.4,1.7c-3.2,1.6-5.9,4.3-7.5,7.4c-0.8,1.7-1.4,3.5-1.5,5.4c-0.2,2,0.1,4,0.7,5.9
		c0.6,1.9,1.4,3.9,2.3,5.7c0.9,1.8,2,3.4,3.4,4.8c2.8,2.6,6.7,4.1,10.6,3.8c1-0.1,1.9-0.2,2.9-0.5c0.8-0.2,1.4-1.2,1.1-2.1
		C72.8,71.4,71.9,71,71,71.2L71,71.2z"/>
	<path fill="#F9920D" d="M78.1,65.2c-0.4,0.3-0.8,0.5-1.2,0.8c0.4-0.3,0.1-0.1,0,0c-0.1,0-0.2,0.1-0.3,0.1c-0.2,0.1-0.5,0.2-0.7,0.2
		c-0.1,0-0.2,0.1-0.3,0.1c-0.3,0.1,0.3,0,0,0c-0.3,0-0.5,0.1-0.8,0.1c-0.2,0-0.5,0-0.7,0c-0.1,0-0.2,0-0.3,0c-0.1,0-0.1,0-0.2,0
		c-0.3,0,0.4,0.1,0.1,0c-0.5-0.1-1-0.1-1.4-0.3c-0.2-0.1-0.5-0.1-0.7-0.2c-0.1,0-0.1,0-0.2-0.1c0,0,0.4,0.1,0.2,0.1
		c-0.1-0.1-0.3-0.1-0.4-0.2c-0.5-0.2-0.9-0.4-1.3-0.7c-0.1-0.1-0.2-0.1-0.3-0.2c-0.2-0.2,0.1,0.1,0.1,0.1c0,0-0.1-0.1-0.1-0.1
		c-0.2-0.2-0.4-0.3-0.6-0.5c-0.2-0.2-0.3-0.3-0.5-0.5c-0.1-0.1-0.2-0.2-0.2-0.3c0.3,0.2,0.2,0.2,0.1,0.1c-0.1-0.1-0.1-0.2-0.2-0.2
		c-0.3-0.4-0.6-0.9-0.8-1.3c-0.1-0.1-0.1-0.2-0.2-0.4c0,0,0.1,0.3,0.1,0.2c0-0.1-0.1-0.1-0.1-0.2c-0.1-0.3-0.2-0.5-0.3-0.8
		c-0.1-0.2-0.2-0.5-0.2-0.8c0-0.1-0.1-0.2-0.1-0.3c0-0.1,0-0.1,0-0.2c0-0.3,0-0.1,0,0.1c-0.1-0.5-0.1-1.1-0.2-1.6c0-0.2,0-0.5,0-0.7
		c0-0.1,0-0.3,0-0.4c0-0.1,0-0.1,0-0.2c0-0.3,0,0.3,0,0.1c0.1-1.1,0.4-2.1,0.7-3.2c0,0-0.2,0.4,0,0.1c0-0.1,0-0.1,0.1-0.2
		c0-0.1,0.1-0.2,0.1-0.3c0.1-0.3,0.2-0.5,0.4-0.8c0.1-0.3,0.3-0.5,0.5-0.8c0.1-0.1,0.2-0.3,0.3-0.4c0,0-0.2,0.3-0.1,0.1
		c0.1-0.1,0.1-0.2,0.2-0.2c0.2-0.2,0.4-0.5,0.6-0.7c0.1-0.1,0.1-0.1,0.2-0.2c0.1-0.1,0-0.1-0.1,0c0.1-0.1,0.3-0.2,0.4-0.3
		c0.2-0.2,0.5-0.3,0.7-0.4c0.3-0.1,0,0-0.1,0c0.1,0,0.1-0.1,0.2-0.1c0.2-0.1,0.3-0.1,0.5-0.2c1.2-0.4,2.4-0.8,3.7-1
		c0.2,0,0.3-0.1,0.5-0.1c0,0,0.2,0,0.2,0c0,0-0.3,0-0.1,0c0.3,0,0.7-0.1,1-0.1c0.3,0,0.6,0,1,0c0.1,0,0.3,0-0.1,0c0.1,0,0.2,0,0.2,0
		c0.2,0,0.3,0.1,0.5,0.1c0.1,0,0.3,0.1,0.4,0.1c0.1,0,0.1,0,0.2,0.1c0.3,0.1-0.1,0-0.1-0.1c0.2,0.1,0.5,0.2,0.7,0.4
		c0.1,0.1,0.2,0.1,0.3,0.2c0.1,0,0.1,0.1,0.2,0.1c0.2,0.1-0.1-0.1-0.1-0.1c0.2,0.2,0.4,0.3,0.6,0.5c0.2,0.2,0.4,0.4,0.5,0.6
		c0.2,0.3-0.2-0.2,0,0c0.1,0.1,0.2,0.3,0.3,0.4c0.3,0.4,0.6,0.9,0.8,1.4c0.1,0.1,0.1,0.2,0.2,0.4c0.1,0.2-0.1,0,0-0.1
		c0,0,0.1,0.2,0.1,0.2c0.1,0.3,0.2,0.5,0.3,0.8c0.2,0.5,0.4,1,0.5,1.6c0.2,0.6,0.3,1.2,0.4,1.8c0,0.1,0,0.2,0,0.2c0,0.2,0-0.1,0-0.1
		c0.1,0.1,0.1,0.4,0.1,0.5c0,0.3,0.1,0.7,0.1,1c0,0.3,0,0.7,0,1c0,0.1,0,0.3,0,0.4c0,0.3,0,0,0-0.1c0,0.1,0,0.3,0,0.4
		c0,0.3-0.1,0.6-0.2,0.9c0,0.1,0,0.2-0.1,0.2c0,0.1-0.1,0.3,0,0.1c0.1-0.2,0,0,0,0.1c0,0.1-0.1,0.2-0.1,0.3
		c-0.1,0.3-0.3,0.5-0.4,0.7c0,0,0.2-0.3,0.1-0.1c0,0.1-0.1,0.1-0.1,0.2c-0.1,0.1-0.2,0.2-0.3,0.3c-0.1,0.1-0.2,0.2-0.3,0.3
		c0,0-0.1,0.1-0.1,0.1c-0.1,0.1-0.1,0,0.1-0.1c-0.2,0.1-0.5,0.3-0.7,0.5c-0.2,0.1-0.5,0.3-0.7,0.4c-0.2,0.1,0.1,0,0.1,0
		c0,0-0.2,0.1-0.2,0.1c-0.1,0.1-0.3,0.1-0.4,0.2c-0.2,0.1-0.5,0.2-0.7,0.2c-0.1,0-0.3,0.1-0.4,0.1c0,0-0.2,0-0.2,0
		c0.2,0,0.3,0,0.1,0c0,0-0.1,0-0.1,0c-0.7,0.1-1.3,0.1-2,0.1c-0.2,0-0.3,0-0.5,0c-0.1,0-0.1,0-0.2,0c-0.1,0-0.3,0-0.1,0
		c0.2,0,0,0-0.1,0c-0.1,0-0.2,0-0.2,0c-0.2,0-0.4-0.1-0.6-0.1c-0.7-0.1-1.3-0.2-1.9-0.4c-0.8-0.2-1.8,0.4-2,1.2
		c-0.2,0.9,0.3,1.8,1.2,2c2.8,0.7,6,1,8.8,0c1.3-0.5,2.5-1.2,3.5-2.3c1-1.1,1.7-2.5,2-4c0.3-1.6,0.1-3.3-0.1-4.9
		c-0.2-1.2-0.5-2.5-1-3.7c-0.9-2.5-2.4-4.9-4.7-6.2c-1.3-0.7-2.8-1.1-4.3-1c-1.5,0.1-3,0.5-4.5,0.8c-1.4,0.4-2.8,0.8-4,1.6
		c-1.3,0.8-2.3,2.1-3.1,3.4c-2.4,4.4-2.6,10.4,0.5,14.5c3,4,8.6,5.6,13.2,3.5c0.5-0.2,0.9-0.5,1.3-0.8c0.7-0.5,1.1-1.5,0.5-2.3
		C79.9,65.1,78.9,64.7,78.1,65.2L78.1,65.2z"/>
	<path fill="#F9920D" d="M78.4,56.5c0.5,0,0.3,0,0.2,0c0.1,0,0.2,0.1,0.3,0.1c-0.1-0.1-0.1,0,0.1,0c0.3,0.2-0.1-0.1,0.2,0.1
		c0.2,0.2,0.1,0.1,0,0c-0.1-0.2,0.1,0.4,0.1,0.1c0,0,0-0.1,0-0.1c0,0,0,0.4,0,0.2c0,0,0-0.1,0-0.1c0-0.2,0-0.1,0,0.2
		c0-0.1,0-0.3,0.1-0.3c0,0-0.2,0.4-0.1,0.2c0.1-0.2-0.1,0.1-0.1,0.1c0,0,0.1-0.1,0.1-0.1c0.2-0.2-0.1,0.1-0.1,0.1
		c0.1,0,0.1-0.1,0.2-0.1c0.2-0.2,0,0-0.1,0c0,0,0.5-0.1,0.2-0.1c-0.3,0,0.1,0,0.2,0c0.4,0-0.4-0.1,0,0c0.2,0,0.1,0.1-0.2-0.1
		c0,0,0.2,0.1,0.2,0.1c0,0-0.3-0.3-0.1-0.1c0,0,0.1,0.1,0.1,0.1c0,0-0.2-0.3-0.1-0.1c0.1,0.2-0.1-0.2-0.1-0.2c0,0.1,0.1,0.2,0.1,0.3
		c-0.1-0.4,0-0.3,0-0.2c0,0.1,0,0.1,0,0.2c0-0.4,0-0.3,0-0.2c0,0.1,0,0.1,0,0.2c0,0.2,0.2-0.4,0.1-0.2c0,0,0,0.1-0.1,0.1
		c-0.2,0.3,0.3-0.3,0,0c-0.1,0.1-0.2,0,0.2-0.1c0,0,0,0-0.1,0c-0.1,0.1-0.1,0.1,0.2-0.1c0,0-0.1,0-0.1,0c0,0,0.4,0,0.2,0
		c-0.3,0,0.2,0,0.2,0c0,0-0.1,0-0.2,0c-0.2,0,0.1,0,0.2,0.1c0,0-0.1-0.1-0.2-0.1c-0.2-0.1,0.3,0.2,0.1,0.1c0,0-0.1-0.1-0.2-0.2
		c0.2,0.1,0.2,0.3,0.1,0.1c0-0.1-0.1-0.1-0.1-0.2c0-0.1-0.1-0.2,0,0c0.1,0.2,0,0,0-0.1c0-0.1,0-0.1,0-0.2c0,0,0,0.4,0,0.1
		c0,0,0-0.2,0-0.2c0,0.3,0,0.3,0,0.2c0,0,0-0.1,0-0.1c0-0.2,0.1,0-0.1,0.2c0,0,0.1-0.1,0.1-0.2c0.1-0.2-0.1,0.1-0.1,0.1
		c0,0,0.1-0.1,0.1-0.1c0.2-0.2-0.1,0.1-0.1,0.1c0,0,0.3-0.2,0,0c-0.2,0.1-0.1,0,0,0c0.2-0.1-0.4,0-0.2,0c-0.1,0-0.2,0-0.3,0
		c-0.3-0.1-0.3-0.1-0.2-0.1c0.2,0.1-0.3-0.3-0.1-0.1c-0.1-0.1-0.3-0.3-0.3-0.5c0,0,0,0.1,0,0.1c0-0.1,0-0.2-0.1-0.3
		c0,0.3,0-0.2,0-0.2c0,0,0,0.2-0.1,0.2c0-0.3,0.1-0.3,0.1-0.2c-0.2,0.3,0.3-0.3,0.1-0.1c-0.1,0.1,0-0.1,0.1-0.1c0,0-0.1,0-0.1,0.1
		c-0.1,0.1-0.1,0,0.2-0.1c0,0-0.2,0.1-0.2,0.1c0.1,0,0.1,0,0.2,0c-0.1,0-0.1,0-0.2,0c-0.1,0-0.1,0-0.2,0c0.1,0,0.4,0,0.1,0
		c-0.1,0-0.7-0.2-0.2,0c-0.4-0.2-0.8-0.3-1.3-0.1c-0.4,0.1-0.8,0.4-1,0.8c-0.4,0.7-0.2,1.9,0.7,2.2c1.3,0.5,2.8,0.7,4-0.2
		c1-0.8,1.4-2.5,0.7-3.6c-0.5-0.7-1.2-1.1-2.1-1.1c-0.7,0-1.4,0.4-1.9,0.9c-0.9,0.9-1.3,2.3-0.8,3.5c0.4,1.2,1.4,2.3,2.7,2.4
		c1.3,0.2,2.6-0.4,3.2-1.7c0.5-1,0.5-2.4-0.2-3.3c-0.9-1.2-2.3-1.5-3.6-1.2c-1.3,0.3-2.4,1.4-2.6,2.7c-0.1,0.7,0,1.5,0.4,2.1
		c0.5,0.8,1.3,1.1,2.2,1.2c0.9,0.1,1.6-0.9,1.6-1.7C80,57.2,79.3,56.6,78.4,56.5L78.4,56.5z"/>
	<path fill="#F9920D" d="M146.2,69.9c-0.7,0.5-1.4,1-2.1,1.3c-0.1,0-0.2,0.1-0.3,0.1c-0.1,0.1-0.4,0.1,0,0c-0.2,0-0.4,0.2-0.6,0.2
		c-0.4,0.1-0.8,0.3-1.1,0.4c-0.4,0.1-0.8,0.2-1.2,0.3c-0.2,0-0.4,0.1-0.6,0.1c-0.4,0.1,0.4-0.1,0,0c-0.1,0-0.3,0-0.4,0.1
		c-0.8,0.1-1.6,0.1-2.4,0.1c-0.2,0-0.4,0-0.6,0c-0.1,0-0.2,0-0.3,0c-0.4,0,0.4,0,0,0c-0.4-0.1-0.9-0.1-1.3-0.2
		c-0.4-0.1-0.8-0.2-1.2-0.3c-0.2,0-0.3-0.1-0.5-0.1c-0.1,0-0.2-0.1-0.3-0.1c-0.1,0-0.5-0.2-0.1,0c-0.8-0.4-1.5-0.7-2.2-1.1
		c-0.2-0.1-0.3-0.2-0.5-0.3c-0.1-0.1-0.2-0.1-0.2-0.2c-0.1-0.1-0.2-0.2,0.1,0.1c-0.3-0.3-0.7-0.5-1-0.8c-0.3-0.3-0.6-0.5-0.9-0.8
		c-0.1-0.1-0.3-0.3-0.4-0.4c-0.1-0.1-0.1-0.1-0.2-0.2c0-0.1-0.1-0.1-0.1-0.2c0.2,0.2,0.2,0.2,0.1,0.1c-0.5-0.6-0.9-1.3-1.3-2
		c-0.2-0.3-0.4-0.7-0.5-1.1c-0.2-0.3,0.2,0.4,0,0c0-0.1-0.1-0.2-0.1-0.3c-0.1-0.2-0.2-0.4-0.3-0.6c-0.3-0.7-0.5-1.5-0.6-2.3
		c0-0.1,0-0.2-0.1-0.3c0.1,0.4,0,0.2,0,0c0-0.2-0.1-0.4-0.1-0.6c0-0.4-0.1-0.8-0.1-1.2c0-0.4,0-0.8,0-1.1c0-0.1,0-0.2,0-0.3
		c0-0.4,0,0.4,0,0c0-0.2,0.1-0.5,0.1-0.7c0.1-0.9,0.4-1.7,0.6-2.5c0,0,0-0.1,0-0.1c0.1-0.2,0-0.1,0,0.1c0.1-0.1,0.1-0.2,0.1-0.3
		c0.1-0.2,0.2-0.4,0.3-0.6c0.2-0.4,0.4-0.8,0.6-1.2c0.2-0.4,0.4-0.7,0.7-1.1c0,0,0-0.1,0.1-0.1c0.1-0.1,0.1-0.1-0.1,0.1
		c0,0,0.1-0.2,0.2-0.2c0.1-0.2,0.3-0.4,0.4-0.5c0.3-0.3,0.6-0.7,0.9-1c0.2-0.2,0.3-0.3,0.5-0.4c0.1-0.1,0.2-0.1,0.2-0.2
		c0.1-0.1,0.4-0.4,0.1-0.1c0.3-0.3,0.7-0.5,1-0.8c0.4-0.2,0.8-0.5,1.2-0.7c0.2-0.1,0.4-0.2,0.6-0.3c0.1,0,0.4-0.2,0,0
		c0.1-0.1,0.2-0.1,0.3-0.1c0.5-0.2,0.9-0.4,1.4-0.5c0.9-0.3,1.8-0.5,2.7-0.7c0.1,0,0.2-0.1,0.3-0.1c-0.4,0,0,0,0,0
		c0.2,0,0.5-0.1,0.7-0.1c0.5-0.1,1-0.1,1.5-0.2c1-0.1,2.1-0.1,3.1-0.1c0.3,0,0.5,0,0.8,0.1c-0.4,0,0,0,0.1,0c0.1,0,0.3,0,0.4,0.1
		c0.5,0.1,1.1,0.2,1.6,0.3c0.2,0.1,0.4,0.1,0.6,0.2c0.1,0,0.2,0.1,0.4,0.1c0.4,0.1-0.3-0.1,0.1,0c0.4,0.2,0.8,0.3,1.1,0.5
		c0.3,0.2,0.7,0.4,1,0.6c0.3,0.2-0.3-0.2,0,0c0.1,0.1,0.2,0.1,0.2,0.2c0.2,0.1,0.3,0.3,0.5,0.4c0.3,0.2,0.5,0.5,0.8,0.7
		c0.1,0.1,0.3,0.3,0.4,0.4c0.1,0.1,0.2,0.4,0,0c0.1,0.1,0.2,0.2,0.2,0.3c0.5,0.6,0.9,1.3,1.2,2c0.1,0.2,0.2,0.4,0.3,0.5
		c-0.2-0.4-0.1-0.1,0,0c0,0.1,0.1,0.2,0.1,0.3c0.2,0.4,0.3,0.8,0.4,1.2c0.1,0.4,0.2,0.8,0.3,1.1c0,0.2,0.1,0.4,0.1,0.6
		c0,0-0.1-0.4,0-0.1c0,0.1,0,0.3,0.1,0.4c0.1,0.8,0.1,1.6,0.1,2.4c0,0.1-0.1,0.8,0,0.2c0,0.2,0,0.4-0.1,0.6
		c-0.1,0.4-0.1,0.8-0.2,1.2c-0.1,0.4-0.2,0.8-0.3,1.2c0,0.1-0.1,0.2-0.1,0.3c0,0.1-0.2,0.4,0,0c-0.1,0.2-0.2,0.5-0.3,0.7
		c-0.3,0.8-0.7,1.5-1.2,2.2c-0.1,0.2-0.2,0.4-0.4,0.5c0,0-0.2,0.3-0.2,0.3c0-0.1,0.1-0.1,0.1-0.2c0,0.1-0.1,0.1-0.1,0.2
		c-0.3,0.4-0.6,0.7-0.9,1.1c-0.6,0.6-1.2,1.3-1.8,1.8c-0.1,0.1-0.2,0.1-0.2,0.2c0,0-0.1,0-0.1,0.1c-0.1,0.1-0.1,0.1,0.1-0.1
		c-0.1,0.1-0.4,0.3-0.5,0.4c-0.4,0.3-0.8,0.5-1.1,0.8c-0.7,0.5-1.5,0.9-2.2,1.3c0,0-0.1,0-0.1,0c-0.2,0.1-0.1,0.1,0.1,0
		c-0.1,0.1-0.2,0.1-0.3,0.1c-0.2,0.1-0.4,0.2-0.6,0.3c-0.5,0.2-1,0.3-1.5,0.5c-0.2,0-0.4,0.1-0.6,0.1c-0.1,0-0.2,0.1-0.3,0.1
		c0.4,0,0,0,0,0c-0.5,0.1-1,0.1-1.5,0.1c-0.1,0-0.2,0-0.3,0c-0.4,0,0.4,0.1,0,0c-0.2,0-0.4-0.1-0.7-0.1c-0.2-0.1-0.4-0.1-0.7-0.2
		c-0.4-0.1,0.3,0.2,0,0c-0.1-0.1-0.2-0.1-0.3-0.1c-0.8-0.4-1.8-0.2-2.2,0.7c-0.4,0.8-0.2,1.8,0.7,2.2c4,2,8.7,0.3,12.3-1.9
		c3.3-2.1,6.1-5.1,7.6-8.6c1.5-3.5,1.9-7.4,0.8-11.1c-1.1-3.5-3.3-6.7-6.5-8.5c-3.9-2.3-8.8-2.1-13.1-1.3c-4,0.7-7.8,2.6-10.5,5.7
		c-2.6,3-4.1,7-4.1,11c0.1,3.6,1.4,7.2,3.7,10.1c2.4,3,5.6,5.1,9.4,5.8c3.7,0.7,7.6,0.2,11-1.5c0.8-0.4,1.5-0.8,2.2-1.4
		c0.4-0.3,0.6-0.6,0.7-1c0.1-0.4,0-0.9-0.2-1.2C148,69.7,147,69.3,146.2,69.9L146.2,69.9z"/>
	<path fill="#F9920D" d="M150.4,66.3C150.4,66.3,150.7,66.2,150.4,66.3c0,0-0.1,0-0.1,0.1c-0.1,0.1-0.3,0.1-0.4,0.2
		c-0.3,0.1-0.6,0.3-0.9,0.4c-0.6,0.2-1.1,0.5-1.7,0.7c-0.6,0.2-1.2,0.4-1.7,0.5c-0.3,0.1-0.6,0.1-0.8,0.2c-0.1,0-0.1,0-0.2,0
		c-0.2,0,0.3,0,0.1,0c-0.2,0-0.3,0-0.5,0.1c-0.6,0.1-1.2,0.1-1.8,0.1c-0.1,0-0.3,0-0.4,0c-0.1,0-0.2-0.1,0.1,0c-0.1,0-0.1,0-0.2,0
		c-0.3,0-0.6-0.1-0.9-0.2c-0.3-0.1-0.5-0.1-0.8-0.2c-0.1,0-0.1,0-0.2-0.1c-0.3-0.1,0.1,0,0.1,0c-0.1,0-0.3-0.1-0.4-0.2
		c-0.3-0.1-0.5-0.3-0.8-0.4c-0.1-0.1-0.3-0.1-0.3-0.2c0,0,0.3,0.2,0.1,0c-0.1,0-0.1-0.1-0.2-0.1c-0.2-0.2-0.4-0.3-0.6-0.5
		c-0.1-0.1-0.2-0.2-0.3-0.3c0,0-0.1-0.1-0.1-0.1c-0.1-0.2,0.2,0.3,0,0c-0.3-0.4-0.6-0.9-0.9-1.4c-0.1-0.1-0.1-0.2-0.2-0.3
		c0,0,0-0.1-0.1-0.1c0.2,0.3,0.1,0.2,0,0.1c-0.1-0.3-0.2-0.5-0.3-0.8c-0.2-0.5-0.3-1-0.4-1.5c0-0.1-0.1-0.3-0.1-0.4c0,0,0-0.2,0-0.2
		c0,0,0.1,0.4,0,0.1c0-0.3-0.1-0.5-0.1-0.8c0-0.5-0.1-1.1,0-1.7c0-0.1,0-0.3,0-0.4c0-0.1,0-0.3,0,0.1c0-0.1,0-0.1,0-0.2
		c0-0.3,0.1-0.5,0.1-0.8c0.1-0.5,0.2-1.1,0.4-1.6c0.1-0.3,0,0.1,0,0.1c0,0,0.1-0.2,0.1-0.2c0-0.1,0.1-0.2,0.1-0.3
		c0.1-0.3,0.2-0.5,0.4-0.8c0.1-0.2,0.3-0.4,0.4-0.6c0.2-0.3-0.1,0.1-0.1,0.1c0,0,0.1-0.2,0.1-0.2c0.1-0.1,0.2-0.2,0.3-0.3
		c0.2-0.2,0.3-0.4,0.5-0.5c0.1-0.1,0.2-0.2,0.3-0.2c0.1-0.1,0.5-0.4,0.1-0.1c0.4-0.3,0.8-0.6,1.2-0.8c0.2-0.1,0.5-0.2,0.7-0.3
		c0,0-0.3,0.1-0.2,0.1c0.1,0,0.1-0.1,0.2-0.1c0.1-0.1,0.2-0.1,0.4-0.2c0.5-0.2,1-0.3,1.5-0.4c0.1,0,0.2-0.1,0.4-0.1
		c0.1,0,0.5-0.1,0.2,0c-0.3,0,0.1,0,0.2,0c0.1,0,0.3,0,0.4-0.1c0.5-0.1,1-0.1,1.5-0.1c0.3,0,0.5,0,0.8,0c0.1,0,0.2,0,0.4,0
		c0.1,0,0.1,0,0.2,0c0.2,0-0.4,0-0.1,0c0.5,0.1,1.1,0.2,1.6,0.3c0.3,0.1,0.5,0.1,0.8,0.2c0.1,0,0.3,0.1,0.4,0.1c0.1,0,0.3,0.1,0.1,0
		c-0.3-0.1,0.1,0,0.1,0c0.5,0.2,1,0.5,1.4,0.8c0.2,0.1-0.3-0.2-0.1-0.1c0,0,0.1,0.1,0.1,0.1c0.1,0.1,0.2,0.2,0.3,0.3
		c0.1,0.1,0.2,0.2,0.3,0.3c0,0,0.1,0.1,0.1,0.1c0,0,0.2,0.3,0.1,0.1c-0.2-0.2,0.1,0.1,0.1,0.2c0.1,0.1,0.1,0.2,0.2,0.3
		c0.2,0.3,0.3,0.5,0.4,0.8c0.1,0.2-0.1-0.1-0.1-0.1c0,0.1,0.1,0.2,0.1,0.2c0,0.1,0.1,0.2,0.1,0.4c0.1,0.3,0.2,0.6,0.3,0.9
		c0.1,0.3,0.1,0.5,0.2,0.8c0,0.1,0,0.1,0,0.2c0.1,0.3,0,0,0-0.1c0.1,0.1,0,0.3,0.1,0.5c0.1,0.6,0.1,1.2,0.1,1.7c0,0.1,0,0.3,0,0.4
		c0,0.2,0-0.3,0-0.1c0,0.1,0,0.1,0,0.2c0,0.3-0.1,0.6-0.2,0.9c-0.1,0.3-0.1,0.5-0.2,0.8c0,0.1,0,0.1-0.1,0.2c0,0-0.1,0.2,0,0
		c0.1-0.2,0,0,0,0.1c0,0.1-0.1,0.2-0.1,0.3c-0.1,0.2-0.2,0.5-0.4,0.7c-0.1,0.1-0.1,0.2-0.2,0.3c0,0.1-0.1,0.1-0.1,0.2
		c-0.1,0.2,0.3-0.3,0-0.1c-0.3,0.4-0.6,0.7-1,1.1c-0.3,0.3,0.2-0.2,0,0c-0.1,0.1-0.2,0.2-0.3,0.2c-0.2,0.1-0.4,0.3-0.6,0.4
		c-0.1,0.1-0.2,0.1-0.3,0.2c-0.3,0.1,0.3-0.1,0,0c-0.2,0.1-0.5,0.2-0.7,0.3c-0.1,0-0.2,0.1-0.3,0.1c0,0-0.1,0-0.1,0
		c-0.2,0,0.3,0,0.1,0c-0.2,0-0.5,0.1-0.7,0.1c-0.1,0-0.3,0-0.4,0c0,0-0.1,0-0.1,0c-0.2,0,0.4,0,0.1,0c-0.2,0-0.5-0.1-0.7-0.1
		c-0.8-0.2-1.8,0.4-2,1.2c-0.2,0.9,0.3,1.8,1.2,2c2.6,0.6,5.2-0.2,7.2-1.9c2.1-1.8,3.1-4.4,3.3-7.1c0.1-1.3-0.1-2.7-0.4-4
		c-0.3-1.3-0.8-2.5-1.6-3.6c-1.7-2.2-4.3-3.4-7-3.7c-2.4-0.3-4.9-0.2-7.2,0.6c-2.4,0.9-4.5,2.5-5.8,4.7c-1.3,2.2-1.8,4.9-1.6,7.4
		c0.2,2.5,1,5.2,2.6,7.2c0.9,1.1,1.9,2.1,3.2,2.7c1.3,0.7,2.8,1,4.3,1c2.7,0.2,5.4-0.7,7.9-1.7c0.7-0.3,1.4-0.6,2.1-0.9
		c0.4-0.2,0.6-0.7,0.7-1c0.1-0.4,0-0.9-0.2-1.2c-0.2-0.4-0.6-0.7-1-0.7C151.1,66,150.8,66.1,150.4,66.3L150.4,66.3z"/>
	<path fill="#F9920D" d="M148.5,59.1c-0.2,0.1,0.1-0.1,0.1-0.1C148.6,59.1,148.4,59.1,148.5,59.1C148.4,59.1,148.2,59.2,148.5,59.1
		C148.7,59.1,148.5,59.1,148.5,59.1c-0.2,0,0.2,0,0.2,0C148.6,59.1,148.5,59.1,148.5,59.1c0,0-0.1-0.1-0.1-0.1
		C148.4,59,148.7,59.2,148.5,59.1c0,0-0.1-0.1-0.1-0.1C148.4,59,148.7,59.3,148.5,59.1C148.4,59,148.3,58.9,148.5,59.1
		C148.6,59.3,148.5,59.1,148.5,59.1c0-0.2,0.1,0.2,0.1,0.2C148.5,59.2,148.5,59.1,148.5,59.1c0-0.2,0.1-0.1,0.1,0.1
		C148.5,59.2,148.5,59.1,148.5,59.1c0-0.3,0.1,0.1,0,0.1C148.5,59.2,148.5,59,148.5,59.1C148.6,58.8,148.3,59.4,148.5,59.1
		C148.7,58.7,148.3,59.2,148.5,59.1c0.1-0.1,0.2-0.2,0.2-0.2c0,0.1-0.3,0.2-0.1,0.1C148.7,58.9,148.3,59.1,148.5,59.1
		C148.4,59.1,148.5,59.1,148.5,59.1C148.7,58.9,148.1,59.1,148.5,59.1c0.4-0.1-0.2-0.1-0.2-0.1c0,0,0.3,0.1,0.3,0.1
		c0.2,0-0.3-0.1-0.2-0.1C148.4,59,148.5,59.1,148.5,59.1c0.1,0,0.2,0,0.3,0.1c0.2,0.1-0.3-0.3-0.2-0.1c0,0,0.1,0,0.1,0.1
		c0,0,0.1,0.1,0.1,0.1c0.2,0.2-0.2-0.3-0.1-0.1c0,0.1,0.1,0.2,0.1,0.2c-0.2-0.3-0.1-0.3-0.1-0.2c0,0,0,0.1,0,0.1
		c0.1,0.2-0.1-0.4,0-0.1c0,0.3,0.1-0.4,0-0.1c0,0.1-0.1,0.3,0,0c0.1-0.3,0-0.1,0-0.1c0,0-0.1,0.1-0.1,0.1c0,0,0.3-0.3,0.1-0.2
		c0,0-0.1,0.1-0.1,0.1c-0.1,0.2,0.3-0.2,0.1-0.1c-0.1,0-0.2,0.1-0.3,0.2c-0.2,0.1,0.3-0.1,0.2-0.1c0,0-0.1,0-0.1,0
		c-0.1,0-0.1,0-0.2,0c-0.2,0-0.1-0.1,0.2,0C148.6,59.2,148.4,59.2,148.5,59.1c-0.3,0.1,0.3,0.2,0.1,0.1
		C148.5,59.2,148.4,59.2,148.5,59.1c-0.1,0.1-0.3,0,0,0.1C148.7,59.3,148.5,59.2,148.5,59.1c-0.2,0,0.1,0,0.1,0.2
		C148.6,59.3,148.5,59.2,148.5,59.1c0.2,0.1,0.1,0.3,0,0.1c0-0.1-0.1-0.2-0.1-0.2C148.3,58.8,148.4,59.1,148.5,59.1
		c0,0-0.1-0.2-0.1-0.2c0-0.1,0-0.1-0.1-0.2c0-0.1,0-0.1,0,0c0,0.1,0,0.1,0,0c0-0.1,0-0.2,0,0c0,0.1,0,0.1,0,0c0,0.1,0,0.1-0.1,0.2
		c-0.2,0.3-0.5,0.5-0.8,0.5c0.3,0-0.2,0-0.2,0c-0.1,0-0.2-0.1-0.3-0.1c-0.4-0.5-0.6-0.6-0.4-0.4c-0.1-0.4-0.1-0.8-0.2-1.2
		c-0.1,0.4-0.2,0.8-0.3,1.2c-0.2,0.8,0.4,1.8,1.2,2c0.9,0.2,1.8-0.3,2-1.2c0.2-0.6,0.5-1.4,0.3-2.1c-0.3-0.9-1.2-1.5-2.1-1.4
		c-0.8,0-1.5,0.4-1.9,1.1c-0.4,0.7-0.4,1.5-0.3,2.3c0.2,1.1,0.9,2.2,2,2.7c1.1,0.5,2.3,0.4,3.3-0.2c1-0.6,1.6-1.6,1.7-2.7
		c0.1-0.9-0.4-2-1.1-2.6c-0.7-0.6-1.7-1-2.6-0.9c-1.2,0.1-2.2,0.8-2.7,1.9c-0.6,1.3-0.4,2.9,0.7,3.8c1.1,0.9,2.7,1.1,3.9,0.4
		c0.7-0.4,1-1.5,0.5-2.3C150.2,58.9,149.2,58.6,148.5,59.1L148.5,59.1z"/>
	<path fill="#F9920D" d="M14.4,99.5c-2-1.4-4.6-2.1-7-1.7c-2.5,0.4-4.7,1.8-6.1,3.9c-1.3,2-1.6,4.5-0.9,6.7c0.8,2.5,2.8,4.3,5.3,5
		c2.8,0.8,5.9,0,8.6-0.8c0.8-0.2,1.4-1.2,1.1-2.1c-0.3-0.9-1.2-1.3-2.1-1.1c-0.5,0.2-1.1,0.3-1.6,0.4c-0.3,0.1-0.5,0.1-0.8,0.2
		c-0.1,0-0.2,0.1-0.4,0.1c-0.1,0-0.4,0.1-0.5,0.1c0,0,0.3,0,0.1,0c-0.1,0-0.2,0-0.2,0c-0.1,0-0.2,0-0.4,0c-0.3,0-0.6,0.1-0.8,0.1
		c-0.3,0-0.5,0-0.8,0c-0.1,0-0.2,0-0.4,0c0,0-0.2,0-0.2,0c0.1,0,0.3,0,0.1,0c-0.5-0.1-1-0.2-1.5-0.3c-0.2-0.1,0.2,0.1,0.1,0.1
		c0,0-0.2-0.1-0.2-0.1c-0.1,0-0.2-0.1-0.3-0.2c-0.2-0.1-0.5-0.3-0.7-0.4c0,0,0.3,0.2,0.1,0.1c0,0-0.1-0.1-0.2-0.1
		c-0.1-0.1-0.2-0.1-0.2-0.2c-0.1-0.1-0.2-0.2-0.2-0.2c0-0.1-0.3-0.3-0.1-0.1c0.2,0.2-0.1-0.1-0.1-0.2c-0.1-0.1-0.1-0.2-0.2-0.2
		c-0.1-0.2-0.2-0.4-0.3-0.6c0,0,0.1,0.3,0.1,0.2c0-0.1-0.1-0.1-0.1-0.2c0-0.1-0.1-0.2-0.1-0.3c-0.1-0.2-0.1-0.4-0.2-0.7
		c0-0.1,0-0.5,0,0c0-0.1,0-0.2,0-0.3c0-0.2,0-0.5,0-0.7c0-0.1,0-0.2,0-0.3c0,0,0-0.1,0-0.1c0,0,0,0.4,0,0.2c0-0.2,0.1-0.5,0.1-0.7
		c0-0.1,0.1-0.2,0.1-0.3c0,0,0-0.1,0-0.1c0-0.2-0.1,0.2-0.1,0.2c0.1-0.2,0.2-0.4,0.3-0.7c0.1-0.2,0.2-0.4,0.3-0.6
		c0.1-0.1,0.3-0.3,0,0c0.1-0.1,0.1-0.2,0.2-0.3c0.1-0.2,0.3-0.3,0.5-0.5c0.1-0.1,0.1-0.1,0.2-0.2c0.1,0,0.1-0.1,0.2-0.1
		c0.2-0.1,0,0-0.1,0.1c0.2-0.1,0.4-0.3,0.5-0.4c0.2-0.1,0.4-0.3,0.6-0.4c0.1-0.1,0.4-0.1,0,0c0.1,0,0.2-0.1,0.3-0.1
		c0.2-0.1,0.5-0.2,0.7-0.2c0.1,0,0.3-0.1,0.4-0.1c0,0,0.2,0,0,0c-0.2,0,0,0,0.1,0c0.3,0,0.6-0.1,0.8-0.1c0.1,0,0.3,0,0.4,0
		c0.1,0,0.5,0,0.2,0c-0.3,0,0,0,0.1,0c0.1,0,0.1,0,0.2,0c0.1,0,0.3,0,0.4,0.1c0.3,0.1,0.6,0.1,0.9,0.2c0.1,0,0.5,0.2,0.2,0.1
		c-0.2-0.1,0,0,0,0c0.1,0,0.2,0.1,0.3,0.1c0.5,0.2,1,0.5,1.5,0.9c0.3,0.2,0.9,0.2,1.3,0.1c0.4-0.1,0.8-0.4,1-0.8
		c0.2-0.4,0.3-0.9,0.1-1.3C15.1,100,14.8,99.7,14.4,99.5L14.4,99.5z"/>
	<path fill="#F9920D" d="M17.8,101c2.1-0.3,4.3-0.4,6.5-0.4c1.1,0,2.2,0,3.2,0.1c0.5,0,1,0.1,1.6,0.1c0.3,0,0.5,0,0.8,0.1
		c-0.4-0.1,0.1,0,0.1,0c0.2,0,0.3,0,0.5,0c0.5,0,0.8,0,1.2-0.2c0.3-0.2,0.7-0.6,0.7-1c0.2-0.9-0.3-1.7-1.2-2c-1-0.3-2-0.1-3,0.4
		c-0.8,0.4-1,1.6-0.5,2.3c0.5,0.8,1.5,1,2.3,0.5c0.3-0.2-0.3,0.1,0,0c0.1,0,0.1,0,0.2-0.1c-0.2,0-0.3,0-0.1,0c0.1,0,0.1,0,0.2,0
		c0.1,0,0.1,0,0,0c-0.1,0-0.1,0,0,0c0.1,0,0.1,0,0.2,0.1c0.2-1.1,0.5-2.1,0.7-3.2c-4.5-0.5-9-0.5-13.5,0.1c-0.9,0.1-1.7,0.8-1.6,1.7
		C16.1,100.2,16.9,101.1,17.8,101L17.8,101z"/>
	<path fill="#F9920D" d="M20.5,98.7c0.5,4.8,0.9,9.6,1.4,14.4c0.1,0.9,0.8,1.7,1.7,1.6c0.8-0.1,1.7-0.8,1.6-1.7
		c-0.5-4.8-0.9-9.6-1.4-14.4c-0.1-0.9-0.8-1.7-1.7-1.6C21.3,97.1,20.5,97.8,20.5,98.7L20.5,98.7z"/>
	<path fill="#F9920D" d="M40.3,109.3c-0.1,0.1-0.3,0.2-0.4,0.3c-0.1,0-0.2,0.1-0.2,0.1c-0.3,0.2,0.4-0.1,0.1,0
		c-0.2,0.1-0.3,0.1-0.5,0.2c-0.2,0-0.4,0,0.1,0c-0.1,0-0.2,0-0.3,0c-0.2,0-0.4,0-0.5,0c-0.1,0-0.2,0-0.3,0c0.5,0,0.2,0,0.1,0
		c-0.4-0.1-0.7-0.2-1.1-0.3c0.4,0.1,0.2,0.1,0.1,0c-0.1,0-0.2-0.1-0.3-0.1c-0.2-0.1-0.3-0.2-0.5-0.3c-0.1,0-0.2-0.1-0.2-0.2
		c0.4,0.2,0.2,0.1,0,0c-0.2-0.1-0.3-0.3-0.5-0.4c-0.2-0.2-0.3-0.3-0.4-0.5c-0.3-0.3,0.2,0.3,0,0c-0.1-0.1-0.1-0.2-0.2-0.3
		c-0.3-0.4-0.5-0.7-0.7-1.1c-0.1-0.2-0.3-0.4-0.3-0.6c0,0.1,0.1,0.1,0.1,0.2c0-0.1-0.1-0.1-0.1-0.2c0-0.1-0.1-0.2-0.1-0.3
		c-0.2-0.4-0.3-0.8-0.5-1.2c-0.1-0.2-0.1-0.4-0.2-0.6c-0.1-0.2-0.2-0.5-0.2-0.7c0,0.3,0,0.2,0,0.1c0-0.1,0-0.2,0-0.4
		c0,0,0-0.1,0-0.1c0-0.2,0-0.2,0,0.1c0,0,0.1-0.4,0.1-0.4c0.1-0.4-0.2,0.3,0,0c0.1-0.1,0.1-0.2,0.2-0.3c0-0.1,0.1-0.2,0.2-0.3
		c0,0.1-0.1,0.1-0.1,0.2c0,0,0.1-0.1,0.1-0.1c0.1-0.2,0.3-0.3,0.4-0.5c0.1-0.1,0.2-0.2,0.3-0.2c0.3-0.2-0.3,0.2,0,0
		c0.3-0.2,0.5-0.4,0.8-0.5c0.1,0,0.2-0.1,0.2-0.1c0.3-0.2-0.4,0.2-0.1,0c0.2-0.1,0.4-0.2,0.6-0.2c0.3-0.1,0.6-0.2,0.9-0.3
		c0.1,0,0.4,0-0.1,0c0.1,0,0.2,0,0.3,0c0.2,0,0.4,0,0.6-0.1c0.3,0,0.7,0,1,0c0.3,0-0.4-0.1-0.1,0c0.1,0,0.2,0,0.3,0
		c0.2,0,0.4,0.1,0.6,0.1c0.3,0.1,0.6,0.2,0.9,0.3c0.3,0.1-0.4-0.2-0.1,0c0.1,0,0.2,0.1,0.2,0.1c0.2,0.1,0.4,0.2,0.6,0.3
		c0.1,0.1,0.3,0.1,0.4,0.2c0.1,0,0.1,0.1,0.2,0.1c0.3,0.2-0.3-0.3-0.1,0c0.3,0.2,0.6,0.5,0.9,0.8c0,0,0.1,0.1,0.1,0.1
		c0.1,0.1,0.2,0.3,0,0c0.1,0.2,0.2,0.3,0.3,0.4c0.1,0.1,0.2,0.3,0.3,0.5c0,0.1,0.1,0.2,0.1,0.2c0.1,0.3-0.2-0.4,0,0
		c0.1,0.3,0.2,0.6,0.3,1c0,0.2,0.1,0.3,0.1,0.5c-0.1-0.5,0-0.2,0-0.1c0,0.1,0,0.2,0,0.3c0,0.4,0.1,0.7,0,1.1c0,0.2-0.1,0.8,0,0.2
		c0,0.2,0,0.4-0.1,0.5c-0.1,0.3-0.1,0.7-0.2,1c0,0.1-0.1,0.2-0.1,0.3c0,0.1-0.2,0.4,0-0.1c-0.1,0.2-0.1,0.3-0.2,0.5
		c-0.2,0.4-0.4,0.7-0.6,1.1c0.2-0.4,0.1-0.2,0-0.1c-0.1,0.1-0.1,0.1-0.2,0.2c-0.1,0.2-0.3,0.3-0.4,0.4c-0.1,0.1-0.1,0.1-0.2,0.2
		c-0.1,0.1-0.4,0.3,0,0c-0.2,0.1-0.3,0.2-0.5,0.3c-0.2,0.1-0.4,0.2-0.6,0.3c-0.1,0-0.4,0.2,0,0c-0.1,0.1-0.3,0.1-0.4,0.2
		c-0.5,0.2-1,0.3-1.5,0.4c-0.1,0-0.2,0-0.3,0.1c-0.1,0-0.2,0-0.2,0c0.2,0,0.3,0,0.1,0c-0.3,0-0.5,0.1-0.8,0.1c-0.2,0-0.5,0-0.7,0.1
		c-0.3,0-0.6,0.1-0.8,0c0.1,0,0.1,0,0.2,0c-0.1,0-0.2,0-0.2,0c-0.2,0-0.3-0.1-0.5-0.1c-0.4-0.1,0.3,0.2,0,0
		c-0.1-0.1-0.3-0.1-0.4-0.2c-0.7-0.5-1.9-0.1-2.2,0.7c-0.4,0.9-0.1,1.7,0.7,2.2c1.1,0.7,2.4,0.8,3.7,0.8c1.1-0.1,2.3-0.3,3.4-0.6
		c2.1-0.6,3.7-1.8,4.9-3.6c2-2.9,2.1-7.2,0.1-10.2c-2.2-3.2-6.3-4.4-10-3.6c-2,0.4-3.8,1.6-5,3.3c-0.8,1.2-1,2.5-0.7,3.9
		c0.2,1,0.6,1.9,0.9,2.9c0.9,2,2.1,4,4,5.1c1.7,1,3.9,1.3,5.7,0.6c0.5-0.2,0.9-0.4,1.4-0.8c0.4-0.3,0.6-0.6,0.7-1
		c0.1-0.4,0-0.9-0.2-1.2C42.2,109.1,41.1,108.7,40.3,109.3L40.3,109.3z"/>
	<path fill="#F9920D" d="M51.5,99.5c0.2,2.1,0.3,4.2,0.2,6.4c0,0.5,0,1-0.1,1.6c0,0.3,0,0.5-0.1,0.8c0,0.2,0,0.4,0,0.1
		c0,0.1,0,0.3,0,0.4c-0.1,1.1-0.3,2.2-0.5,3.2c-0.2,0.8,0.3,1.8,1.2,2c0.8,0.2,1.8-0.3,2-1.2c0.8-4.4,1-8.9,0.5-13.3
		c-0.1-0.9-0.8-1.7-1.7-1.6C52.3,97.9,51.4,98.6,51.5,99.5L51.5,99.5z"/>
	<path fill="#F9920D" d="M53.1,109.9c2-1.6,4-3.1,6-4.7c1-0.8,2-1.6,3-2.3c0.5-0.4,1-0.8,1.5-1.2c0.7-0.6,1.5-1.1,1.6-2
		c0.1-0.8-0.3-1.6-1.1-1.9c-0.7-0.3-1.4-0.1-1.9,0.4c-0.5,0.4-0.7,1.2-0.5,1.8c0.3,0.8,0.9,1.2,1.7,1.2c0.9,0,1.7-0.8,1.6-1.7
		c-0.1-0.9-0.8-1.6-1.7-1.6c0,0,0,0,0,0c0.3,0.1,0.6,0.1,0.9,0.2c0,0,0,0,0,0c0.3,0.3,0.5,0.6,0.8,1c0,0,0,0,0,0c0,0.3,0,0.6,0,0.9
		c-0.1,0.4-0.3,0.7-0.6,0.9c-0.3,0.1-0.5,0.2-0.8,0.2c-0.1,0-0.2,0-0.4,0c-0.3-0.1-0.5-0.3-0.8-0.4c0,0,0,0,0,0
		c-0.1-0.2-0.3-0.5-0.4-0.7c0.5-1.1,0.6-1.5,0.2-1.2c0.2-0.1,0.2-0.2,0.1-0.1c-0.1,0.1-0.3,0.2-0.4,0.3c-0.2,0.2-0.4,0.3-0.6,0.5
		c-0.5,0.4-0.9,0.7-1.4,1.1c-0.9,0.7-1.9,1.5-2.8,2.2c-1.9,1.5-3.7,2.9-5.6,4.4c-0.4,0.3-0.6,0.6-0.7,1c-0.1,0.4,0,0.9,0.2,1.2
		C51.2,110,52.3,110.4,53.1,109.9L53.1,109.9z"/>
	<path fill="#F9920D" d="M55.3,106.6C54.9,106.3,55.2,106.5,55.3,106.6c0.1,0.1,0.2,0.1,0.3,0.2c0.2,0.1,0.3,0.3,0.5,0.4
		c0.3,0.3,0.6,0.5,0.9,0.8c0.3,0.3,0.6,0.6,0.9,0.9c0.1,0.1,0.2,0.3,0.4,0.4c0.1,0.1,0.2,0.2,0.2,0.3c-0.2-0.4-0.1-0.1,0,0
		c0.5,0.6,1,1.3,1.4,2c0.2,0.3,0.4,0.7,0.6,1.1c0.1,0.2,0.2,0.4,0.3,0.6c0-0.1-0.1-0.1-0.1-0.2c0,0.1,0.1,0.1,0.1,0.2
		c0,0.1,0.1,0.2,0.1,0.3c0.2,0.4,0.4,0.7,0.8,1c0.4,0.2,0.9,0.3,1.3,0.1c0.8-0.3,1.4-1.2,1.1-2.1c-0.7-1.7-1.6-3.4-2.8-4.8
		c-1.2-1.6-2.7-2.9-4.3-4.1c-0.3-0.2-0.9-0.2-1.3-0.1c-0.4,0.1-0.8,0.4-1,0.8c-0.2,0.4-0.3,0.9-0.1,1.3
		C54.7,106.1,54.9,106.3,55.3,106.6L55.3,106.6z"/>
	<path fill="#F9920D" d="M79.5,110.4c-0.2,0.1-0.4,0.1-0.5,0.1c-0.1,0-0.2,0-0.3,0.1c-0.2,0.1,0.4-0.1,0,0c-0.4,0-0.8,0.1-1.2,0.1
		c-0.2,0-0.3,0-0.5,0c0,0-0.1,0-0.1,0c-0.2,0-0.2,0,0.1,0c0,0-0.2,0-0.2,0c-0.4-0.1-0.8-0.1-1.2-0.2c-0.2,0-0.3-0.1-0.5-0.2
		c-0.4-0.1,0.4,0.2,0,0c-0.1,0-0.1-0.1-0.2-0.1c-0.4-0.2-0.7-0.4-1.1-0.6c-0.1,0-0.1-0.1-0.2-0.1c0.4,0.2,0.2,0.1,0.1,0
		c-0.1-0.1-0.2-0.2-0.4-0.3c-0.1-0.1-0.3-0.2-0.4-0.4c-0.1-0.1-0.1-0.1-0.2-0.2c-0.1-0.1-0.3-0.4,0,0c-0.2-0.3-0.4-0.5-0.6-0.8
		c-0.1-0.1-0.2-0.3-0.2-0.4c0,0,0-0.1,0-0.1c-0.1-0.2-0.1-0.1,0,0.1c0-0.1-0.1-0.2-0.1-0.3c-0.1-0.2-0.1-0.3-0.2-0.5
		c0-0.1,0-0.4-0.1-0.5c0,0,0.1,0.4,0,0.1c0-0.1,0-0.2,0-0.2c0-0.2,0-0.4,0-0.5c0-0.1,0-0.2,0-0.2c0-0.2-0.1,0.4,0,0.1
		c0-0.2,0.1-0.3,0.1-0.5c0-0.1,0.2-0.5,0.1-0.3c-0.1,0.3,0,0,0-0.1c0-0.1,0.1-0.2,0.1-0.3c0.1-0.1,0.2-0.3,0.3-0.4
		c-0.2,0.3-0.1,0.2,0,0.1c0.1-0.1,0.1-0.1,0.2-0.2c0.1-0.1,0.2-0.2,0.4-0.4c0,0,0.1-0.1,0.2-0.1c0.3-0.2-0.3,0.2,0,0
		c0.3-0.2,0.6-0.4,0.9-0.6c0.1,0,0.1-0.1,0.2-0.1c0.3-0.2-0.3,0.1,0,0c0.2-0.1,0.4-0.1,0.5-0.2c0.3-0.1,0.7-0.2,1.1-0.3
		c0,0,0.4-0.1,0.1,0c-0.3,0,0.1,0,0.2,0c0.2,0,0.4-0.1,0.7-0.1c0.8-0.1,1.7-0.1,2.5-0.1c0.4,0,0.7,0,1.1,0c0.1,0,0.3,0,0.4,0
		c0,0-0.4-0.1-0.1,0c0.2,0,0.5,0.1,0.7,0.1c0,0,0.2,0,0.2,0.1c-0.1,0-0.1,0-0.2-0.1c0.1,0,0.1,0.1,0.2,0.1c0.1,0,0.1,0.1,0.2,0.1
		c0.3,0.2-0.2-0.2,0,0c0.1,0.1,0.2,0.2,0.3,0.3c0.2,0.2-0.2-0.3,0,0c0.1,0.1,0.1,0.2,0.2,0.2c0,0.1,0.1,0.1,0.1,0.2c0,0,0,0.1,0,0.1
		c0.1,0.2,0.1,0.1,0-0.1c0,0.1,0.1,0.3,0.2,0.5c0.1,0.3,0.2,0.7,0.3,1c0,0.1,0,0.2,0,0.2c0,0.2-0.1-0.4,0-0.1c0,0.2,0.1,0.4,0.1,0.6
		c0.1,0.4,0.1,0.8,0.1,1.2c0,0.2,0,0.4,0,0.6c0,0.1,0,0.2,0,0.3c0,0,0,0,0,0.1c0,0.2,0,0.2,0-0.1c-0.1,0.2-0.1,0.4-0.1,0.6
		c0,0.2-0.1,0.4-0.1,0.6c0,0,0,0.1,0,0.1c-0.1,0.2-0.1,0.2,0-0.1c0,0.1-0.1,0.2-0.1,0.3c0,0.1-0.3,0.6-0.4,0.6c0,0,0.3-0.3,0.1-0.1
		c-0.1,0.1-0.1,0.2-0.2,0.2c-0.1,0.2-0.3,0.3-0.5,0.4c-0.2,0.2,0.1-0.1,0.1-0.1c0,0.1-0.2,0.2-0.3,0.2c-0.2,0.1-0.3,0.2-0.5,0.3
		c-0.4,0.2-0.7,0.4-1.1,0.6c-0.1,0-0.3,0.1,0,0c-0.1,0-0.2,0.1-0.3,0.1c-0.2,0.1-0.4,0.2-0.6,0.3c-0.4,0.1-0.7,0.2-1.1,0.3
		c-0.3,0.1,0.1,0,0.1,0c0,0-0.3,0-0.4,0c-0.1,0-0.2,0-0.3,0c-0.1,0-0.1,0-0.2,0c0.1,0,0.2,0,0.2,0c0,0-0.2,0-0.3-0.1
		c-0.3-0.1,0.3,0.2,0.1,0c0,0-0.1-0.1-0.2-0.1c0.2,0.2,0.3,0.2,0.1,0.1c-0.1-0.1-0.1-0.1,0.1,0.1c-0.3-0.4-0.6-0.6-1-0.7
		c-0.4-0.1-0.9,0-1.2,0.2c-0.7,0.5-1.1,1.5-0.5,2.3c0.8,1,1.8,1.5,3,1.5c0.9,0,1.8-0.3,2.6-0.6c1.7-0.7,3.5-1.5,4.6-3
		c1.4-1.8,1.7-4,1.4-6.1c-0.2-1.9-0.6-3.9-1.9-5.3c-1.6-1.6-4-1.5-6.1-1.5c-2,0-4,0.3-5.8,1.2c-1.7,0.8-3.1,2.3-3.6,4.2
		c-0.5,1.8-0.1,3.7,0.8,5.3c2.1,3.9,7.1,5.4,11.2,4.2c0.8-0.2,1.4-1.2,1.1-2.1C81.2,110.6,80.4,110.1,79.5,110.4L79.5,110.4z"/>
	<path fill="#F9920D" d="M89.5,117.1c0.2-1.6,0.1-3.1-0.2-4.7c-0.5,0.7-1,1.4-1.5,2.1c4.1,0.1,8.1,0.2,12.2,0.3
		c-0.6-0.5-1.1-1.1-1.7-1.6c0,0.1,0,0.2,0,0.2c0-0.2,0-0.3,0-0.1c0,0.2,0,0.3-0.1,0.5c-0.1,0.3-0.1,0.6-0.2,0.9c0,0.1,0,0.1-0.1,0.2
		c0.1-0.2,0.1-0.2,0-0.1c-0.1,0.2-0.1,0.3-0.2,0.5c-0.1,0.3-0.3,0.6-0.5,0.9c-0.5,0.7-0.1,1.9,0.7,2.2c0.9,0.4,1.7,0.1,2.2-0.7
		c0.9-1.4,1.4-3,1.4-4.7c0-0.4-0.2-0.9-0.5-1.1c-0.3-0.3-0.7-0.4-1.2-0.4c-4.1-0.1-8.1-0.2-12.2-0.3c-0.5,0-1,0.3-1.3,0.7
		c-0.3,0.5-0.4,0.9-0.3,1.4c0,0.1,0.2,0.6,0,0.2c0,0.1,0,0.3,0.1,0.4c0,0.3,0.1,0.6,0.1,0.9c0,0.3,0,0.6,0,0.9c0,0.1,0,0.3,0,0.4
		c0,0.1,0,0.2,0,0.3c0-0.2,0-0.3,0-0.1c0,0.5,0,0.8,0.2,1.2c0.2,0.3,0.6,0.7,1,0.7C88.3,118.5,89.4,118,89.5,117.1L89.5,117.1z"/>
	<path fill="#F9920D" d="M90.2,112.7c1.9-1.1,2.7-3.2,3.2-5.3c0.5-2.4,0.7-4.8,0.8-7.2c-0.5,0.6-1.1,1.1-1.6,1.7
		c2.1-0.1,4.1-0.2,6.2-0.2c-0.6-0.7-1.1-1.3-1.7-2c-1.2,4.3-1.8,8.8-1.9,13.2c0,0.9,0.9,1.6,1.7,1.6c0.9-0.1,1.6-0.8,1.6-1.7
		c0-1.1,0.1-2.1,0.2-3.2c0-0.1,0-0.3,0-0.4c0-0.1,0-0.5,0-0.1c0-0.3,0.1-0.5,0.1-0.8c0.1-0.5,0.1-1.1,0.2-1.6
		c0.3-2.1,0.7-4.2,1.3-6.3c0.3-1-0.6-2.1-1.7-2c-2.1,0.1-4.1,0.2-6.2,0.2c-0.9,0-1.5,0.8-1.6,1.7c0,0.6-0.1,1.1-0.1,1.7
		c0,0.2,0,0.3,0,0.5c0,0.4,0-0.3,0,0.1c0,0.3-0.1,0.5-0.1,0.8c-0.1,1-0.3,2.1-0.5,3.1c-0.1,0.4-0.2,0.8-0.3,1.3
		c-0.1,0.2-0.2,0.4-0.2,0.6c0-0.1,0.1-0.1,0.1-0.2c0,0.1-0.1,0.1-0.1,0.2c0,0.1-0.1,0.2-0.1,0.3c-0.1,0.2-0.2,0.4-0.3,0.5
		c0,0.1-0.1,0.2-0.2,0.2c0.2-0.2,0.2-0.2,0.1-0.1c0,0,0,0.1-0.1,0.1c-0.1,0.2-0.3,0.3-0.4,0.4c-0.2,0.2,0.3-0.2,0,0
		c-0.1,0.1-0.2,0.1-0.3,0.2c-0.7,0.4-1,1.5-0.5,2.3C88.5,112.9,89.4,113.1,90.2,112.7L90.2,112.7z"/>
	<path fill="#F9920D" d="M102.1,101.1c0.1,2.3,0.3,4.5,0.4,6.8c0.1,1.2,0.1,2.3,0.2,3.5c0,0.6,0.1,1.1,0.1,1.7
		c0,0.8,0.1,1.5,0.7,2.1c1,0.9,2.7,0.4,3-0.9c0.1-0.6,0-1.3-0.5-1.7c-0.2-0.2-0.5-0.4-0.8-0.4c-0.5-0.1-0.9,0-1.3,0.2
		c-0.4,0.2-0.6,0.7-0.7,1c-0.1,0.4,0,0.9,0.2,1.2c0.2,0.4,0.6,0.7,1,0.7c0.5,0.1,0.8,0,1.2-0.2c0,0,0,0,0,0
		c-0.4,0.1-0.8,0.1-1.2,0.2c0,0,0,0,0,0c-0.3-0.1-0.5-0.3-0.8-0.4c0,0,0,0,0,0c-0.1-0.2-0.3-0.5-0.4-0.7c-0.1-0.4-0.1-0.7,0.1-1.1
		c0.2-0.2,0.4-0.4,0.6-0.6c0,0,0,0,0,0c0.3-0.1,0.5-0.2,0.8-0.2c0.1,0,0.2,0,0.3,0c0.3,0.1,0.5,0.3,0.8,0.4c0.2,0.2,0.3,0.5,0.3,0.8
		c0,0,0-0.1,0-0.1c0-0.1,0-0.3,0-0.4c0-0.3,0-0.5-0.1-0.8c0-0.5-0.1-1.1-0.1-1.6c-0.1-1.1-0.1-2.1-0.2-3.2c-0.1-2.1-0.3-4.3-0.4-6.4
		c-0.1-0.9-0.8-1.7-1.7-1.6C102.8,99.5,102,100.2,102.1,101.1L102.1,101.1z"/>
	<path fill="#F9920D" d="M103.1,109.5c1.9,0.1,3.8,0.1,5.6,0.2c0.9,0,1.8,0.1,2.7,0.1c1.2,0,2.6-0.9,2.5-2.3
		c-0.1-0.9-0.8-1.7-1.7-1.6c-0.8,0.1-1.7,0.8-1.6,1.7c0,0,0,0.1,0,0.1c0.1-0.3,0.2-0.6,0.3-0.9c0.1-0.1,0.2-0.2,0.3-0.2
		c0.1-0.1,0.2-0.1,0.1,0c-0.1,0-0.3,0.1,0,0c0.3,0,0,0-0.1,0c-0.4,0-0.7,0-1.1,0c-0.8,0-1.6,0-2.4-0.1c-1.6,0-3.2-0.1-4.8-0.1
		c-0.9,0-1.6,0.9-1.6,1.7C101.5,108.9,102.2,109.5,103.1,109.5L103.1,109.5z"/>
	<path fill="#F9920D" d="M110.8,100.7c0,2.4,0.1,4.7,0.3,7c0.1,1.2,0.3,2.3,0.4,3.5c0.1,0.6,0.2,1.2,0.3,1.7
		c0.1,0.4,0.1,0.8,0.2,1.2c0,0.1,0,0.3,0.1,0.4c0,0.1,0.1,0.7,0,0.2c0.1,0.9,0.8,1.7,1.7,1.6c0.9-0.1,1.6-0.8,1.6-1.7
		c0-0.7-0.3-1.4-0.4-2c0.1,0.4,0,0,0-0.1c0-0.2-0.1-0.3-0.1-0.5c0-0.3-0.1-0.5-0.1-0.8c-0.2-1.2-0.3-2.4-0.4-3.5
		c-0.2-2.3-0.3-4.7-0.3-7c0-0.9-0.9-1.6-1.7-1.6C111.5,99.1,110.8,99.8,110.8,100.7L110.8,100.7z"/>
	<path fill="#F9920D" d="M127.2,112.2c-0.1,0-0.7,0.1-0.2,0c-0.1,0-0.3,0-0.4,0.1c-0.3,0-0.7,0.1-1.1,0c-0.1,0-0.3,0-0.4,0
		c-0.4,0,0.4,0.1,0,0c-0.1,0-0.1,0-0.2,0c-0.3,0-0.7-0.1-1-0.2c-0.2,0-0.3-0.1-0.5-0.1c-0.1,0-0.1,0-0.2-0.1c-0.3-0.1,0.1,0,0.1,0.1
		c-0.3-0.2-0.7-0.3-1-0.4c-0.3-0.1-0.6-0.3-0.8-0.5c-0.1,0-0.1-0.1-0.2-0.1c0.4,0.2,0.2,0.1,0.1,0c-0.1-0.1-0.3-0.2-0.4-0.4
		c-0.2-0.2-0.4-0.4-0.6-0.6c-0.1-0.1-0.1-0.1-0.2-0.2c-0.2-0.2,0.2,0.3,0,0.1c-0.1-0.1-0.2-0.3-0.3-0.4c-0.1-0.2-0.2-0.3-0.3-0.5
		c0-0.1-0.1-0.1-0.1-0.2c0,0-0.1-0.4-0.1-0.1c0.1,0.3,0-0.1,0-0.1c0-0.1-0.1-0.1-0.1-0.2c0-0.1-0.1-0.2-0.1-0.3
		c-0.1-0.4,0,0.3,0-0.1c0-0.2,0-0.3,0-0.5c0,0,0-0.1,0-0.1c0-0.2,0-0.2,0,0.1c0-0.1,0-0.2,0-0.2c0-0.2,0.1-0.4,0.2-0.6
		c0,0,0.1-0.2,0.1-0.2c-0.1,0.2-0.1,0.2,0,0.1c0-0.1,0-0.1,0.1-0.2c0.1-0.3,0.3-0.5,0.4-0.8c0.1-0.1,0.2-0.3,0.3-0.4
		c-0.3,0.4,0,0,0.1-0.2c0.2-0.2,0.4-0.5,0.6-0.7c0.1-0.1,0.4-0.4,0.2-0.2c-0.2,0.2,0,0,0.1,0c0.1-0.1,0.2-0.1,0.2-0.2
		c0.2-0.2,0.5-0.3,0.7-0.5c0.1,0,0.1-0.1,0.2-0.1c0.1-0.1,0.3,0-0.1,0c0.1,0,0.3-0.1,0.4-0.2c0.3-0.1,0.6-0.2,0.9-0.3
		c0.1,0,0.2,0,0.2,0c-0.3,0.1-0.3,0-0.1,0c0.2,0,0.4,0,0.6-0.1c0.1,0,0.3,0,0.4,0c0.1,0,0.7,0.1,0.1,0c0.3,0.1,0.6,0.1,0.9,0.2
		c0.1,0,0.1,0,0.2,0.1c0.2,0.1,0.3,0.2-0.1,0c0.1,0.1,0.2,0.1,0.3,0.2c0.1,0.1,0.3,0.1,0.4,0.2c0.1,0,0.1,0.1,0.2,0.1
		c0.1,0,0.1,0.1,0.2,0.1c-0.2-0.2-0.3-0.2-0.2-0.1c0.2,0.2,0.5,0.4,0.7,0.6c0.1,0.1,0.2,0.2,0.3,0.3c0-0.1-0.1-0.1-0.1-0.2
		c0,0,0.1,0.1,0.1,0.1c0.1,0.1,0.1,0.2,0.2,0.2c0.2,0.2,0.3,0.5,0.4,0.7c0.2,0.3-0.1-0.3,0-0.1c0,0.1,0.1,0.1,0.1,0.2
		c0.1,0.1,0.1,0.3,0.2,0.4c0,0.1,0.1,0.3,0.1,0.4c0,0.1,0,0.1,0,0.2c-0.1-0.4,0-0.3,0-0.1c0,0.3,0.1,0.6,0,0.9c0,0.2-0.1,0.3,0-0.1
		c0,0.1,0,0.2,0,0.3c0,0.2-0.1,0.3-0.1,0.5c0,0.1,0,0.1-0.1,0.2c-0.1,0.3,0.2-0.4,0-0.1c-0.1,0.1-0.1,0.3-0.2,0.4
		c0,0.1-0.1,0.2-0.2,0.3c0,0,0,0.1-0.1,0.1c-0.1,0.1-0.1,0.1,0.1-0.1c-0.1,0.1-0.2,0.3-0.3,0.4c-0.1,0.1-0.3,0.3-0.4,0.4
		c0,0-0.1,0.1-0.2,0.1c0.3-0.3,0.1-0.1,0,0c-0.3,0.2-0.6,0.4-0.9,0.6c-0.2,0.1-0.3,0.2-0.5,0.2c0,0-0.3,0.1-0.3,0.1
		c0.1,0,0.1-0.1,0.2-0.1c-0.1,0-0.1,0.1-0.2,0.1c-0.7,0.3-1.4,0.5-2.2,0.8c-0.8,0.2-1.4,1.2-1.1,2.1c0.3,0.8,1.2,1.3,2.1,1.1
		c3.1-0.9,6.6-2.6,7.4-6.1c0.7-3.2-1.1-6.8-4-8.2c-3.1-1.5-6.8-0.5-9.3,1.7c-1.3,1.2-2.3,2.8-2.6,4.5c-0.3,2.1,0.5,4,1.9,5.6
		c2.4,2.9,6.5,4.1,10.1,3.2c0.8-0.2,1.4-1.3,1.1-2.1C129,112.4,128.1,112,127.2,112.2L127.2,112.2z"/>
	<path fill="#F9920D" d="M137.9,114.6c0.1-2.3,0.3-4.5,0.4-6.8c0.1-2.2,0.2-4.3-0.4-6.4c-1,0.5-2,0.9-3,1.4c1.7,2.5,3.4,5,5.2,7.5
		c0.3,0.4,0.7,0.7,1.2,0.8c0.5,0,1.1-0.1,1.3-0.5c1.9-2.6,3.7-5.4,5.4-8.2c-1-0.2-2.1-0.5-3.1-0.7c0,4.6-0.1,9.1-0.3,13.7
		c1.1,0,2.2-0.1,3.3-0.1c0-0.4,0-0.8,0-1.1c0-0.9-0.9-1.6-1.7-1.6c-0.9,0.1-1.5,0.8-1.6,1.7c0,0.4,0,0.8,0,1.1
		c0,0.9,0.9,1.6,1.7,1.6c0.9-0.1,1.5-0.8,1.6-1.7c0.2-4.6,0.3-9.1,0.3-13.7c0-0.7-0.6-1.4-1.3-1.5c-0.7-0.1-1.4,0.2-1.8,0.8
		c-0.8,1.3-1.6,2.6-2.5,3.9c-0.4,0.6-0.8,1.2-1.3,1.9c-0.2,0.3-0.5,0.7-0.7,1c-0.1,0.1-0.2,0.3-0.3,0.4c-0.1,0.1-0.1,0.2-0.2,0.3
		c-0.1,0.2,0.2-0.3,0,0c0.9,0.1,1.7,0.2,2.6,0.3c-1.8-2.4-3.5-4.9-5.2-7.5c-0.4-0.7-1.3-1-2.1-0.6c-0.8,0.3-1.1,1.2-0.9,2
		c0.1,0.3,0.1,0.5,0.2,0.8c0,0.1,0,0.1,0,0.2c0-0.2,0-0.2,0-0.1c0,0.1,0,0.3,0.1,0.4c0.1,0.5,0.1,1,0.1,1.4c0,1,0,2-0.1,3
		c-0.1,2.2-0.3,4.5-0.4,6.7c-0.1,0.9,0.9,1.6,1.7,1.6C137.3,116.2,137.9,115.5,137.9,114.6L137.9,114.6z"/>
	<path fill="#F9920D" d="M152.2,103.3c0.2,0,0.1,0-0.1,0c-0.1,0-0.1-0.1-0.2-0.1c0.3,0.1-0.2-0.2,0,0c0.3,0.3-0.2-0.3,0,0
		c0.1,0.1,0.1,0.2,0.2,0.3c0.3,0.4,0.5,0.9,0.8,1.3c0.5,0.9,1.1,1.8,1.6,2.8c0.5,0.9,1,1.8,1.6,2.7c0.1,0.2,0.3,0.5,0.4,0.7
		c0.1,0.2,0.2,0.5,0.4,0.7c-0.1-0.1-0.2-0.4-0.1-0.1c0.1,0.3,0-0.4,0-0.1c0,0.3,0.1-0.4,0-0.2c0,0.1,0,0,0.1-0.3
		c0.2-0.4,0.6-0.6,1.1-0.7c-0.9,0.1-1.7,0.8-1.6,1.7c0.1,0.8,0.8,1.7,1.7,1.6c1-0.1,1.8-0.7,1.9-1.7c0.1-0.8-0.1-1.5-0.5-2.2
		c-0.6-1.1-1.3-2.3-2-3.4c-0.7-1.1-1.3-2.3-2-3.4c-0.8-1.3-1.6-3-3.4-2.9c-0.9,0.1-1.7,0.8-1.6,1.7
		C150.5,102.6,151.2,103.4,152.2,103.3L152.2,103.3z"/>
	<path fill="#F9920D" d="M152.2,115.9c2.8,1.3,5.9,0.2,7.9-2c1-1,1.7-2.2,2.5-3.4c0.8-1.3,1.5-2.5,2.1-3.8c0.8-1.5,1.5-3,2.2-4.5
		c0.3-0.8,0.2-1.6-0.5-2.1c-0.7-0.5-1.5-0.4-2.2,0.2c-0.3,0.3-0.6,0.5-0.8,0.8c-0.6,0.6-0.6,1.8,0.1,2.3c0.7,0.6,1.7,0.6,2.3-0.1
		c0.3-0.3,0.6-0.5,0.8-0.8c-0.9-0.6-1.8-1.3-2.6-1.9c-1.1,2.5-2.4,4.9-3.7,7.3c-0.3,0.6-0.7,1.1-1,1.7c-0.2,0.2-0.3,0.5-0.5,0.7
		c-0.1,0.1-0.1,0.2-0.2,0.3c0,0,0.2-0.3,0-0.1c-0.1,0.1-0.1,0.2-0.2,0.2c-0.4,0.5-0.8,0.9-1.2,1.3c0,0-0.2,0.1,0,0
		c0.2-0.1,0,0-0.1,0c-0.1,0.1-0.2,0.2-0.3,0.2c-0.1,0.1-0.7,0.5-0.7,0.4c0,0,0.4-0.2,0.1,0c-0.1,0-0.2,0.1-0.3,0.1
		c-0.1,0-0.3,0.1-0.4,0.1c0,0-0.5,0.1-0.5,0.1c0,0,0.4-0.1,0.1,0c-0.1,0-0.1,0-0.2,0c-0.2,0-0.3,0-0.5,0c-0.1,0-0.3,0,0,0
		c0.3,0-0.1,0-0.1,0c-0.1,0-0.3-0.1-0.4-0.1c0,0-0.2-0.1-0.2-0.1c0.1,0,0.1,0.1,0.2,0.1c-0.1,0-0.1-0.1-0.2-0.1
		c-0.8-0.4-1.8-0.2-2.2,0.7C151.2,114.5,151.4,115.6,152.2,115.9L152.2,115.9z"/>
</g>
</svg>
