<?xml version="1.0" encoding="utf-8"?>
<!-- Generator: Adobe Illustrator 18.1.1, SVG Export Plug-In . SVG Version: 6.00 Build 0)  -->
<svg version="1.1" id="Layer_1" xmlns="http://www.w3.org/2000/svg" xmlns:xlink="http://www.w3.org/1999/xlink" x="0px" y="0px"
	 viewBox="0 0 187 95.8" enable-background="new 0 0 187 95.8" xml:space="preserve">
<g>
	<path fill="#FFF100" d="M32.6,34.4c-0.2,0.2-0.3,0.4-0.5,0.6c-0.4,0.4,0.3-0.3,0.1-0.1c-0.1,0.1-0.2,0.2-0.3,0.3
		c-0.4,0.3-0.8,0.6-1.2,0.8c-0.2,0.1-0.6,0.3,0.1,0c-0.1,0.1-0.2,0.1-0.3,0.2c-0.2,0.1-0.4,0.2-0.6,0.3c-0.5,0.2-1,0.3-1.5,0.5
		c0.2,0,0.4-0.1,0.6-0.1c-1,0.3-2.1,0.4-3.2,0.3c0.2,0,0.4,0,0.6,0c-1.1,0-2.2-0.2-3.3-0.5c0.2,0.1,0.4,0.1,0.6,0.2
		c-1-0.3-2-0.7-2.9-1.3c0.2,0.1,0.3,0.2,0.5,0.3c-0.7-0.5-1.4-1-2-1.6c-0.1-0.1-0.2-0.2-0.3-0.3c-0.2-0.2,0.4,0.5,0.1,0.1
		c-0.2-0.2-0.3-0.4-0.5-0.5c-0.3-0.4-0.6-0.7-0.8-1.1c-0.1-0.2-0.3-0.4-0.4-0.6c-0.1-0.2-0.5-0.9-0.1-0.2c-0.2-0.4-0.4-0.8-0.6-1.2
		c-0.4-0.9-0.7-1.8-0.9-2.7c0,0.2,0.1,0.4,0.1,0.6c-0.4-1.7-0.6-3.4-0.5-5.1c0,0.2,0,0.4,0,0.6c0.1-1.7,0.3-3.4,0.8-5
		c-0.1,0.2-0.1,0.4-0.2,0.6c0.4-1.3,0.9-2.5,1.6-3.7c-0.1,0.2-0.2,0.3-0.3,0.5c0.4-0.7,1-1.4,1.5-2c0.1-0.1,0.3-0.3,0.4-0.4
		c0.2-0.2-0.4,0.4-0.1,0.1c0.1-0.1,0.1-0.1,0.2-0.2c0.3-0.3,0.6-0.5,0.9-0.7c0.3-0.2,0.6-0.4,1-0.6c0.1,0,0.4-0.2,0,0
		c-0.3,0.2,0,0,0,0c0.2-0.1,0.3-0.2,0.5-0.2c0.7-0.3,1.5-0.6,2.2-0.8c-0.2,0-0.4,0.1-0.6,0.1c1-0.2,2.1-0.4,3.2-0.3
		c-0.2,0-0.4,0-0.6,0c1.1,0,2.1,0.2,3.2,0.5c-0.2-0.1-0.4-0.1-0.6-0.2c1.1,0.3,2.1,0.8,3,1.4c-0.2-0.1-0.3-0.2-0.5-0.3
		c0.6,0.3,1.1,0.7,1.6,1.2c0.2,0.2,0.5,0.4,0.7,0.7c0.1,0.1,0.3,0.3,0,0c-0.3-0.3,0,0,0,0c0.1,0.1,0.2,0.3,0.3,0.4
		c0.7,0.9,2.1,1.3,3.1,0.5c0.9-0.7,1.3-2.2,0.5-3.1C34.2,8.1,28.7,5.9,23.4,7c-2.5,0.5-4.8,1.6-6.8,3.3c-2.1,1.8-3.6,4.1-4.5,6.8
		c-1.6,4.7-1.6,10,0.3,14.7c0.9,2.3,2.3,4.3,4.1,6c1.7,1.6,3.7,2.6,6,3.3c4,1.1,9,0.4,12.2-2.4c0.5-0.4,0.9-0.8,1.3-1.3
		c0.8-0.9,0.7-2.4-0.3-3.2C34.7,33.4,33.4,33.5,32.6,34.4L32.6,34.4z"/>
	<path fill="#FFF100" d="M58.6,10c-0.7,7.6-0.9,15.2-0.7,22.8c0.1,2.2,0.2,4.4,0.3,6.6c0.1,1.2,1.3,2.2,2.5,2c1.3-0.2,2.1-1.2,2-2.5
		c0-0.2,0-0.3,0-0.5c0,0.2,0,0.4,0,0.6c0-0.4,0-0.8,0-1.2c-0.1-1.2-1.3-2.2-2.5-2c-1.3,0.2-2.1,1.2-2,2.5c0,0.2,0,0.3,0,0.5
		c0-0.2,0-0.4,0-0.6c0,0.4,0,0.8,0,1.2c1.5-0.2,3-0.3,4.5-0.5c-0.3-4.6-0.4-9.2-0.4-13.7c0-1.3,0-2.5,0.1-3.8c0,0.2,0,0.4,0,0.6
		c0.1-3.8,0.3-7.5,0.7-11.2c0.1-0.6,0-1.2-0.4-1.7c-0.3-0.4-0.9-0.8-1.5-0.9C60.1,8,58.7,8.7,58.6,10L58.6,10z"/>
	<path fill="#FFF100" d="M61.4,27.2c0.8,0,1.5,0,2.3,0c-0.2,0-0.4,0-0.6,0c3.7,0.1,7.4,0.6,11-0.2c1.8-0.4,3.5-1,5.1-2
		c1.5-0.9,2.7-2.2,3.6-3.8c1.7-2.9,1.7-6.9-0.5-9.5c-2.2-2.6-5.5-3.5-8.8-3.7c-2-0.2-3.9-0.2-5.9-0.3c-2.2-0.1-4.3-0.2-6.5-0.3
		c-0.6,0-1.2,0-1.7,0.4C59,8,58.6,8.5,58.5,9.1c-0.1,0.6,0,1.2,0.4,1.7c0.3,0.4,0.9,0.9,1.5,0.9c3,0.2,5.9,0.3,8.9,0.5
		c2.4,0.1,4.8,0.2,7.1,0.8c-0.2-0.1-0.4-0.1-0.6-0.2c0.8,0.2,1.5,0.6,2.2,1c-0.2-0.1-0.3-0.2-0.5-0.3c0.3,0.2,0.6,0.4,0.8,0.6
		c0.2,0.2,0.5,0.6,0.1,0c0.1,0.1,0.2,0.3,0.3,0.4c0.1,0.1,0.2,0.3,0.3,0.4c0,0.1,0.1,0.1,0.1,0.2c-0.3-0.6-0.2-0.3-0.1-0.2
		c0.2,0.3,0.3,0.7,0.4,1c0-0.2-0.1-0.4-0.1-0.6c0.1,0.5,0.2,1,0.2,1.5c0-0.2,0-0.4,0-0.6c0,0.6-0.1,1.3-0.3,1.9
		c0.1-0.2,0.1-0.4,0.2-0.6c-0.2,0.7-0.5,1.3-0.9,1.9c0.1-0.2,0.2-0.3,0.3-0.5c-0.3,0.5-0.7,1-1.1,1.4c-0.3,0.3,0.4-0.3,0,0
		c-0.1,0.1-0.2,0.2-0.4,0.3c-0.3,0.2-0.5,0.4-0.8,0.6c-0.1,0.1-0.3,0.2-0.4,0.2c-0.3,0.2,0.2-0.1,0.2-0.1c0,0-0.2,0.1-0.2,0.1
		c-0.3,0.1-0.6,0.3-0.9,0.4c-0.6,0.2-1.3,0.4-1.9,0.6c0.2,0,0.4-0.1,0.6-0.1c-2.1,0.5-4.1,0.6-6.2,0.5c0.2,0,0.4,0,0.6,0
		c-2.5-0.1-4.9-0.3-7.4-0.2c-1.2,0-2.2,1.3-2,2.5C59.1,26.5,60.1,27.2,61.4,27.2L61.4,27.2z"/>
	<path fill="#FFF100" d="M61.1,41.8c3.2,0,6.4-0.1,9.5-0.2c3-0.1,6.1-0.2,8.9-1.4c2.7-1.3,5.2-3.7,5.5-6.9c0.3-3.1-1.2-6.1-3.6-8.1
		c-2.5-2.1-6.1-2-9.2-2.2c-0.6,0-1.2,0-1.7,0.4c-0.4,0.3-0.8,0.9-0.9,1.5c-0.1,0.6,0,1.2,0.4,1.7c0.3,0.4,0.9,0.9,1.5,0.9
		c2,0.1,4.1,0.1,6.1,0.7c-0.2-0.1-0.4-0.1-0.6-0.2c0.5,0.2,1,0.4,1.5,0.7c-0.2-0.1-0.3-0.2-0.5-0.3c0.4,0.2,0.7,0.5,1,0.8
		c0.1,0.1,0.4,0.4-0.1-0.1c0.1,0.1,0.2,0.2,0.2,0.3c0.1,0.2,0.3,0.4,0.4,0.5c0.1,0.2,0.3,0.4,0.4,0.6c0.1,0.2,0.2,0.5-0.1-0.1
		c0,0.1,0.1,0.2,0.1,0.3c0.2,0.4,0.3,0.8,0.4,1.3c0-0.2-0.1-0.4-0.1-0.6c0.1,0.5,0.2,1,0.2,1.5c0-0.2,0-0.4,0-0.6
		c0,0.5-0.1,1-0.2,1.4c0.1-0.2,0.1-0.4,0.2-0.6c-0.2,0.5-0.4,0.9-0.6,1.3c0.1-0.2,0.2-0.3,0.3-0.5c-0.3,0.4-0.6,0.8-0.9,1.1
		c-0.3,0.3,0.4-0.4,0,0c-0.1,0.1-0.2,0.1-0.3,0.2c-0.2,0.2-0.4,0.3-0.6,0.4c-0.1,0.1-0.2,0.1-0.3,0.2c-0.3,0.2,0.5-0.2,0.1-0.1
		c-0.2,0.1-0.4,0.2-0.7,0.3c-0.5,0.2-1.1,0.4-1.7,0.5c0.2,0,0.4-0.1,0.6-0.1C74,37,71.4,37,68.9,37.1c-2.7,0.1-5.5,0.2-8.2,0.2
		c-0.5,0-1.2,0.4-1.5,0.8c-0.4,0.4-0.6,1.1-0.5,1.7c0.1,0.6,0.3,1.1,0.8,1.5C60,41.7,60.5,41.8,61.1,41.8L61.1,41.8z"/>
	<path fill="#FFF100" d="M110.5,36.3c-0.3-0.2-0.7-0.5-1-0.8c-0.2-0.1-0.3-0.3-0.5-0.4c-0.1-0.1-0.1-0.1-0.2-0.2
		c-0.3-0.3,0.4,0.4,0.1,0.1c-0.5-0.6-1-1.3-1.5-2c-0.1-0.2-0.2-0.3-0.3-0.5c0.4,0.6,0,0-0.1-0.2c-0.2-0.4-0.4-0.8-0.5-1.1
		c-0.3-0.8-0.6-1.6-0.8-2.4c0,0.2,0.1,0.4,0.1,0.6c-0.4-1.6-0.6-3.1-0.5-4.7c0,0.2,0,0.4,0,0.6c0-1.5,0.3-3,0.7-4.4
		c-0.1,0.2-0.1,0.4-0.2,0.6c0.4-1.1,0.8-2.2,1.5-3.2c-0.1,0.2-0.2,0.3-0.3,0.5c0.3-0.5,0.7-1,1.1-1.5c0.1-0.1,0.2-0.2,0.3-0.3
		c0.1-0.1,0.5-0.5,0.2-0.2c-0.3,0.3,0.1,0,0.1-0.1c0.1-0.1,0.2-0.2,0.4-0.3c0.2-0.2,0.5-0.3,0.7-0.5c0.1,0,0.1-0.1,0.2-0.1
		c0.3-0.2-0.2,0.1-0.2,0.1c0-0.1,0.3-0.2,0.4-0.2c0.7-0.3,1.4-0.5,2.1-0.7c-0.2,0-0.4,0.1-0.6,0.1c1.3-0.3,2.6-0.4,3.9-0.4
		c-0.2,0-0.4,0-0.6,0c1.8,0.1,3.6,0.4,5.4,0.9c-0.2-0.1-0.4-0.1-0.6-0.2c1.2,0.4,2.3,0.9,3.4,1.6c-0.2-0.1-0.3-0.2-0.5-0.3
		c0.6,0.4,1.2,0.8,1.7,1.3c0.3,0.2,0.5,0.4,0.7,0.7c0.1,0.1,0.3,0.3,0,0c-0.2-0.3,0,0,0,0c0.1,0.1,0.2,0.3,0.3,0.4
		c0.2,0.3,0.4,0.5,0.5,0.8c0.2,0.3-0.1-0.2-0.1-0.2c0,0,0.1,0.2,0.1,0.2c0.1,0.1,0.1,0.3,0.2,0.4c0.3,0.6,0.5,1.3,0.6,1.9
		c0-0.2-0.1-0.4-0.1-0.6c0.3,1.3,0.4,2.7,0.4,4c0-0.2,0-0.4,0-0.6c0,1.5-0.3,3-0.7,4.5c0.1-0.2,0.1-0.4,0.2-0.6
		c-0.4,1.2-0.9,2.4-1.5,3.4c0.1-0.2,0.2-0.3,0.3-0.5c-0.5,0.8-1,1.4-1.7,2.1c-0.1,0.1-0.2,0.2-0.2,0.2c0.5-0.5,0.2-0.2,0.1-0.1
		c-0.2,0.2-0.4,0.3-0.5,0.5c-0.4,0.3-0.7,0.6-1.1,0.8c-0.4,0.3-0.8,0.5-1.2,0.8c-0.1,0.1-0.5,0.2,0.1,0c-0.1,0-0.2,0.1-0.3,0.2
		c-0.2,0.1-0.4,0.2-0.6,0.3c-0.9,0.4-1.8,0.7-2.7,0.9c0.2,0,0.4-0.1,0.6-0.1c-1.1,0.3-2.2,0.4-3.3,0.4c0.2,0,0.4,0,0.6,0
		c-0.2,0-0.5,0-0.7,0c-0.6-0.1-1.2,0-1.7,0.4c-0.4,0.3-0.8,0.9-0.9,1.5c-0.1,1.1,0.6,2.5,1.9,2.6c3.1,0.3,6.2-0.4,8.9-1.9
		c2.8-1.5,5.3-3.6,6.9-6.4c1.5-2.7,2.2-5.8,2.2-8.8c0.1-3-0.6-6.3-2.5-8.7c-2.1-2.8-5.4-4.5-8.6-5.4c-3.2-0.9-6.6-1-9.8-0.2
		c-2.7,0.7-5,2.2-6.6,4.4c-1.6,2.2-2.6,4.7-3,7.4c-0.9,5.7,0.8,12,4.9,16.1c0.5,0.5,1,0.9,1.5,1.3c0.5,0.4,1,0.6,1.7,0.5
		c0.5-0.1,1.2-0.4,1.5-0.8C111.4,38.6,111.5,37,110.5,36.3L110.5,36.3z"/>
	<path fill="#FFF100" d="M154.5,42.3c2.9-3.9,5.8-7.8,8.7-11.6c0.7-0.9,0.7-2.4-0.3-3.2c-0.9-0.7-2.4-0.7-3.2,0.3
		c-2.9,3.9-5.8,7.8-8.7,11.6c-0.7,0.9-0.7,2.4,0.3,3.2C152.2,43.3,153.7,43.3,154.5,42.3L154.5,42.3z"/>
	<path fill="#FFF100" d="M175.7,42.6c0.5-8,1.1-15.9,1.7-23.9c0.2-2.2,0.3-4.5,0.5-6.7c0-0.6,0-1.2-0.4-1.7
		c-0.3-0.4-0.9-0.9-1.5-0.9c-2-0.1-4-0.2-6-0.3c-1.9-0.1-3.8-0.2-5.8-0.2c-3.5,0.1-7.2,0.8-9.8,3.2c-1.3,1.2-2.5,2.6-3.1,4.2
		c-0.7,1.8-0.8,3.7-0.3,5.6c0.5,1.7,1.7,3.2,3,4.4c1.5,1.3,3.4,2.1,5.3,2.6c2.1,0.6,4.2,1,6.4,1.4c2.2,0.4,4.4,0.8,6.7,1.3
		c1.1,0.2,2.2-0.5,2.5-1.6c0.3-1-0.1-2.3-1.2-2.7c-0.6-0.2-1.2-0.5-1.8-0.7c-1.1-0.4-2.5-0.1-3,1.1c-0.4,1.1-0.1,2.5,1.1,3
		c0.6,0.2,1.2,0.5,1.8,0.7c0.4-1.4,0.9-2.8,1.3-4.3c-2.2-0.4-4.4-0.8-6.7-1.3c-2.1-0.4-4.3-0.7-6.4-1.4c0.2,0.1,0.4,0.1,0.6,0.2
		c-1.1-0.3-2.1-0.8-3.1-1.4c0.2,0.1,0.3,0.2,0.5,0.3c-0.4-0.3-0.8-0.5-1.1-0.8c-0.2-0.2-0.4-0.3-0.5-0.5c-0.3-0.3,0.4,0.4,0.1,0.1
		c-0.1-0.1-0.1-0.2-0.2-0.3c-0.1-0.2-0.3-0.4-0.4-0.5c-0.1-0.1-0.1-0.2-0.2-0.3c0-0.1-0.1-0.1-0.1-0.2c0.1,0.1,0.1,0.2,0.2,0.3
		c-0.1-0.1-0.2-0.4-0.3-0.6c-0.1-0.2-0.2-0.5-0.2-0.7c0,0.2,0.1,0.4,0.1,0.6c-0.1-0.5-0.2-1-0.2-1.5c0,0.2,0,0.4,0,0.6
		c0-0.6,0.1-1.1,0.3-1.6c-0.1,0.2-0.1,0.4-0.2,0.6c0.2-0.7,0.5-1.3,0.9-1.9c-0.1,0.2-0.2,0.3-0.3,0.5c0.3-0.5,0.7-1,1.1-1.4
		c0.1-0.1,0.1-0.1,0.2-0.2c0.3-0.3-0.1,0.1-0.1,0.1c0.1-0.1,0.2-0.2,0.3-0.3c0.2-0.2,0.5-0.4,0.7-0.6c0.2-0.2,0.5-0.3,0.7-0.5
		c0.2-0.1-0.5,0.2-0.2,0.1c0.1,0,0.1-0.1,0.2-0.1c0.2-0.1,0.3-0.1,0.5-0.2c0.7-0.3,1.3-0.5,2-0.7c-0.2,0-0.4,0.1-0.6,0.1
		c2-0.5,4-0.5,6.1-0.5c-0.2,0-0.4,0-0.6,0c3.1,0.1,6.2,0.3,9.2,0.5c-0.6-0.9-1.2-1.7-1.9-2.6c-0.6,8-1.2,15.9-1.8,23.9
		c-0.2,2.2-0.3,4.5-0.4,6.7c0,0.6,0,1.2,0.4,1.7c0.3,0.4,0.9,0.8,1.5,0.9C174.2,44.6,175.6,43.9,175.7,42.6L175.7,42.6z"/>
	<path fill="#FFF100" d="M13.1,59.5c0-1.3,0.1-2.5,0.1-3.8c0-0.5-0.4-1.2-0.8-1.5c-0.4-0.3-0.9-0.5-1.4-0.5c-0.5,0-1,0.1-1.4,0.4
		c-0.4,0.3-0.9,0.9-0.9,1.5c-0.3,7.9-0.4,15.8-0.1,23.6c0.1,2.2,0.2,4.4,0.3,6.6c0.1,0.9,0.8,1.6,1.6,1.9c0.8,0.2,1.9,0,2.4-0.7
		c3.1-4.3,6.1-8.5,9.4-12.6c1.6-2.1,3.3-4.1,5-6.1c1.3-1.6,2.7-3.1,4-4.7c1.7-2.1,3.3-4.3,5-6.4c-1.3-0.6-2.6-1.2-3.9-1.8
		c-0.4,7.8-0.8,15.6-0.3,23.4c0.1,2.1,0.3,4.2,0.6,6.3c0.1,1.2,1.3,2.2,2.5,2c1.2-0.2,2.1-1.2,2-2.5c-0.6-4.9-0.8-9.9-0.8-14.9
		c0-1.5,0-2.9,0.1-4.4c0,0.2,0,0.4,0,0.6c0.1-3.3,0.2-6.5,0.4-9.8c0-0.5,0-1-0.3-1.4c-0.2-0.4-0.6-0.8-1-1c-0.9-0.4-2-0.2-2.7,0.6
		c-1.6,1.9-3.1,3.8-4.6,5.7c-1.2,1.6-2.6,3.1-3.9,4.6c-3.4,4-6.7,8.2-9.8,12.4c-1.7,2.3-3.4,4.7-5.1,7c1.3,0.4,2.6,0.8,4,1.2
		c-0.4-6.6-0.6-13.2-0.5-19.8c0-1.9,0-3.7,0.1-5.6c0,0.2,0,0.4,0,0.6c0-1.4,0.1-2.8,0.1-4.3c-1.5,0-3-0.1-4.4-0.1
		c0,1.3-0.1,2.5-0.1,3.8c0,0.5,0.4,1.2,0.8,1.5c0.4,0.4,1.1,0.6,1.7,0.5c0.6-0.1,1.1-0.3,1.5-0.8C13,60.7,13.1,60.1,13.1,59.5
		L13.1,59.5z"/>
	<path fill="#FFF100" d="M63.1,85.8c0.6-7.8,0.5-15.7,0.4-23.5c0-2.2,0-4.4-0.1-6.5c-0.9,0.8-1.7,1.6-2.6,2.5
		c3.6,0.3,7.3,0.4,10.9,0.5c-0.2,0-0.4,0-0.6,0c2.5,0.1,5,0.2,7.4,0.4c0.6,0.1,1.2,0,1.7-0.4c0.4-0.3,0.8-0.9,0.9-1.5
		c0.1-1.1-0.6-2.5-1.9-2.6c-3.6-0.3-7.3-0.4-10.9-0.5c0.2,0,0.4,0,0.6,0c-2.5-0.1-5-0.2-7.4-0.4c-0.7-0.1-1.3,0.1-1.9,0.6
		c-0.6,0.5-0.7,1.1-0.7,1.9c0,5.7,0.2,11.4,0.1,17.2c0,1.6,0,3.2-0.1,4.8c0-0.2,0-0.4,0-0.6c-0.1,2.5-0.2,5-0.4,7.5
		c0,0.6,0,1.2,0.4,1.7c0.3,0.4,0.9,0.8,1.5,0.9C61.6,87.8,63,87.1,63.1,85.8L63.1,85.8z"/>
	<path fill="#FFF100" d="M102.5,56.7c-0.1,7.5-0.2,15-0.3,22.5c0,2.1-0.1,4.2-0.1,6.3c1.5-0.2,3-0.3,4.5-0.5c0-0.2,0-0.3,0-0.5
		c0,0.2,0,0.4,0,0.6c0-0.3,0.1-0.6,0.2-0.9c-0.1,0.2-0.1,0.4-0.2,0.6c0.1-0.3,0.2-0.6,0.4-0.8c0.3-0.5,0.2-1.3,0.1-1.7
		c-0.2-0.5-0.6-1-1.2-1.2c-0.5-0.2-1.2-0.3-1.7-0.1c-0.6,0.2-0.9,0.6-1.2,1.2c-0.6,1-0.8,2.2-0.7,3.4c0.1,1.2,1.3,2.2,2.5,2
		c0.6-0.1,1.1-0.3,1.5-0.8c0.4-0.5,0.5-1,0.5-1.7c0.1-7.5,0.2-15,0.3-22.5c0-2.1,0.1-4.2,0.1-6.3c0-0.5-0.4-1.2-0.8-1.5
		c-0.4-0.4-1.1-0.6-1.7-0.5c-0.6,0.1-1.1,0.3-1.5,0.8C102.7,55.6,102.6,56.1,102.5,56.7L102.5,56.7z"/>
	<path fill="#FFF100" d="M105.8,59c0.7-0.3,1.5-0.5,2.3-0.7c-0.2,0-0.4,0.1-0.6,0.1c2.8-0.7,5.7-0.8,8.6-0.7c-0.2,0-0.4,0-0.6,0
		c1.1,0,2.2,0.2,3.2,0.5c-0.2-0.1-0.4-0.1-0.6-0.2c0.9,0.3,1.8,0.7,2.7,1.2c-0.2-0.1-0.3-0.2-0.5-0.3c0.4,0.3,0.8,0.6,1.2,0.9
		c0.2,0.2,0.4,0.3,0.5,0.5c-0.5-0.5-0.2-0.2,0,0c0.1,0.1,0.2,0.2,0.2,0.3c0.1,0.2,0.3,0.4,0.4,0.6c0.1,0.1,0.1,0.2,0.2,0.3
		c-0.4-0.6-0.1-0.2-0.1-0.1c0.2,0.4,0.4,0.9,0.5,1.4c0-0.2-0.1-0.4-0.1-0.6c0.2,0.7,0.2,1.3,0.2,2c0-0.2,0-0.4,0-0.6
		c0,0.8-0.2,1.6-0.4,2.4c0.1-0.2,0.1-0.4,0.2-0.6c-0.3,0.9-0.7,1.8-1.2,2.6c0.1-0.2,0.2-0.3,0.3-0.5c-0.4,0.7-0.9,1.3-1.4,1.8
		c-0.1,0.1-0.1,0.2-0.2,0.2c-0.1,0.1-0.3,0.3,0,0c0.3-0.3,0,0,0,0c-0.1,0.1-0.2,0.1-0.2,0.2c-0.3,0.2-0.6,0.5-0.9,0.7
		c-0.1,0.1-0.3,0.2-0.4,0.3c-0.1,0.1-0.2,0.1-0.3,0.2c-0.2,0.1-0.5,0.2,0.1,0c-0.4,0.2-0.8,0.4-1.2,0.6c-0.8,0.3-1.6,0.6-2.5,0.8
		c0.2,0,0.4-0.1,0.6-0.1c-2.3,0.5-4.7,0.7-7,0.6c0.2,0,0.4,0,0.6,0c-1,0-2.1,0-3.1-0.3c0.2,0.1,0.4,0.1,0.6,0.2
		c-0.2-0.1-0.4-0.2-0.7-0.3c0.2,0.1,0.3,0.2,0.5,0.3c-0.2-0.2-0.4-0.4,0,0.1c0,0-0.1-0.1-0.1-0.1c0.3,0.5,0.2,0.5,0.2,0.2
		c0,0.2,0.1,0.4,0.1,0.6c0-0.1,0-0.1,0-0.2c0,0.2,0,0.4,0,0.6c0-0.1,0-0.2,0-0.2c0.2-0.5-0.1-1.3-0.4-1.7c-0.3-0.4-0.9-0.8-1.5-0.9
		c-0.6-0.1-1.2,0-1.7,0.4c-0.5,0.4-0.7,0.9-0.9,1.5c-0.4,1.5,0.7,2.9,1.9,3.6c0.9,0.5,1.8,0.6,2.8,0.6c2.1,0.1,4.3,0.2,6.4-0.1
		c4.1-0.5,8.2-2,11-5.1c1.4-1.5,2.3-3.3,2.9-5.2c0.6-1.9,0.5-3.9,0-5.8c-1.1-4-4.9-6.6-8.8-7.4c-1.1-0.3-2.3-0.3-3.5-0.3
		c-1.2,0-2.4,0-3.6,0.1c-2.5,0.2-5,0.6-7.3,1.5c-1.1,0.4-1.8,1.8-1.3,2.9C103.4,58.9,104.7,59.5,105.8,59L105.8,59z"/>
	<path fill="#FFF100" d="M150,88.3c1.8-4.1,3.6-8.2,5.4-12.3c1.9-4.3,3.7-8.7,5.6-13c1-2.2,1.9-4.4,2.9-6.6c-1.4,0-2.8-0.1-4.1-0.1
		c2.7,8.8,6.4,17.2,10.5,25.4c1.1,2.3,2.3,4.5,3.5,6.8c0.3,0.5,0.6,1,1.2,1.2c0.5,0.2,1.2,0.3,1.7,0.1c0.5-0.2,1-0.6,1.2-1.2
		c0.2-0.5,0.3-1.2,0.1-1.7c-4.3-8.1-8.3-16.4-11.5-25c-0.9-2.4-1.7-4.8-2.5-7.2c-0.3-0.8-1.2-1.4-2-1.4c-0.9,0-1.7,0.5-2.1,1.3
		c-1.8,4.1-3.6,8.2-5.4,12.3c-1.9,4.3-3.7,8.7-5.6,13c-1,2.2-1.9,4.4-2.9,6.6c-0.5,1.1,0,2.5,1.1,3C148.1,89.9,149.5,89.5,150,88.3
		L150,88.3z"/>
	<path fill="#FFF100" d="M153.2,79c5.2,0,10.3,0.1,15.5,0.1c0.5,0,1.2-0.4,1.5-0.8c0.4-0.4,0.6-1.1,0.5-1.7
		c-0.1-0.6-0.3-1.1-0.8-1.5c-0.5-0.4-1-0.5-1.7-0.5c-5.2,0-10.3-0.1-15.5-0.1c-0.5,0-1.2,0.4-1.5,0.8c-0.4,0.4-0.6,1.1-0.5,1.7
		c0.1,0.6,0.3,1.1,0.8,1.5C152,78.9,152.5,79,153.2,79L153.2,79z"/>
	<path fill="#FFF100" d="M2.4,91.5C2.1,79.7,1.9,67.9,1.9,56.1c0-11.8,0.1-23.5,0.4-35.3C2.4,14.2,2.6,7.6,2.9,1
		c0-0.5-0.2-0.9-0.7-1c-0.4-0.1-1,0.3-1,0.7C0.9,6.7,0.7,12.6,0.5,18.5c-0.1,5.9-0.3,11.8-0.3,17.7C0.1,42.2,0.1,48.1,0.1,54
		c0,5.9,0,11.8,0.1,17.7s0.2,11.8,0.4,17.7c0,0.7,0,1.5,0.1,2.2c0,0.5,0.5,0.8,1,0.8C2.1,92.4,2.4,92,2.4,91.5L2.4,91.5z"/>
	<path fill="#FFF100" d="M184.9,2.4c-23.9,0.2-47.7,0.2-71.6,0.1C89.6,2.4,65.9,2.2,42.1,1.8C28.7,1.5,15.3,1.2,1.8,0.9
		C0.7,0.9,0.9,2.7,2,2.7c23.9,0.6,47.7,1,71.6,1.3c23.7,0.3,47.5,0.4,71.2,0.4c13.4,0,26.9-0.1,40.3-0.2
		C186.3,4.2,186.1,2.4,184.9,2.4L184.9,2.4z"/>
	<path fill="#FFF100" d="M184.4,47.6c-23.9,0.2-47.7,0.2-71.6,0.1c-23.7-0.1-47.5-0.4-71.2-0.8c-13.4-0.2-26.9-0.5-40.3-0.8
		c-1.1,0-0.9,1.8,0.2,1.8c23.9,0.6,47.7,1,71.6,1.3c23.7,0.3,47.5,0.4,71.2,0.4c13.4,0,26.9-0.1,40.3-0.2
		C185.8,49.4,185.6,47.6,184.4,47.6L184.4,47.6z"/>
	<path fill="#FFF100" d="M183.9,93.9C160,94,136.2,94.1,112.3,94c-23.7-0.1-47.5-0.4-71.2-0.8C27.6,93,14.2,92.7,0.8,92.4
		c-1.1,0-0.9,1.8,0.2,1.8c23.9,0.6,47.7,1,71.6,1.3c23.7,0.3,47.5,0.4,71.2,0.4c13.4,0,26.9-0.1,40.3-0.2
		C185.2,95.6,185,93.8,183.9,93.9L183.9,93.9z"/>
	<path fill="#FFF100" d="M47.5,92.8c-0.2-6-0.4-12-0.5-18c-0.2-6-0.4-12-0.4-17.9c0.1-5.9,0.5-11.7,1-17.5
		c0.5-5.8,1.2-11.7,1.6-17.5c0.5-5.9,0.7-11.8,0.6-17.7c0-0.4,0-0.7,0-1.1c0-0.3,0-0.7-0.1-0.9c-0.2-0.4-0.7-0.7-1.2-0.5
		c-0.1,0-0.2,0.1-0.3,0.2c-0.3,0.2,0.2-0.1,0,0c0.1-0.1,0.3-0.1,0.4-0.2c0.3,0.1,0.3,0,0,0c-0.1,0-0.2,0-0.2,0c-0.2,0-0.3,0-0.5,0.1
		c-0.6,0.2-0.8,1.1-0.2,1.5c0.2,0.1,0.3,0.2,0.6,0.2c1.1,0.2,1.4-1.6,0.3-1.8c0,0-0.1,0-0.1,0c0.1,0.1,0.3,0.1,0.4,0.2c0,0,0,0,0,0
		c-0.1,0.5-0.2,1-0.2,1.5c-0.4,0-0.5,0-0.2,0c0.1,0,0.1,0,0.2,0.1c0.1,0,0.3,0,0.4,0c0.3-0.1,0.4-0.2,0.6-0.4
		c-0.1,0.1-0.2,0.2-0.4,0.3c0,0,0,0,0,0c-0.4-0.2-0.8-0.3-1.2-0.5c0-0.1,0-0.2,0,0c0,0.1,0,0.2,0,0.3c0,0.2,0,0.4,0,0.5
		c0,0.4,0,0.8,0,1.1c0,0.7,0,1.5,0,2.2c0,1.5,0,2.9-0.1,4.4c-0.1,2.9-0.2,5.8-0.5,8.8c-0.4,5.8-1,11.6-1.6,17.4
		c-0.6,5.9-1,11.8-1.2,17.6C44.8,61,45,66.9,45.2,72.8c0.2,6,0.4,12,0.5,18c0,0.7,0,1.5,0.1,2.2c0,0.5,0.5,0.8,1,0.8
		C47.3,93.7,47.6,93.3,47.5,92.8L47.5,92.8z"/>
	<path fill="#FFF100" d="M93.4,93c0.1-6,0.3-12,0.4-18c0.1-6,0.3-12.1,0.4-18.1c0.1-6,0.3-12,0.4-18C94.9,32.9,95,27,95.1,21
		c0.1-5.3,0-10.7-0.8-16C94.2,4.4,94.1,3.7,94,3c-0.1-0.5-0.5-0.8-1-0.8c-0.5,0-0.9,0.5-0.8,1c1,5.3,1.2,10.6,1.2,16
		C93.3,25,93.1,30.9,93,36.8c-0.1,6-0.3,12-0.4,18c-0.1,6-0.3,12-0.4,18C92,78.9,91.8,85,91.7,91c0,0.7,0,1.5-0.1,2.2
		c0,0.5,0.6,0.8,1,0.8C93.1,94,93.4,93.5,93.4,93L93.4,93z"/>
	<path fill="#FFF100" d="M139.9,94.3c-0.6-6-1-11.9-1.2-17.9c-0.2-6-0.3-12-0.2-18c0.1-6,0.3-11.9,0.7-17.9c0.4-5.9,1-11.9,1.7-17.8
		c0.6-5.7,1.2-11.4,1.4-17.1c0-0.4,0-0.8,0-1.1c0-0.3,0.1-0.6,0-0.9c-0.1-0.4-0.3-0.7-0.7-0.8c-0.2,0-0.5,0-0.7,0.2
		c-0.6,0.5,0.7,0,0.2-0.1c-0.5-0.1-0.9,0.1-1.1,0.6c-0.3,0.5,0.1,1.2,0.7,1.3c0.1,0,0.3,0,0.4,0c0.5-0.1,0.8-0.5,0.8-1
		c0-0.5-0.5-0.9-1-0.8c0,0,0.1,0,0.1,0c0.2,0.4,0.4,0.8,0.7,1.3c0,0,0,0,0,0c-0.2,0.2-0.3,0.3-0.5,0.5c-0.2,0.1-0.2,0.1,0,0.1
		c0.2,0,0.3,0,0.4-0.1c0.1,0,0.2-0.1,0.3-0.1c0.1,0,0.4-0.3,0.1-0.1c-0.2,0.1-0.4,0.1-0.7,0.2c0,0,0,0,0,0c-0.2-0.3-0.5-0.5-0.7-0.8
		c0.1,0.3,0,0.6,0,0.8c0,0.4,0,0.8,0,1.2c0,0.7-0.1,1.5-0.1,2.2c-0.1,1.4-0.2,2.8-0.3,4.3c-0.2,2.8-0.5,5.6-0.8,8.4
		c-0.6,5.9-1.3,11.8-1.7,17.7c-0.4,6-0.7,12-0.8,18c-0.1,6-0.1,12,0.1,18.1c0.2,6,0.6,12,1.1,17.9c0.1,0.8,0.1,1.5,0.2,2.3
		C138.2,95.6,140,95.4,139.9,94.3L139.9,94.3z"/>
	<path fill="#FFF100" d="M185.7,94.1c0.2-12,0.4-23.9,0.6-35.9c0.2-11.9,0.5-23.8,0.6-35.7c0.1-6.5,0-12.9-0.7-19.3
		c-0.1-1.1-1.9-1-1.8,0.2c0.7,5.7,0.8,11.5,0.8,17.3c0,5.9-0.2,11.8-0.3,17.7c-0.2,12-0.4,23.9-0.6,35.9c-0.1,6.7-0.2,13.4-0.4,20.1
		c0,0.5,0.6,0.8,1,0.8C185.4,95.1,185.7,94.6,185.7,94.1L185.7,94.1z"/>
</g>
</svg>
