<?xml version="1.0" encoding="utf-8"?>
<!-- Generator: Adobe Illustrator 18.1.1, SVG Export Plug-In . SVG Version: 6.00 Build 0)  -->
<svg version="1.1" id="Layer_1" xmlns="http://www.w3.org/2000/svg" xmlns:xlink="http://www.w3.org/1999/xlink" x="0px" y="0px"
	 viewBox="0 0 218.4 65" enable-background="new 0 0 218.4 65" xml:space="preserve">
<g>
	<g>
		<path fill="#2E3379" d="M168.8,24.5l-0.3-2.1c-0.1-0.8-0.9-1.4-1.7-1.3l-1.7,0.2c-0.1,0-0.2,0-0.3,0.1l-1.3,0.2
			c-0.8-3.4-3.2-6.3-6.8-8c-1.5-0.7-3.1-1.1-4.7-1.3c-4.6-0.7-10-0.8-14.8-0.3l3.8-9.5c0.4-0.8,0.1-1.8-0.8-2.3
			c-0.8-0.4-1.8-0.1-2.3,0.8l-6.3,10.3l-11-5.8c-0.9-0.4-2-0.3-2.4,0.6c-0.5,0.9,0,2.1,0.7,2.7l8.8,6.5c-2.9,2.2-4.6,5.5-4.6,9.1V27
			l-3.7,0.5c-0.1,0-0.2,0-0.3,0l-1.7,0.2c-0.8,0.1-1.4,0.9-1.3,1.7l0.3,2.1c0.1,0.8,0.9,1.4,1.7,1.3l1.3-0.2l2.6,7
			c0.3,0.7,0.6,1.4,1.1,1.9v3c0,11.2,9.1,20.3,20.3,20.3s20.3-9.1,20.3-20.3l0-7c1-1,1.7-2.3,1.8-3.8l0.6-7.4l1.3-0.2
			C168.3,26.2,168.9,25.4,168.8,24.5z M159.5,25c1-0.1,1.9,0.2,2.6,0.8c0.7,0.7,1.1,1.6,1,2.6l-0.4,5.3c-0.1,1.5-1.3,2.7-2.7,2.9
			l-7.2,1c-1.4,0.2-2.8-0.6-3.3-1.9l-2.2-4.9c-0.4-0.9-0.4-2,0.1-2.8c0.5-0.9,1.4-1.5,2.4-1.6L159.5,25z M123.1,31.1
			c0.5-0.8,1.3-1.4,2.3-1.5l9.8-1.3c1-0.1,2,0.2,2.7,0.9c0.7,0.7,1,1.7,0.9,2.7l-0.8,5.3c-0.2,1.4-1.3,2.5-2.7,2.7l-7.2,1
			c-1.5,0.2-2.9-0.7-3.4-2.1l-1.8-5C122.5,32.9,122.6,31.9,123.1,31.1z M154.3,52.9h-8.1c-0.7,0-1.3-0.6-1.3-1.3s0.6-1.3,1.3-1.3
			h8.1c0.7,0,1.3,0.6,1.3,1.3S155,52.9,154.3,52.9z M152,46.3H135c-2.3,0-4.3-1.1-5.5-2.8l6-0.8c2.6-0.4,4.7-2.4,5.2-5l0.8-5.3
			c0.3-1.9-0.3-3.8-1.6-5.1c-1.3-1.4-3.2-2-5.1-1.8l-6.5,0.9v-1.4c0-3.7,3-6.7,6.7-6.7H152c2.7,0,5,1.6,6.1,3.9
			c0,0.1,0.1,0.2,0.1,0.3l-8.8,1.2c-1.9,0.3-3.5,1.4-4.5,3s-1,3.6-0.2,5.4l2.2,4.9c1.1,2.4,3.7,3.9,6.3,3.5l5.5-0.7v0
			C158.7,43.3,155.7,46.3,152,46.3z"/>
	</g>
	<g>
		<path fill="#2E3379" d="M0,24.5h7l11.2,14.3V24.5h7.4v27.1h-6.5L7.4,36.8v14.9H0V24.5z"/>
		<path fill="#2E3379" d="M30.4,24.5h21.8v6.4H37.8V35h13V41h-13v4.3h14.6v6.4h-22V24.5z"/>
		<path fill="#2E3379" d="M56.3,24.5h12.8c4.1,0,7,1.1,8.8,2.9c1.6,1.6,2.4,3.6,2.4,6.3v0.1c0,4.2-2.2,6.9-5.6,8.4l6.5,9.4h-8.6
			l-5.5-8.2h-3.3v8.2h-7.5V24.5z M68.8,37.5c2.5,0,4-1.2,4-3.2v-0.1c0-2.2-1.6-3.3-4.1-3.3h-5v6.5H68.8z"/>
		<path fill="#2E3379" d="M84.1,24.5h10.5c9.6,0,15.3,5.6,15.3,13.4V38c0,7.8-5.7,13.6-15.4,13.6H84.1V24.5z M91.6,31.2V45h3.1
			c4.5,0,7.5-2.5,7.5-6.9v-0.1c0-4.3-3-6.9-7.5-6.9H91.6z"/>
	</g>
	<g>
		<path fill="#2E3379" d="M178.3,44.8c0-0.8,0.2-1.7,0.4-2.7l2-7.6h-2.4l1.6-5.7h2.4l1.4-5.2h7.2l-1.4,5.2h4.8l-1.6,5.7h-4.8
			l-1.7,6.5c-0.1,0.5-0.2,0.9-0.2,1.2c0,0.8,0.5,1.3,1.6,1.3c0.8,0,1.7-0.2,2.7-0.6l-1.6,5.9c-1.3,0.5-2.8,0.8-4.2,0.8
			C180.4,49.7,178.3,47.8,178.3,44.8z"/>
		<path fill="#2E3379" d="M195.6,28.8h7.3l0.8,11.9l7.1-11.9h7.6l-13.6,20.6h-6.5L195.6,28.8z"/>
	</g>
</g>
</svg>
